font.ufo
<glyph name="exclam" format="1">
  <advance width="186"/>
  <unicode hex="0021"/>
  <outline>
    <contour>
      <point x="47" y="29" type="curve" smooth="yes"/>
      <point x="47" y="54"/>
      <point x="68" y="75"/>
      <point x="93" y="75" type="curve" smooth="yes"/>
      <point x="119" y="75"/>
      <point x="139" y="54"/>
      <point x="139" y="29" type="curve" smooth="yes"/>
      <point x="139" y="3"/>
      <point x="119" y="-17"/>
      <point x="93" y="-17" type="curve" smooth="yes"/>
      <point x="68" y="-17"/>
      <point x="47" y="3"/>
    </contour>
    <contour>
      <point x="55" y="115" type="line"/>
      <point x="55" y="700" type="line"/>
      <point x="132" y="700" type="line"/>
      <point x="132" y="115" type="line"/>
    </contour>
  </outline>
</glyph>
<glyph name="quotedbl" format="1">
  <advance width="289"/>
  <unicode hex="0022"/>
  <outline>
    <contour>
      <point x="43" y="465" type="line"/>
      <point x="43" y="736" type="line"/>
      <point x="119" y="736" type="line"/>
      <point x="119" y="465" type="line"/>
    </contour>
    <contour>
      <point x="172" y="465" type="line"/>
      <point x="172" y="736" type="line"/>
      <point x="247" y="736" type="line"/>
      <point x="247" y="465" type="line"/>
    </contour>
  </outline>
</glyph>
<glyph name="numbersign" format="1">
  <advance width="833"/>
  <unicode hex="0023"/>
  <outline>
    <contour>
      <point x="76" y="201" type="line"/>
      <point x="91" y="273" type="line"/>
      <point x="252" y="273" type="line"/>
      <point x="279" y="429" type="line"/>
      <point x="110" y="429" type="line"/>
      <point x="122" y="501" type="line"/>
      <point x="292" y="501" type="line"/>
      <point x="324" y="682" type="line"/>
      <point x="397" y="682" type="line"/>
      <point x="365" y="500" type="line"/>
      <point x="518" y="500" type="line"/>
      <point x="550" y="682" type="line"/>
      <point x="623" y="682" type="line"/>
      <point x="591" y="500" type="line"/>
      <point x="753" y="500" type="line"/>
      <point x="741" y="428" type="line"/>
      <point x="578" y="429" type="line"/>
      <point x="551" y="272" type="line"/>
      <point x="718" y="272" type="line"/>
      <point x="707" y="200" type="line"/>
      <point x="538" y="201" type="line"/>
      <point x="507" y="22" type="line"/>
      <point x="435" y="22" type="line"/>
      <point x="465" y="201" type="line"/>
      <point x="312" y="201" type="line"/>
      <point x="281" y="22" type="line"/>
      <point x="208" y="22" type="line"/>
      <point x="239" y="201" type="line"/>
    </contour>
    <contour>
      <point x="325" y="273" type="line"/>
      <point x="478" y="272" type="line"/>
      <point x="505" y="429" type="line"/>
      <point x="352" y="429" type="line"/>
    </contour>
  </outline>
</glyph>
<glyph name="dollar" format="1">
  <advance width="481"/>
  <unicode hex="0024"/>
  <outline>
    <contour>
      <point x="20" y="158" type="curve"/>
      <point x="94" y="184" type="line"/>
      <point x="110" y="85"/>
      <point x="206" y="73"/>
      <point x="206" y="73" type="curve"/>
      <point x="206" y="-47" type="line"/>
      <point x="159" y="-47" type="line"/>
      <point x="159" y="5" type="line"/>
      <point x="74" y="27"/>
      <point x="21" y="111"/>
    </contour>
    <contour>
      <point x="28" y="512" type="curve" smooth="yes"/>
      <point x="28" y="616"/>
      <point x="103" y="670"/>
      <point x="159" y="689" type="curve"/>
      <point x="159" y="750" type="line"/>
      <point x="206" y="750" type="line"/>
      <point x="206" y="623" type="line"/>
      <point x="178" y="621"/>
      <point x="107" y="587"/>
      <point x="107" y="510" type="curve" smooth="yes"/>
      <point x="107" y="455"/>
      <point x="154" y="431"/>
      <point x="206" y="416" type="curve"/>
      <point x="206" y="329" type="line"/>
      <point x="185" y="334"/>
      <point x="165" y="339"/>
      <point x="151" y="345" type="curve" smooth="yes"/>
      <point x="78" y="375"/>
      <point x="28" y="414"/>
    </contour>
    <contour>
      <point x="255" y="-47" type="line"/>
      <point x="255" y="73" type="line"/>
      <point x="296" y="74"/>
      <point x="380" y="121"/>
      <point x="380" y="207" type="curve" smooth="yes"/>
      <point x="380" y="276"/>
      <point x="316" y="300"/>
      <point x="255" y="315" type="curve"/>
      <point x="255" y="400" type="line"/>
      <point x="283" y="393"/>
      <point x="311" y="386"/>
      <point x="333" y="377" type="curve" smooth="yes"/>
      <point x="399" y="351"/>
      <point x="461" y="311"/>
      <point x="461" y="205" type="curve" smooth="yes"/>
      <point x="461" y="114"/>
      <point x="392" y="27"/>
      <point x="302" y="4" type="curve"/>
      <point x="302" y="-47" type="line"/>
    </contour>
    <contour>
      <point x="255" y="623" type="curve"/>
      <point x="255" y="750" type="line"/>
      <point x="302" y="750" type="line"/>
      <point x="302" y="691" type="line"/>
      <point x="381" y="667"/>
      <point x="427" y="586"/>
      <point x="433" y="553" type="curve"/>
      <point x="357" y="528" type="line"/>
      <point x="336" y="617"/>
      <point x="255" y="623"/>
    </contour>
  </outline>
</glyph>
<glyph name="percent" format="1">
  <advance width="415"/>
  <unicode hex="0025"/>
  <outline>
    <contour>
      <point x="53" y="576" type="curve" smooth="yes"/>
      <point x="53" y="608"/>
      <point x="79" y="635"/>
      <point x="112" y="635" type="curve" smooth="yes"/>
      <point x="145" y="635"/>
      <point x="172" y="608"/>
      <point x="172" y="576" type="curve" smooth="yes"/>
      <point x="172" y="543"/>
      <point x="145" y="516"/>
      <point x="112" y="516" type="curve" smooth="yes"/>
      <point x="79" y="516"/>
      <point x="53" y="543"/>
    </contour>
    <contour>
      <point x="81" y="-23" type="line"/>
      <point x="256" y="716" type="line"/>
      <point x="331" y="716" type="line"/>
      <point x="157" y="-23" type="line"/>
    </contour>
    <contour>
      <point x="242" y="116" type="curve" smooth="yes"/>
      <point x="242" y="149"/>
      <point x="269" y="175"/>
      <point x="302" y="175" type="curve" smooth="yes"/>
      <point x="335" y="175"/>
      <point x="362" y="149"/>
      <point x="362" y="116" type="curve" smooth="yes"/>
      <point x="362" y="83"/>
      <point x="335" y="56"/>
      <point x="302" y="56" type="curve" smooth="yes"/>
      <point x="269" y="56"/>
      <point x="242" y="83"/>
    </contour>
  </outline>
</glyph>
<glyph name="parenright" format="1">
  <advance width="209"/>
  <unicode hex="0029"/>
  <outline>
    <contour>
      <point x="32" y="-20" type="curve"/>
      <point x="32" y="29" type="line"/>
      <point x="69" y="52"/>
      <point x="115" y="83"/>
      <point x="115" y="206" type="curve" smooth="yes"/>
      <point x="115" y="521" type="line" smooth="yes"/>
      <point x="115" y="616"/>
      <point x="71" y="647"/>
      <point x="32" y="670" type="curve"/>
      <point x="32" y="720" type="line"/>
      <point x="137" y="680"/>
      <point x="181" y="622"/>
      <point x="181" y="510" type="curve" smooth="yes"/>
      <point x="181" y="193" type="line" smooth="yes"/>
      <point x="181" y="137"/>
      <point x="171" y="37"/>
    </contour>
  </outline>
</glyph>
<glyph name="asterisk" format="1">
  <advance width="313"/>
  <unicode hex="002A"/>
  <outline>
    <contour>
      <point x="16" y="699" type="line"/>
      <point x="47" y="742" type="line"/>
      <point x="129" y="689" type="line"/>
      <point x="129" y="785" type="line"/>
      <point x="182" y="785" type="line"/>
      <point x="182" y="685" type="line"/>
      <point x="268" y="742" type="line"/>
      <point x="298" y="699" type="line"/>
      <point x="198" y="633" type="line"/>
      <point x="297" y="564" type="line"/>
      <point x="267" y="522" type="line"/>
      <point x="182" y="583" type="line"/>
      <point x="182" y="478" type="line"/>
      <point x="129" y="478" type="line"/>
      <point x="129" y="582" type="line"/>
      <point x="45" y="525" type="line"/>
      <point x="15" y="568" type="line"/>
      <point x="115" y="634" type="line"/>
    </contour>
  </outline>
</glyph>
<glyph name="plus" format="1">
  <advance width="405"/>
  <unicode hex="002B"/>
  <outline>
    <contour>
      <point x="15" y="257" type="line"/>
      <point x="15" y="331" type="line"/>
      <point x="163" y="331" type="line"/>
      <point x="163" y="498" type="line"/>
      <point x="239" y="498" type="line"/>
      <point x="239" y="331" type="line"/>
      <point x="390" y="331" type="line"/>
      <point x="390" y="257" type="line"/>
      <point x="239" y="257" type="line"/>
      <point x="239" y="87" type="line"/>
      <point x="163" y="87" type="line"/>
      <point x="163" y="257" type="line"/>
    </contour>
  </outline>
</glyph>
<glyph name="comma" format="1">
  <advance width="213"/>
  <unicode hex="002C"/>
  <outline>
    <contour>
      <point x="51" y="-23" type="line"/>
      <point x="88" y="129" type="line"/>
      <point x="163" y="129" type="line"/>
      <point x="126" y="-23" type="line"/>
    </contour>
  </outline>
</glyph>
<glyph name="period" format="1">
  <advance width="122"/>
  <unicode hex="002E"/>
  <outline>
    <contour>
      <point x="15" y="24" type="curve" smooth="yes"/>
      <point x="15" y="50"/>
      <point x="36" y="71"/>
      <point x="61" y="71" type="curve" smooth="yes"/>
      <point x="87" y="71"/>
      <point x="107" y="50"/>
      <point x="107" y="24" type="curve" smooth="yes"/>
      <point x="107" y="-1"/>
      <point x="87" y="-22"/>
      <point x="61" y="-22" type="curve" smooth="yes"/>
      <point x="36" y="-22"/>
      <point x="15" y="-1"/>
    </contour>
  </outline>
</glyph>
<glyph name="slash" format="1">
  <advance width="350"/>
  <unicode hex="002F"/>
  <outline>
    <contour>
      <point x="50" y="-23" type="line"/>
      <point x="225" y="716" type="line"/>
      <point x="300" y="716" type="line"/>
      <point x="126" y="-23" type="line"/>
    </contour>
  </outline>
</glyph>
<glyph name="two" format="1">
  <advance width="485"/>
  <unicode hex="0032"/>
  <outline>
    <contour>
      <point x="30" y="520" type="line"/>
      <point x="39" y="604"/>
      <point x="100" y="689"/>
      <point x="202" y="700" type="curve"/>
      <point x="202" y="626" type="line" smooth="yes"/>
      <point x="201" y="626"/>
      <point x="114" y="617"/>
      <point x="100" y="505" type="curve"/>
    </contour>
    <contour>
      <point x="49" y="0" type="line"/>
      <point x="49" y="74" type="line"/>
      <point x="453" y="74" type="line"/>
      <point x="453" y="0" type="line"/>
    </contour>
    <contour>
      <point x="50" y="121" type="line"/>
      <point x="74" y="275"/>
      <point x="238" y="341"/>
      <point x="272" y="362" type="curve" smooth="yes"/>
      <point x="323" y="393"/>
      <point x="385" y="418"/>
      <point x="385" y="495" type="curve" smooth="yes"/>
      <point x="385" y="566"/>
      <point x="354" y="625"/>
      <point x="251" y="626" type="curve"/>
      <point x="251" y="700" type="line"/>
      <point x="409" y="700"/>
      <point x="460" y="591"/>
      <point x="459" y="495" type="curve" smooth="yes"/>
      <point x="458" y="402"/>
      <point x="411" y="362"/>
      <point x="346" y="323" type="curve" smooth="yes"/>
      <point x="273" y="280"/>
      <point x="150" y="231"/>
      <point x="136" y="121" type="curve"/>
    </contour>
  </outline>
</glyph>
<glyph name="three" format="1">
  <advance width="484"/>
  <unicode hex="0033"/>
  <outline>
    <contour>
      <point x="26" y="97" type="curve"/>
      <point x="89" y="134" type="line"/>
      <point x="119" y="86"/>
      <point x="144" y="74"/>
      <point x="195" y="72" type="curve"/>
      <point x="195" y="-1" type="line"/>
      <point x="117" y="-1"/>
      <point x="60" y="30"/>
    </contour>
    <contour>
      <point x="26" y="600" type="line"/>
      <point x="59" y="656"/>
      <point x="117" y="698"/>
      <point x="195" y="698" type="curve"/>
      <point x="195" y="624" type="line"/>
      <point x="162" y="623"/>
      <point x="117" y="608"/>
      <point x="89" y="562" type="curve"/>
    </contour>
    <contour>
      <point x="255" y="0" type="curve"/>
      <point x="255" y="72" type="line"/>
      <point x="298" y="72"/>
      <point x="380" y="117"/>
      <point x="380" y="201" type="curve" smooth="yes"/>
      <point x="380" y="272"/>
      <point x="352" y="311"/>
      <point x="247" y="311" type="curve"/>
      <point x="247" y="385" type="line"/>
      <point x="355" y="385"/>
      <point x="377" y="427"/>
      <point x="377" y="499" type="curve" smooth="yes"/>
      <point x="377" y="586"/>
      <point x="303" y="625"/>
      <point x="252" y="625" type="curve"/>
      <point x="252" y="698" type="line"/>
      <point x="386" y="695"/>
      <point x="453" y="582"/>
      <point x="453" y="508" type="curve" smooth="yes"/>
      <point x="453" y="411"/>
      <point x="422" y="366"/>
      <point x="391" y="350" type="curve"/>
      <point x="419" y="331"/>
      <point x="458" y="284"/>
      <point x="458" y="199" type="curve" smooth="yes"/>
      <point x="458" y="74"/>
      <point x="336" y="0"/>
    </contour>
  </outline>
</glyph>
<glyph name="five" format="1">
  <advance width="475"/>
  <unicode hex="0035"/>
  <outline>
    <contour>
      <point x="20" y="354" type="line"/>
      <point x="49" y="700" type="line"/>
      <point x="403" y="700" type="line"/>
      <point x="403" y="626" type="line"/>
      <point x="118" y="625" type="line"/>
      <point x="100" y="416" type="line"/>
      <point x="122" y="430"/>
      <point x="155" y="447"/>
      <point x="200" y="447" type="curve"/>
      <point x="200" y="374" type="line"/>
      <point x="156" y="373"/>
      <point x="118" y="351"/>
      <point x="88" y="312" type="curve"/>
    </contour>
    <contour>
      <point x="22" y="107" type="curve"/>
      <point x="84" y="148" type="line"/>
      <point x="111" y="99"/>
      <point x="146" y="80"/>
      <point x="200" y="74" type="curve"/>
      <point x="200" y="0" type="line"/>
      <point x="116" y="0"/>
      <point x="54" y="46"/>
    </contour>
    <contour>
      <point x="249" y="0" type="curve"/>
      <point x="249" y="74" type="line"/>
      <point x="307" y="78"/>
      <point x="385" y="128"/>
      <point x="385" y="224" type="curve" smooth="yes"/>
      <point x="385" y="331"/>
      <point x="302" y="372"/>
      <point x="249" y="374" type="curve"/>
      <point x="249" y="447" type="line"/>
      <point x="395" y="446"/>
      <point x="460" y="333"/>
      <point x="460" y="223" type="curve" smooth="yes"/>
      <point x="460" y="80"/>
      <point x="354" y="2"/>
    </contour>
  </outline>
</glyph>
<glyph name="six" format="1">
  <advance width="509"/>
  <unicode hex="0036"/>
  <outline>
    <contour>
      <point x="118" y="385" type="curve" smooth="yes"/>
      <point x="117" y="436"/>
      <point x="135" y="526"/>
      <point x="240" y="537" type="curve"/>
      <point x="231" y="537"/>
      <point x="212" y="503"/>
      <point x="212" y="479" type="curve"/>
      <point x="123" y="447"/>
      <point x="126" y="315"/>
      <point x="141" y="240" type="curve"/>
      <point x="163" y="284"/>
      <point x="204" y="250"/>
      <point x="240" y="250" type="curve"/>
      <point x="168" y="250"/>
      <point x="157" y="305"/>
      <point x="157" y="375" type="curve"/>
      <point x="98" y="423"/>
      <point x="80" y="456"/>
      <point x="151" y="410" type="curve" smooth="yes"/>
      <point x="151" y="383"/>
      <point x="172" y="256"/>
      <point x="240" y="256" type="curve"/>
      <point x="214" y="253"/>
      <point x="208" y="183"/>
      <point x="208" y="163" type="curve"/>
      <point x="113" y="169"/>
      <point x="110" y="276"/>
    </contour>
    <contour>
      <point x="289" y="-1" type="curve"/>
      <point x="289" y="72" type="line"/>
      <point x="361" y="74"/>
      <point x="409" y="145"/>
      <point x="409" y="210" type="curve" smooth="yes"/>
      <point x="409" y="317"/>
      <point x="339" y="356"/>
      <point x="289" y="356" type="curve"/>
      <point x="289" y="425" type="line"/>
      <point x="413" y="425"/>
      <point x="479" y="329"/>
      <point x="479" y="211" type="curve" smooth="yes"/>
      <point x="479" y="86"/>
      <point x="390" y="0"/>
    </contour>
    <contour>
      <point x="289" y="624" type="curve"/>
      <point x="289" y="698" type="line"/>
      <point x="367" y="698"/>
      <point x="424" y="659"/>
      <point x="459" y="600" type="curve"/>
      <point x="401" y="561" type="line"/>
      <point x="382" y="591"/>
      <point x="349" y="624"/>
    </contour>
  </outline>
</glyph>
<glyph name="seven" format="1">
  <advance width="435"/>
  <unicode hex="0037"/>
  <outline>
    <contour>
      <point x="20" y="624" type="line"/>
      <point x="20" y="698" type="line"/>
      <point x="409" y="698" type="line"/>
      <point x="409" y="625" type="line"/>
      <point x="404" y="620"/>
      <point x="372" y="513"/>
      <point x="369" y="505" type="curve"/>
      <point x="290" y="505" type="line"/>
      <point x="321" y="624" type="line"/>
    </contour>
    <contour>
      <point x="191" y="0" type="line"/>
      <point x="208" y="158"/>
      <point x="238" y="299"/>
      <point x="280" y="454" type="curve"/>
      <point x="357" y="454" type="line"/>
      <point x="318" y="304"/>
      <point x="289" y="154"/>
      <point x="273" y="0" type="curve"/>
    </contour>
  </outline>
</glyph>
<glyph name="eight" format="1">
  <advance width="480"/>
  <unicode hex="0038"/>
  <outline>
    <contour>
      <point x="20" y="199" type="curve" smooth="yes"/>
      <point x="20" y="283"/>
      <point x="64" y="330"/>
      <point x="92" y="349" type="curve"/>
      <point x="78" y="352"/>
      <point x="27" y="409"/>
      <point x="27" y="499" type="curve" smooth="yes"/>
      <point x="27" y="617"/>
      <point x="133" y="698"/>
      <point x="212" y="698" type="curve"/>
      <point x="212" y="624" type="line"/>
      <point x="149" y="620"/>
      <point x="100" y="562"/>
      <point x="100" y="498" type="curve" smooth="yes"/>
      <point x="100" y="431"/>
      <point x="133" y="391"/>
      <point x="211" y="386" type="curve"/>
      <point x="211" y="311" type="line"/>
      <point x="159" y="307"/>
      <point x="95" y="286"/>
      <point x="95" y="200" type="curve" smooth="yes"/>
      <point x="95" y="121"/>
      <point x="175" y="79"/>
      <point x="209" y="74" type="curve"/>
      <point x="209" y="0" type="line"/>
      <point x="208" y="0" type="line" smooth="yes"/>
      <point x="160" y="0"/>
      <point x="20" y="53"/>
    </contour>
    <contour>
      <point x="261" y="624" type="curve"/>
      <point x="261" y="698" type="line"/>
      <point x="341" y="698"/>
      <point x="446" y="615"/>
      <point x="446" y="499" type="curve" smooth="yes"/>
      <point x="446" y="406"/>
      <point x="395" y="352"/>
      <point x="381" y="349" type="curve"/>
      <point x="409" y="330"/>
      <point x="454" y="287"/>
      <point x="454" y="197" type="curve" smooth="yes"/>
      <point x="454" y="56"/>
      <point x="317" y="0"/>
      <point x="265" y="0" type="curve" smooth="yes"/>
      <point x="264" y="0" type="line"/>
      <point x="264" y="74" type="line"/>
      <point x="301" y="77"/>
      <point x="378" y="121"/>
      <point x="378" y="198" type="curve" smooth="yes"/>
      <point x="378" y="298"/>
      <point x="302" y="307"/>
      <point x="262" y="311" type="curve"/>
      <point x="262" y="386" type="line"/>
      <point x="345" y="391"/>
      <point x="372" y="427"/>
      <point x="372" y="498" type="curve" smooth="yes"/>
      <point x="372" y="565"/>
      <point x="324" y="619"/>
    </contour>
  </outline>
</glyph>
<glyph name="colon" format="1">
  <advance width="193"/>
  <unicode hex="003A"/>
  <outline>
    <contour>
      <point x="50" y="41" type="curve" smooth="yes"/>
      <point x="50" y="67"/>
      <point x="71" y="88"/>
      <point x="96" y="88" type="curve" smooth="yes"/>
      <point x="122" y="88"/>
      <point x="142" y="67"/>
      <point x="142" y="41" type="curve" smooth="yes"/>
      <point x="142" y="16"/>
      <point x="122" y="-5"/>
      <point x="96" y="-5" type="curve" smooth="yes"/>
      <point x="71" y="-5"/>
      <point x="50" y="16"/>
    </contour>
    <contour>
      <point x="51" y="331" type="curve" smooth="yes"/>
      <point x="51" y="357"/>
      <point x="71" y="378"/>
      <point x="97" y="378" type="curve" smooth="yes"/>
      <point x="122" y="378"/>
      <point x="143" y="357"/>
      <point x="143" y="331" type="curve" smooth="yes"/>
      <point x="143" y="306"/>
      <point x="122" y="285"/>
      <point x="97" y="285" type="curve" smooth="yes"/>
      <point x="71" y="285"/>
      <point x="51" y="306"/>
    </contour>
  </outline>
</glyph>
<glyph name="semicolon" format="1">
  <advance width="237"/>
  <unicode hex="003B"/>
  <outline>
    <contour>
      <point x="50" y="-23" type="line"/>
      <point x="87" y="129" type="line"/>
      <point x="162" y="129" type="line"/>
      <point x="125" y="-23" type="line"/>
    </contour>
    <contour>
      <point x="95" y="331" type="curve" smooth="yes"/>
      <point x="95" y="357"/>
      <point x="115" y="378"/>
      <point x="141" y="378" type="curve" smooth="yes"/>
      <point x="166" y="378"/>
      <point x="187" y="357"/>
      <point x="187" y="331" type="curve" smooth="yes"/>
      <point x="187" y="306"/>
      <point x="166" y="285"/>
      <point x="141" y="285" type="curve" smooth="yes"/>
      <point x="115" y="285"/>
      <point x="95" y="306"/>
    </contour>
  </outline>
</glyph>
<glyph name="greater" format="1">
  <advance width="414"/>
  <unicode hex="003E"/>
  <outline>
    <contour>
      <point x="30" y="79" type="line"/>
      <point x="30" y="155" type="line"/>
      <point x="284" y="292" type="line"/>
      <point x="30" y="423" type="line"/>
      <point x="30" y="500" type="line"/>
      <point x="384" y="314" type="line"/>
      <point x="384" y="269" type="line"/>
    </contour>
  </outline>
</glyph>
<glyph name="question" format="1">
  <advance width="460"/>
  <unicode hex="003F"/>
  <outline>
    <contour>
      <point x="30" y="611" type="line"/>
      <point x="60" y="649"/>
      <point x="110" y="703"/>
      <point x="218" y="703" type="curve" smooth="yes"/>
      <point x="346" y="703"/>
      <point x="426" y="620"/>
      <point x="430" y="491" type="curve"/>
      <point x="430" y="294"/>
      <point x="235" y="276"/>
      <point x="235" y="276" type="curve"/>
      <point x="235" y="110" type="line"/>
      <point x="159" y="110" type="line"/>
      <point x="159" y="345" type="line"/>
      <point x="276" y="347"/>
      <point x="355" y="382"/>
      <point x="355" y="492" type="curve" smooth="yes"/>
      <point x="355" y="570"/>
      <point x="298" y="627"/>
      <point x="215" y="627" type="curve" smooth="yes"/>
      <point x="145" y="627"/>
      <point x="101" y="588"/>
      <point x="80" y="560" type="curve"/>
    </contour>
    <contour>
      <point x="151" y="24" type="curve" smooth="yes"/>
      <point x="151" y="50"/>
      <point x="172" y="71"/>
      <point x="197" y="71" type="curve" smooth="yes"/>
      <point x="222" y="71"/>
      <point x="244" y="50"/>
      <point x="244" y="24" type="curve" smooth="yes"/>
      <point x="244" y="-1"/>
      <point x="222" y="-22"/>
      <point x="197" y="-22" type="curve" smooth="yes"/>
      <point x="172" y="-22"/>
      <point x="151" y="-1"/>
    </contour>
  </outline>
</glyph>
<glyph name="at" format="1">
  <advance width="755"/>
  <unicode hex="0040"/>
  <outline>
    <contour>
      <point x="16" y="309" type="curve" smooth="yes"/>
      <point x="16" y="525"/>
      <point x="189" y="693"/>
      <point x="424" y="693" type="curve" smooth="yes"/>
      <point x="571" y="693"/>
      <point x="738" y="599"/>
      <point x="738" y="413" type="curve" smooth="yes"/>
      <point x="738" y="190"/>
      <point x="587" y="143"/>
      <point x="516" y="143" type="curve" smooth="yes"/>
      <point x="479" y="143"/>
      <point x="444" y="174"/>
      <point x="436" y="195" type="curve"/>
      <point x="424" y="176"/>
      <point x="390" y="147"/>
      <point x="335" y="147" type="curve" smooth="yes"/>
      <point x="269" y="147"/>
      <point x="214" y="214"/>
      <point x="214" y="298" type="curve" smooth="yes"/>
      <point x="214" y="433"/>
      <point x="321" y="498"/>
      <point x="392" y="498" type="curve" smooth="yes"/>
      <point x="448" y="498"/>
      <point x="467" y="475"/>
      <point x="480" y="461" type="curve"/>
      <point x="487" y="485" type="line"/>
      <point x="544" y="485" type="line"/>
      <point x="499" y="308" type="line" smooth="yes"/>
      <point x="496" y="297"/>
      <point x="492" y="280"/>
      <point x="491" y="266" type="curve" smooth="yes"/>
      <point x="488" y="249"/>
      <point x="502" y="215"/>
      <point x="532" y="215" type="curve" smooth="yes"/>
      <point x="571" y="215"/>
      <point x="667" y="248"/>
      <point x="667" y="412" type="curve" smooth="yes"/>
      <point x="667" y="544"/>
      <point x="537" y="624"/>
      <point x="426" y="624" type="curve" smooth="yes"/>
      <point x="244" y="624"/>
      <point x="89" y="491"/>
      <point x="89" y="310" type="curve" smooth="yes"/>
      <point x="89" y="120"/>
      <point x="223" y="1"/>
      <point x="395" y="1" type="curve" smooth="yes"/>
      <point x="491" y="1"/>
      <point x="573" y="30"/>
      <point x="653" y="86" type="curve"/>
      <point x="684" y="29" type="line"/>
      <point x="618" y="-25"/>
      <point x="513" y="-66"/>
      <point x="398" y="-66" type="curve" smooth="yes"/>
      <point x="170" y="-66"/>
      <point x="16" y="85"/>
    </contour>
  </outline>
</glyph>
<glyph name="A" format="1">
  <advance width="472"/>
  <unicode hex="0041"/>
  <outline>
    <contour>
      <point x="32" y="0" type="line"/>
      <point x="166" y="592" type="line"/>
      <point x="182" y="592" type="line"/>
      <point x="212" y="451" type="line"/>
      <point x="112" y="0" type="line"/>
    </contour>
    <contour>
      <point x="187" y="115" type="line"/>
      <point x="204" y="194" type="line"/>
      <point x="319" y="194" type="line"/>
      <point x="208" y="699" type="line"/>
      <point x="288" y="699" type="line"/>
      <point x="440" y="0" type="line"/>
      <point x="360" y="0" type="line"/>
      <point x="335" y="115" type="line"/>
    </contour>
  </outline>
</glyph>
<glyph name="C" format="1">
  <advance width="494"/>
  <unicode hex="0043"/>
  <outline>
    <contour>
      <point x="38" y="181" type="curve"/>
      <point x="38" y="518" type="line"/>
      <point x="38" y="578"/>
      <point x="92" y="706"/>
      <point x="237" y="705" type="curve"/>
      <point x="237" y="625" type="line"/>
      <point x="151" y="624"/>
      <point x="119" y="550"/>
      <point x="119" y="518" type="curve"/>
      <point x="119" y="181" type="line"/>
      <point x="119" y="149"/>
      <point x="152" y="75"/>
      <point x="237" y="75" type="curve"/>
      <point x="237" y="-5" type="line"/>
      <point x="91" y="-5"/>
      <point x="38" y="121"/>
    </contour>
    <contour>
      <point x="286" y="-5" type="curve"/>
      <point x="286" y="75" type="line"/>
      <point x="286" y="75"/>
      <point x="368" y="79"/>
      <point x="390" y="150" type="curve" smooth="yes"/>
      <point x="394" y="161"/>
      <point x="395" y="173"/>
      <point x="396" y="184" type="curve" smooth="yes"/>
      <point x="397" y="190"/>
      <point x="397" y="199"/>
      <point x="397" y="200" type="curve"/>
      <point x="474" y="182" type="line"/>
      <point x="474" y="76"/>
      <point x="381" y="-5"/>
    </contour>
    <contour>
      <point x="286" y="625" type="curve"/>
      <point x="286" y="705" type="line"/>
      <point x="381" y="706"/>
      <point x="474" y="612"/>
      <point x="474" y="516" type="curve"/>
      <point x="396" y="496" type="line"/>
      <point x="396" y="499"/>
      <point x="396" y="509"/>
      <point x="396" y="512" type="curve" smooth="yes"/>
      <point x="395" y="523"/>
      <point x="394" y="532"/>
      <point x="390" y="543" type="curve" smooth="yes"/>
      <point x="362" y="620"/>
      <point x="286" y="625"/>
    </contour>
  </outline>
</glyph>
<glyph name="D" format="1">
  <advance width="472"/>
  <unicode hex="0044"/>
  <outline>
    <contour>
      <point x="42" y="0" type="line"/>
      <point x="42" y="700" type="line"/>
      <point x="123" y="700" type="line"/>
      <point x="123" y="0" type="line"/>
    </contour>
    <contour>
      <point x="172" y="0" type="curve"/>
      <point x="172" y="80" type="line"/>
      <point x="259" y="80"/>
      <point x="352" y="85"/>
      <point x="353" y="197" type="curve" smooth="yes"/>
      <point x="353" y="503" type="line"/>
      <point x="353" y="603"/>
      <point x="272" y="619"/>
      <point x="172" y="620" type="curve"/>
      <point x="172" y="700" type="line"/>
      <point x="322" y="700"/>
      <point x="434" y="649"/>
      <point x="434" y="503" type="curve"/>
      <point x="434" y="197" type="line"/>
      <point x="434" y="21"/>
      <point x="291" y="0"/>
    </contour>
  </outline>
</glyph>
<glyph name="E" format="1">
  <advance width="444"/>
  <unicode hex="0045"/>
  <outline>
    <contour>
      <point x="42" y="0" type="line"/>
      <point x="42" y="700" type="line"/>
      <point x="406" y="700" type="line"/>
      <point x="406" y="620" type="line"/>
      <point x="123" y="620" type="line"/>
      <point x="123" y="389" type="line"/>
      <point x="312" y="389" type="line"/>
      <point x="312" y="308" type="line"/>
      <point x="123" y="308" type="line"/>
      <point x="123" y="80" type="line"/>
      <point x="406" y="80" type="line"/>
      <point x="406" y="0" type="line"/>
    </contour>
  </outline>
</glyph>
<glyph name="G" format="1">
  <advance width="507"/>
  <unicode hex="0047"/>
  <outline>
    <contour>
      <point x="38" y="192" type="curve"/>
      <point x="38" y="524" type="line"/>
      <point x="41" y="587"/>
      <point x="102" y="706"/>
      <point x="236" y="705" type="curve"/>
      <point x="236" y="625" type="line"/>
      <point x="169" y="624"/>
      <point x="119" y="566"/>
      <point x="119" y="508" type="curve"/>
      <point x="119" y="192" type="line" smooth="yes"/>
      <point x="120" y="105"/>
      <point x="211" y="75"/>
      <point x="236" y="75" type="curve"/>
      <point x="236" y="-5" type="line"/>
      <point x="173" y="-5"/>
      <point x="38" y="48"/>
    </contour>
    <contour>
      <point x="285" y="-5" type="curve"/>
      <point x="285" y="75" type="line"/>
      <point x="319" y="75"/>
      <point x="391" y="124"/>
      <point x="391" y="190" type="curve" smooth="yes"/>
      <point x="391" y="277" type="line"/>
      <point x="285" y="277" type="line"/>
      <point x="285" y="353" type="line"/>
      <point x="473" y="353" type="line"/>
      <point x="473" y="176" type="line" smooth="yes"/>
      <point x="473" y="95"/>
      <point x="370" y="-5"/>
    </contour>
    <contour>
      <point x="285" y="625" type="curve"/>
      <point x="285" y="705" type="line"/>
      <point x="381" y="706"/>
      <point x="473" y="612"/>
      <point x="473" y="516" type="curve"/>
      <point x="393" y="487" type="line"/>
      <point x="393" y="490"/>
      <point x="393" y="509"/>
      <point x="393" y="512" type="curve" smooth="yes"/>
      <point x="388" y="594"/>
      <point x="317" y="624"/>
    </contour>
  </outline>
</glyph>
<glyph name="J" format="1">
  <advance width="484"/>
  <unicode hex="004A"/>
  <outline>
    <contour>
      <point x="15" y="193" type="curve"/>
      <point x="15" y="242" type="line"/>
      <point x="96" y="242" type="line"/>
      <point x="96" y="197" type="line" smooth="yes"/>
      <point x="97" y="111"/>
      <point x="172" y="76"/>
      <point x="204" y="76" type="curve"/>
      <point x="204" y="-5" type="line"/>
      <point x="144" y="-5"/>
      <point x="15" y="54"/>
    </contour>
    <contour>
      <point x="254" y="-5" type="curve"/>
      <point x="254" y="76" type="line"/>
      <point x="281" y="76"/>
      <point x="371" y="110"/>
      <point x="371" y="193" type="curve" smooth="yes"/>
      <point x="371" y="700" type="line"/>
      <point x="452" y="700" type="line"/>
      <point x="452" y="193" type="line"/>
      <point x="452" y="49"/>
      <point x="314" y="-5"/>
    </contour>
  </outline>
</glyph>
<glyph name="L" format="1">
  <advance width="433"/>
  <unicode hex="004C"/>
  <outline>
    <contour>
      <point x="42" y="0" type="line"/>
      <point x="42" y="700" type="line"/>
      <point x="123" y="700" type="line"/>
      <point x="123" y="79" type="line"/>
      <point x="418" y="79" type="line"/>
      <point x="418" y="0" type="line"/>
    </contour>
  </outline>
</glyph>
<glyph name="M" format="1">
  <advance width="696"/>
  <unicode hex="004D"/>
  <outline>
    <contour>
      <point x="42" y="0" type="line"/>
      <point x="42" y="506" type="line"/>
      <point x="51" y="506" type="line"/>
      <point x="123" y="331" type="line"/>
      <point x="123" y="0" type="line"/>
    </contour>
    <contour>
      <point x="42" y="649" type="line"/>
      <point x="42" y="700" type="line"/>
      <point x="109" y="700" type="line"/>
      <point x="343" y="132" type="line"/>
      <point x="514" y="518" type="line"/>
      <point x="524" y="518" type="line"/>
      <point x="524" y="339" type="line"/>
      <point x="374" y="0" type="line"/>
      <point x="312" y="0" type="line"/>
    </contour>
    <contour>
      <point x="573" y="0" type="line"/>
      <point x="573" y="700" type="line"/>
      <point x="654" y="700" type="line"/>
      <point x="654" y="0" type="line"/>
    </contour>
  </outline>
</glyph>
<glyph name="N" format="1">
  <advance width="529"/>
  <unicode hex="004E"/>
  <outline>
    <contour>
      <point x="42" y="0" type="line"/>
      <point x="42" y="553" type="line"/>
      <point x="50" y="553" type="line"/>
      <point x="123" y="435" type="line"/>
      <point x="123" y="0" type="line"/>
    </contour>
    <contour>
      <point x="42" y="648" type="line"/>
      <point x="42" y="700" type="line"/>
      <point x="112" y="700" type="line"/>
      <point x="487" y="100" type="line"/>
      <point x="487" y="0" type="line"/>
      <point x="447" y="0" type="line"/>
    </contour>
    <contour>
      <point x="406" y="316" type="line"/>
      <point x="406" y="700" type="line"/>
      <point x="487" y="700" type="line"/>
      <point x="487" y="197" type="line"/>
      <point x="479" y="197" type="line"/>
    </contour>
  </outline>
</glyph>
<glyph name="O" format="1">
  <advance width="524"/>
  <unicode hex="004F"/>
  <outline>
    <contour>
      <point x="38" y="195" type="curve" smooth="yes"/>
      <point x="38" y="524" type="line" smooth="yes"/>
      <point x="38" y="584"/>
      <point x="103" y="705"/>
      <point x="235" y="705" type="curve"/>
      <point x="235" y="624" type="line"/>
      <point x="158" y="624"/>
      <point x="119" y="544"/>
      <point x="119" y="508" type="curve" smooth="yes"/>
      <point x="119" y="195" type="line" smooth="yes"/>
      <point x="119" y="116"/>
      <point x="200" y="76"/>
      <point x="234" y="76" type="curve"/>
      <point x="234" y="-5" type="line"/>
      <point x="174" y="-5"/>
      <point x="38" y="51"/>
    </contour>
    <contour>
      <point x="289" y="-5" type="curve"/>
      <point x="289" y="76" type="line"/>
      <point x="324" y="76"/>
      <point x="404" y="114"/>
      <point x="405" y="195" type="curve" smooth="yes"/>
      <point x="405" y="508" type="line" smooth="yes"/>
      <point x="405" y="547"/>
      <point x="366" y="624"/>
      <point x="289" y="624" type="curve"/>
      <point x="289" y="705" type="line"/>
      <point x="420" y="705"/>
      <point x="486" y="583"/>
      <point x="486" y="524" type="curve" smooth="yes"/>
      <point x="486" y="195" type="line" smooth="yes"/>
      <point x="486" y="51"/>
      <point x="349" y="-5"/>
    </contour>
  </outline>
</glyph>
<glyph name="P" format="1">
  <advance width="479"/>
  <unicode hex="0050"/>
  <outline>
    <contour>
      <point x="42" y="0" type="line"/>
      <point x="42" y="700" type="line"/>
      <point x="123" y="700" type="line"/>
      <point x="123" y="0" type="line"/>
    </contour>
    <contour>
      <point x="172" y="318" type="curve"/>
      <point x="172" y="397" type="line"/>
      <point x="251" y="397" type="line" smooth="yes"/>
      <point x="322" y="397"/>
      <point x="381" y="418"/>
      <point x="381" y="508" type="curve" smooth="yes"/>
      <point x="381" y="602"/>
      <point x="327" y="621"/>
      <point x="250" y="621" type="curve" smooth="yes"/>
      <point x="172" y="621" type="line"/>
      <point x="172" y="700" type="line"/>
      <point x="368" y="700"/>
      <point x="464" y="673"/>
      <point x="464" y="512" type="curve" smooth="yes"/>
      <point x="464" y="332"/>
      <point x="352" y="318"/>
    </contour>
  </outline>
</glyph>
<glyph name="Q" format="1">
  <advance width="526"/>
  <unicode hex="0051"/>
  <outline>
    <contour>
      <point x="38" y="195" type="curve" smooth="yes"/>
      <point x="38" y="524" type="line" smooth="yes"/>
      <point x="38" y="584"/>
      <point x="103" y="706"/>
      <point x="237" y="705" type="curve"/>
      <point x="237" y="625" type="line"/>
      <point x="158" y="624"/>
      <point x="119" y="549"/>
      <point x="119" y="508" type="curve" smooth="yes"/>
      <point x="119" y="195" type="line" smooth="yes"/>
      <point x="119" y="99"/>
      <point x="221" y="76"/>
      <point x="237" y="76" type="curve"/>
      <point x="237" y="-5" type="line"/>
      <point x="173" y="-5"/>
      <point x="38" y="51"/>
    </contour>
    <contour>
      <point x="287" y="-5" type="line"/>
      <point x="287" y="76" type="line"/>
      <point x="300" y="76"/>
      <point x="404" y="100"/>
      <point x="404" y="195" type="curve" smooth="yes"/>
      <point x="404" y="508" type="line" smooth="yes"/>
      <point x="404" y="549"/>
      <point x="366" y="624"/>
      <point x="287" y="625" type="curve"/>
      <point x="287" y="705" type="line"/>
      <point x="420" y="706"/>
      <point x="486" y="583"/>
      <point x="486" y="524" type="curve" smooth="yes"/>
      <point x="486" y="195" type="line" smooth="yes"/>
      <point x="486" y="98"/>
      <point x="421" y="48"/>
      <point x="368" y="20" type="curve"/>
      <point x="425" y="-63" type="line"/>
      <point x="360" y="-107" type="line"/>
    </contour>
  </outline>
</glyph>
<glyph name="R" format="1">
  <advance width="505"/>
  <unicode hex="0052"/>
  <outline>
    <contour>
      <point x="42" y="0" type="line"/>
      <point x="42" y="700" type="line"/>
      <point x="123" y="700" type="line"/>
      <point x="123" y="0" type="line"/>
    </contour>
    <contour>
      <point x="172" y="312" type="curve"/>
      <point x="172" y="386" type="line"/>
      <point x="235" y="386" type="line" smooth="yes"/>
      <point x="329" y="386"/>
      <point x="387" y="426"/>
      <point x="387" y="493" type="curve" smooth="yes"/>
      <point x="387" y="608"/>
      <point x="293" y="622"/>
      <point x="195" y="622" type="curve" smooth="yes"/>
      <point x="172" y="622" type="line"/>
      <point x="172" y="700" type="line"/>
      <point x="304" y="700"/>
      <point x="463" y="676"/>
      <point x="463" y="496" type="curve" smooth="yes"/>
      <point x="463" y="419"/>
      <point x="427" y="377"/>
      <point x="375" y="352" type="curve"/>
      <point x="414" y="334"/>
      <point x="457" y="284"/>
      <point x="462" y="217" type="curve" smooth="yes"/>
      <point x="479" y="0" type="line"/>
      <point x="404" y="0" type="line"/>
      <point x="389" y="178" type="line" smooth="yes"/>
      <point x="379" y="285"/>
      <point x="352" y="312"/>
    </contour>
  </outline>
</glyph>
<glyph name="S" format="1">
  <advance width="481"/>
  <unicode hex="0053"/>
  <outline>
    <contour>
      <point x="20" y="158" type="curve"/>
      <point x="94" y="184" type="line"/>
      <point x="110" y="85"/>
      <point x="206" y="73"/>
      <point x="206" y="73" type="curve"/>
      <point x="206" y="-3" type="line"/>
      <point x="93" y="-3"/>
      <point x="21" y="103"/>
    </contour>
    <contour>
      <point x="28" y="512" type="curve" smooth="yes"/>
      <point x="28" y="648"/>
      <point x="153" y="700"/>
      <point x="206" y="700" type="curve"/>
      <point x="206" y="623" type="line"/>
      <point x="178" y="621"/>
      <point x="107" y="587"/>
      <point x="107" y="510" type="curve" smooth="yes"/>
      <point x="107" y="411"/>
      <point x="258" y="406"/>
      <point x="333" y="377" type="curve" smooth="yes"/>
      <point x="399" y="351"/>
      <point x="461" y="311"/>
      <point x="461" y="205" type="curve" smooth="yes"/>
      <point x="461" y="98"/>
      <point x="367" y="-3"/>
      <point x="255" y="-3" type="curve"/>
      <point x="255" y="73" type="line"/>
      <point x="296" y="74"/>
      <point x="380" y="121"/>
      <point x="380" y="207" type="curve" smooth="yes"/>
      <point x="380" y="319"/>
      <point x="213" y="319"/>
      <point x="151" y="345" type="curve" smooth="yes"/>
      <point x="78" y="375"/>
      <point x="28" y="414"/>
    </contour>
    <contour>
      <point x="255" y="623" type="curve"/>
      <point x="255" y="700" type="line"/>
      <point x="363" y="700"/>
      <point x="426" y="593"/>
      <point x="433" y="553" type="curve"/>
      <point x="357" y="528" type="line"/>
      <point x="336" y="617"/>
      <point x="255" y="623"/>
    </contour>
  </outline>
</glyph>
<glyph name="U" format="1">
  <advance width="512"/>
  <unicode hex="0055"/>
  <outline>
    <contour>
      <point x="32" y="193" type="curve" smooth="yes"/>
      <point x="32" y="700" type="line"/>
      <point x="113" y="700" type="line"/>
      <point x="113" y="193" type="line"/>
      <point x="114" y="109"/>
      <point x="205" y="76"/>
      <point x="231" y="76" type="curve"/>
      <point x="231" y="-5" type="line"/>
      <point x="171" y="-5"/>
      <point x="32" y="49"/>
    </contour>
    <contour>
      <point x="281" y="-5" type="curve"/>
      <point x="281" y="76" type="line"/>
      <point x="308" y="76"/>
      <point x="398" y="106"/>
      <point x="398" y="193" type="curve"/>
      <point x="398" y="700" type="line"/>
      <point x="479" y="700" type="line"/>
      <point x="479" y="193" type="line" smooth="yes"/>
      <point x="479" y="48"/>
      <point x="342" y="-5"/>
    </contour>
  </outline>
</glyph>
<glyph name="V" format="1">
  <advance width="472"/>
  <unicode hex="0056"/>
  <outline>
    <contour>
      <point x="8" y="700" type="line"/>
      <point x="90" y="700" type="line"/>
      <point x="270" y="85" type="line"/>
      <point x="240" y="0" type="line"/>
      <point x="211" y="0" type="line"/>
    </contour>
    <contour>
      <point x="251" y="308" type="line"/>
      <point x="382" y="700" type="line"/>
      <point x="464" y="700" type="line"/>
      <point x="424" y="569"/>
      <point x="338" y="327"/>
      <point x="296" y="187" type="curve"/>
      <point x="286" y="187" type="line"/>
    </contour>
  </outline>
</glyph>
<glyph name="X" format="1">
  <advance width="442"/>
  <unicode hex="0058"/>
  <outline>
    <contour>
      <point x="15" y="0" type="line"/>
      <point x="181" y="362" type="line"/>
      <point x="27" y="700" type="line"/>
      <point x="106" y="700" type="line"/>
      <point x="221" y="460" type="line"/>
      <point x="336" y="700" type="line"/>
      <point x="415" y="700" type="line"/>
      <point x="261" y="362" type="line"/>
      <point x="427" y="0" type="line"/>
      <point x="345" y="0" type="line"/>
      <point x="221" y="260" type="line"/>
      <point x="97" y="0" type="line"/>
    </contour>
  </outline>
</glyph>
<glyph name="Z" format="1">
  <advance width="411"/>
  <unicode hex="005A"/>
  <outline>
    <contour>
      <point x="30" y="0" type="line"/>
      <point x="30" y="78" type="line"/>
      <point x="307" y="620" type="line"/>
      <point x="30" y="620" type="line"/>
      <point x="30" y="700" type="line"/>
      <point x="396" y="700" type="line"/>
      <point x="396" y="623" type="line"/>
      <point x="119" y="81" type="line"/>
      <point x="397" y="81" type="line"/>
      <point x="396" y="0" type="line"/>
    </contour>
  </outline>
</glyph>
<glyph name="bracketleft" format="1">
  <advance width="258"/>
  <unicode hex="005B"/>
  <outline>
    <contour>
      <point x="77" y="-36" type="line"/>
      <point x="77" y="739" type="line"/>
      <point x="203" y="739" type="line"/>
      <point x="203" y="671" type="line"/>
      <point x="155" y="671" type="line"/>
      <point x="152" y="32" type="line"/>
      <point x="203" y="32" type="line"/>
      <point x="203" y="-36" type="line"/>
    </contour>
  </outline>
</glyph>
<glyph name="bracketright" format="1">
  <advance width="255"/>
  <unicode hex="005D"/>
  <outline>
    <contour>
      <point x="55" y="-36" type="line"/>
      <point x="55" y="32" type="line"/>
      <point x="106" y="32" type="line"/>
      <point x="103" y="671" type="line"/>
      <point x="55" y="671" type="line"/>
      <point x="55" y="739" type="line"/>
      <point x="181" y="739" type="line"/>
      <point x="181" y="-36" type="line"/>
    </contour>
  </outline>
</glyph>
<glyph name="asciicircum" format="1">
  <advance width="471"/>
  <unicode hex="005E"/>
  <outline>
    <contour>
      <point x="60" y="460" type="line"/>
      <point x="209" y="756" type="line"/>
      <point x="262" y="756" type="line"/>
      <point x="411" y="460" type="line"/>
      <point x="336" y="460" type="line"/>
      <point x="234" y="662" type="line"/>
      <point x="134" y="460" type="line"/>
    </contour>
  </outline>
</glyph>
<glyph name="grave" format="1">
  <advance width="295"/>
  <unicode hex="0060"/>
  <outline>
    <contour>
      <point x="42" y="757" type="line"/>
      <point x="118" y="757" type="line"/>
      <point x="155" y="605" type="line"/>
      <point x="100" y="605" type="line"/>
    </contour>
  </outline>
</glyph>
<glyph name="b" format="1">
  <advance width="445"/>
  <unicode hex="0062"/>
  <outline>
    <contour>
      <point x="42" y="-4" type="line"/>
      <point x="42" y="701" type="line"/>
      <point x="122" y="701" type="line"/>
      <point x="122" y="-4" type="line"/>
    </contour>
    <contour>
      <point x="170" y="-4" type="line"/>
      <point x="170" y="72" type="line"/>
      <point x="255" y="72" type="line" smooth="yes"/>
      <point x="296" y="72"/>
      <point x="338" y="111"/>
      <point x="338" y="145" type="curve"/>
      <point x="338" y="385" type="line"/>
      <point x="338" y="417"/>
      <point x="300" y="457"/>
      <point x="255" y="458" type="curve" smooth="yes"/>
      <point x="170" y="458" type="line"/>
      <point x="170" y="533" type="line"/>
      <point x="255" y="533" type="line" smooth="yes"/>
      <point x="350" y="533"/>
      <point x="414" y="450"/>
      <point x="415" y="389" type="curve"/>
      <point x="415" y="143" type="line" smooth="yes"/>
      <point x="415" y="94"/>
      <point x="363" y="-4"/>
      <point x="254" y="-4" type="curve" smooth="yes"/>
    </contour>
  </outline>
</glyph>
<glyph name="c" format="1">
  <advance width="435"/>
  <unicode hex="0063"/>
  <outline>
    <contour>
      <point x="38" y="147" type="curve" smooth="yes"/>
      <point x="38" y="162"/>
      <point x="38" y="336"/>
      <point x="38" y="390" type="curve" smooth="yes"/>
      <point x="38" y="446"/>
      <point x="91" y="537"/>
      <point x="205" y="537" type="curve"/>
      <point x="205" y="462" type="line"/>
      <point x="149" y="462"/>
      <point x="116" y="418"/>
      <point x="116" y="387" type="curve" smooth="yes"/>
      <point x="116" y="147" type="line" smooth="yes"/>
      <point x="116" y="114"/>
      <point x="150" y="75"/>
      <point x="205" y="75" type="curve"/>
      <point x="205" y="0" type="line"/>
      <point x="80" y="0"/>
      <point x="38" y="98"/>
    </contour>
    <contour>
      <point x="250" y="461" type="curve"/>
      <point x="250" y="537" type="line"/>
      <point x="334" y="537"/>
      <point x="403" y="469"/>
      <point x="403" y="387" type="curve"/>
      <point x="330" y="360" type="line"/>
      <point x="330" y="363"/>
      <point x="330" y="380"/>
      <point x="330" y="383" type="curve" smooth="yes"/>
      <point x="325" y="438"/>
      <point x="286" y="461"/>
    </contour>
    <contour>
      <point x="249" y="-1" type="curve"/>
      <point x="249" y="74" type="line"/>
      <point x="297" y="74"/>
      <point x="337" y="105"/>
      <point x="341" y="156" type="curve" smooth="yes"/>
      <point x="342" y="159"/>
      <point x="342" y="175"/>
      <point x="342" y="178" type="curve"/>
      <point x="415" y="150" type="line"/>
      <point x="415" y="68"/>
      <point x="332" y="-2"/>
    </contour>
  </outline>
</glyph>
<glyph name="d" format="1">
  <advance width="443"/>
  <unicode hex="0064"/>
  <outline>
    <contour>
      <point x="30" y="143" type="curve" smooth="yes"/>
      <point x="30" y="389" type="line"/>
      <point x="30" y="450"/>
      <point x="95" y="533"/>
      <point x="189" y="533" type="curve" smooth="yes"/>
      <point x="272" y="533" type="line"/>
      <point x="272" y="458" type="line"/>
      <point x="189" y="458" type="line" smooth="yes"/>
      <point x="144" y="457"/>
      <point x="107" y="417"/>
      <point x="107" y="385" type="curve"/>
      <point x="107" y="145" type="line"/>
      <point x="107" y="111"/>
      <point x="149" y="72"/>
      <point x="190" y="72" type="curve" smooth="yes"/>
      <point x="272" y="72" type="line"/>
      <point x="272" y="-4" type="line"/>
      <point x="191" y="-4" type="line" smooth="yes"/>
      <point x="82" y="-4"/>
      <point x="30" y="94"/>
    </contour>
    <contour>
      <point x="320" y="-4" type="line"/>
      <point x="320" y="702" type="line"/>
      <point x="401" y="702" type="line"/>
      <point x="401" y="-4" type="line"/>
    </contour>
  </outline>
</glyph>
<glyph name="e" format="1">
  <advance width="463"/>
  <unicode hex="0065"/>
  <outline>
    <contour>
      <point x="38" y="147" type="curve" smooth="yes"/>
      <point x="38" y="392" type="line"/>
      <point x="39" y="442"/>
      <point x="96" y="537"/>
      <point x="207" y="537" type="curve"/>
      <point x="207" y="463" type="line"/>
      <point x="154" y="463"/>
      <point x="117" y="414"/>
      <point x="117" y="384" type="curve" smooth="yes"/>
      <point x="117" y="314" type="line"/>
      <point x="349" y="314" type="line"/>
      <point x="349" y="384" type="line" smooth="yes"/>
      <point x="349" y="432"/>
      <point x="301" y="464"/>
      <point x="255" y="464" type="curve"/>
      <point x="255" y="537" type="line"/>
      <point x="334" y="537"/>
      <point x="424" y="475"/>
      <point x="424" y="393" type="curve" smooth="yes"/>
      <point x="424" y="240" type="line"/>
      <point x="117" y="240" type="line"/>
      <point x="117" y="147" type="line" smooth="yes"/>
      <point x="117" y="119"/>
      <point x="154" y="73"/>
      <point x="208" y="73" type="curve"/>
      <point x="208" y="0" type="line"/>
      <point x="96" y="0"/>
      <point x="38" y="97"/>
    </contour>
    <contour>
      <point x="255" y="0" type="curve"/>
      <point x="255" y="74" type="line"/>
      <point x="315" y="74"/>
      <point x="349" y="117"/>
      <point x="358" y="150" type="curve"/>
      <point x="425" y="125" type="line"/>
      <point x="408" y="61"/>
      <point x="347" y="0"/>
    </contour>
  </outline>
</glyph>
<glyph name="f" format="1">
  <advance width="254"/>
  <unicode hex="0066"/>
  <outline>
    <contour>
      <point x="15" y="419" type="line"/>
      <point x="15" y="494" type="line"/>
      <point x="81" y="494" type="line"/>
      <point x="81" y="555" type="line" smooth="yes"/>
      <point x="81" y="601"/>
      <point x="111" y="704"/>
      <point x="220" y="704" type="curve" smooth="yes"/>
      <point x="254" y="704" type="line"/>
      <point x="237" y="629" type="line"/>
      <point x="219" y="629" type="line" smooth="yes"/>
      <point x="168" y="627"/>
      <point x="159" y="584"/>
      <point x="159" y="555" type="curve" smooth="yes"/>
      <point x="159" y="493" type="line"/>
      <point x="226" y="494" type="line"/>
      <point x="226" y="419" type="line"/>
      <point x="159" y="419" type="line"/>
      <point x="159" y="-4" type="line"/>
      <point x="81" y="-4" type="line"/>
      <point x="81" y="419" type="line"/>
    </contour>
  </outline>
</glyph>
<glyph name="g" format="1">
  <advance width="434"/>
  <unicode hex="0067"/>
  <outline>
    <contour>
      <point x="20" y="-185" type="line"/>
      <point x="39" y="-112" type="line"/>
      <point x="226" y="-112" type="line"/>
      <point x="289" y="-110"/>
      <point x="322" y="-64"/>
      <point x="322" y="-38" type="curve" smooth="yes"/>
      <point x="322" y="37" type="line"/>
      <point x="310" y="27"/>
      <point x="279" y="3"/>
      <point x="235" y="3" type="curve"/>
      <point x="235" y="74" type="line"/>
      <point x="280" y="74"/>
      <point x="322" y="114"/>
      <point x="322" y="150" type="curve" smooth="yes"/>
      <point x="322" y="393" type="line" smooth="yes"/>
      <point x="322" y="437"/>
      <point x="273" y="467"/>
      <point x="235" y="467" type="curve"/>
      <point x="235" y="541" type="line"/>
      <point x="272" y="541"/>
      <point x="308" y="521"/>
      <point x="322" y="509" type="curve"/>
      <point x="322" y="541" type="line"/>
      <point x="398" y="541" type="line"/>
      <point x="398" y="-38" type="line" smooth="yes"/>
      <point x="398" y="-83"/>
      <point x="346" y="-184"/>
      <point x="239" y="-185" type="curve"/>
    </contour>
    <contour>
      <point x="29" y="148" type="curve" smooth="yes"/>
      <point x="29" y="397" type="line"/>
      <point x="30" y="445"/>
      <point x="81" y="541"/>
      <point x="191" y="541" type="curve"/>
      <point x="191" y="467" type="line"/>
      <point x="138" y="467"/>
      <point x="105" y="420"/>
      <point x="105" y="394" type="curve" smooth="yes"/>
      <point x="105" y="149" type="line" smooth="yes"/>
      <point x="105" y="122"/>
      <point x="137" y="76"/>
      <point x="191" y="76" type="curve"/>
      <point x="191" y="3" type="line"/>
      <point x="79" y="3"/>
      <point x="29" y="102"/>
    </contour>
  </outline>
</glyph>
<glyph name="h" format="1">
  <advance width="452"/>
  <unicode hex="0068"/>
  <outline>
    <contour>
      <point x="42" y="-3" type="line"/>
      <point x="42" y="702" type="line"/>
      <point x="116" y="702" type="line"/>
      <point x="116" y="492" type="line"/>
      <point x="132" y="508"/>
      <point x="164" y="528"/>
      <point x="211" y="528" type="curve"/>
      <point x="211" y="455" type="line"/>
      <point x="162" y="455"/>
      <point x="117" y="411"/>
      <point x="117" y="376" type="curve" smooth="yes"/>
      <point x="117" y="-3" type="line"/>
    </contour>
    <contour>
      <point x="258" y="455" type="curve"/>
      <point x="258" y="528" type="line"/>
      <point x="361" y="528"/>
      <point x="422" y="457"/>
      <point x="422" y="386" type="curve" smooth="yes"/>
      <point x="422" y="-3" type="line"/>
      <point x="347" y="-3" type="line"/>
      <point x="347" y="376" type="line" smooth="yes"/>
      <point x="347" y="409"/>
      <point x="322" y="455"/>
    </contour>
  </outline>
</glyph>
<glyph name="i" format="1">
  <advance width="182"/>
  <unicode hex="0069"/>
  <outline>
    <contour>
      <point x="45" y="611" type="curve" smooth="yes"/>
      <point x="45" y="636"/>
      <point x="67" y="656"/>
      <point x="92" y="656" type="curve" smooth="yes"/>
      <point x="117" y="656"/>
      <point x="137" y="636"/>
      <point x="137" y="611" type="curve" smooth="yes"/>
      <point x="137" y="586"/>
      <point x="117" y="566"/>
      <point x="92" y="566" type="curve" smooth="yes"/>
      <point x="67" y="566"/>
      <point x="45" y="586"/>
    </contour>
    <contour>
      <point x="53" y="-4" type="line"/>
      <point x="53" y="526" type="line"/>
      <point x="131" y="526" type="line"/>
      <point x="131" y="-4" type="line"/>
    </contour>
  </outline>
</glyph>
<glyph name="j" format="1">
  <advance width="218"/>
  <unicode hex="006A"/>
  <outline>
    <contour>
      <point x="-42" y="-189" type="line"/>
      <point x="-25" y="-113" type="line"/>
      <point x="-6" y="-113" type="line"/>
      <point x="39" y="-111"/>
      <point x="72" y="-68"/>
      <point x="72" y="-38" type="curve" smooth="yes"/>
      <point x="72" y="525" type="line"/>
      <point x="151" y="525" type="line"/>
      <point x="151" y="-38" type="line" smooth="yes"/>
      <point x="151" y="-87"/>
      <point x="100" y="-189"/>
      <point x="-6" y="-189" type="curve" smooth="yes"/>
    </contour>
    <contour>
      <point x="66" y="615" type="curve" smooth="yes"/>
      <point x="66" y="640"/>
      <point x="87" y="661"/>
      <point x="112" y="661" type="curve" smooth="yes"/>
      <point x="137" y="661"/>
      <point x="158" y="640"/>
      <point x="158" y="615" type="curve" smooth="yes"/>
      <point x="158" y="590"/>
      <point x="137" y="570"/>
      <point x="112" y="570" type="curve" smooth="yes"/>
      <point x="87" y="570"/>
      <point x="66" y="590"/>
    </contour>
  </outline>
</glyph>
<glyph name="k" format="1">
  <advance width="476"/>
  <unicode hex="006B"/>
  <outline>
    <contour>
      <point x="42" y="-4" type="line"/>
      <point x="42" y="702" type="line"/>
      <point x="122" y="702" type="line"/>
      <point x="122" y="-4" type="line"/>
    </contour>
    <contour>
      <point x="148" y="264" type="line"/>
      <point x="361" y="531" type="line"/>
      <point x="456" y="531" type="line"/>
      <point x="242" y="264" type="line"/>
      <point x="456" y="-4" type="line"/>
      <point x="361" y="-4" type="line"/>
    </contour>
  </outline>
</glyph>
<glyph name="l" format="1">
  <advance width="167"/>
  <unicode hex="006C"/>
  <outline>
    <contour>
      <point x="42" y="-4" type="line"/>
      <point x="42" y="702" type="line"/>
      <point x="125" y="702" type="line"/>
      <point x="125" y="-4" type="line"/>
    </contour>
  </outline>
</glyph>
<glyph name="m" format="1">
  <advance width="725"/>
  <unicode hex="006D"/>
  <outline>
    <contour>
      <point x="38" y="0" type="line"/>
      <point x="38" y="392" type="line" smooth="yes"/>
      <point x="38" y="446"/>
      <point x="81" y="540"/>
      <point x="197" y="540" type="curve"/>
      <point x="197" y="463" type="line"/>
      <point x="144" y="463"/>
      <point x="117" y="424"/>
      <point x="117" y="383" type="curve" smooth="yes"/>
      <point x="117" y="0" type="line"/>
    </contour>
    <contour>
      <point x="242" y="463" type="curve"/>
      <point x="242" y="540" type="line"/>
      <point x="305" y="540"/>
      <point x="336" y="517"/>
      <point x="363" y="485" type="curve"/>
      <point x="389" y="518"/>
      <point x="420" y="540"/>
      <point x="483" y="540" type="curve"/>
      <point x="483" y="463" type="line"/>
      <point x="431" y="463"/>
      <point x="402" y="426"/>
      <point x="402" y="383" type="curve"/>
      <point x="402" y="0" type="line"/>
      <point x="323" y="0" type="line"/>
      <point x="323" y="383" type="line" smooth="yes"/>
      <point x="323" y="427"/>
      <point x="294" y="463"/>
    </contour>
    <contour>
      <point x="528" y="463" type="curve"/>
      <point x="528" y="540" type="line"/>
      <point x="642" y="540"/>
      <point x="687" y="443"/>
      <point x="687" y="392" type="curve" smooth="yes"/>
      <point x="687" y="0" type="line"/>
      <point x="608" y="0" type="line"/>
      <point x="608" y="383" type="line" smooth="yes"/>
      <point x="608" y="428"/>
      <point x="579" y="463"/>
    </contour>
  </outline>
</glyph>
<glyph name="n" format="1">
  <advance width="465"/>
  <unicode hex="006E"/>
  <outline>
    <contour>
      <point x="38" y="0" type="line"/>
      <point x="38" y="392" type="line" smooth="yes"/>
      <point x="38" y="446"/>
      <point x="96" y="540"/>
      <point x="211" y="540" type="curve"/>
      <point x="211" y="462" type="line"/>
      <point x="159" y="462"/>
      <point x="117" y="422"/>
      <point x="117" y="383" type="curve" smooth="yes"/>
      <point x="117" y="0" type="line"/>
    </contour>
    <contour>
      <point x="254" y="462" type="curve"/>
      <point x="254" y="540" type="line"/>
      <point x="369" y="540"/>
      <point x="427" y="442"/>
      <point x="427" y="392" type="curve" smooth="yes"/>
      <point x="427" y="0" type="line"/>
      <point x="348" y="0" type="line"/>
      <point x="348" y="383" type="line" smooth="yes"/>
      <point x="348" y="410"/>
      <point x="317" y="462"/>
    </contour>
  </outline>
</glyph>
<glyph name="o" format="1">
  <advance width="455"/>
  <unicode hex="006F"/>
  <outline>
    <contour>
      <point x="38" y="147" type="curve" smooth="yes"/>
      <point x="38" y="391" type="line" smooth="yes"/>
      <point x="38" y="442"/>
      <point x="94" y="537"/>
      <point x="209" y="537" type="curve"/>
      <point x="209" y="462" type="line"/>
      <point x="145" y="462"/>
      <point x="116" y="412"/>
      <point x="116" y="378" type="curve" smooth="yes"/>
      <point x="116" y="160" type="line" smooth="yes"/>
      <point x="116" y="125"/>
      <point x="151" y="75"/>
      <point x="209" y="75" type="curve"/>
      <point x="209" y="-1" type="line"/>
      <point x="92" y="-1"/>
      <point x="38" y="97"/>
    </contour>
    <contour>
      <point x="251" y="-1" type="curve"/>
      <point x="251" y="75" type="line"/>
      <point x="311" y="75"/>
      <point x="341" y="126"/>
      <point x="341" y="158" type="curve" smooth="yes"/>
      <point x="341" y="378" type="line" smooth="yes"/>
      <point x="341" y="414"/>
      <point x="311" y="462"/>
      <point x="251" y="462" type="curve"/>
      <point x="251" y="537" type="line"/>
      <point x="363" y="537"/>
      <point x="417" y="442"/>
      <point x="417" y="391" type="curve" smooth="yes"/>
      <point x="417" y="147" type="line" smooth="yes"/>
      <point x="417" y="96"/>
      <point x="364" y="-1"/>
    </contour>
  </outline>
</glyph>
<glyph name="p" format="1">
  <advance width="459"/>
  <unicode hex="0070"/>
  <outline>
    <contour>
      <point x="42" y="-186" type="line"/>
      <point x="42" y="541" type="line"/>
      <point x="122" y="541" type="line"/>
      <point x="122" y="-186" type="line"/>
    </contour>
    <contour>
      <point x="167" y="465" type="line"/>
      <point x="167" y="541" type="line"/>
      <point x="245" y="541" type="line" smooth="yes"/>
      <point x="363" y="541"/>
      <point x="423" y="450"/>
      <point x="423" y="394" type="curve" smooth="yes"/>
      <point x="423" y="148" type="line"/>
      <point x="423" y="93"/>
      <point x="369" y="4"/>
      <point x="252" y="4" type="curve" smooth="yes"/>
      <point x="174" y="4" type="line"/>
      <point x="174" y="79" type="line"/>
      <point x="254" y="79" type="line" smooth="yes"/>
      <point x="316" y="80"/>
      <point x="345" y="118"/>
      <point x="345" y="153" type="curve" smooth="yes"/>
      <point x="345" y="391" type="line"/>
      <point x="345" y="421"/>
      <point x="309" y="465"/>
      <point x="245" y="465" type="curve" smooth="yes"/>
    </contour>
  </outline>
</glyph>
<glyph name="q" format="1">
  <advance width="454"/>
  <unicode hex="0071"/>
  <outline>
    <contour>
      <point x="38" y="148" type="curve"/>
      <point x="38" y="394" type="line" smooth="yes"/>
      <point x="38" y="445"/>
      <point x="88" y="541"/>
      <point x="206" y="541" type="curve" smooth="yes"/>
      <point x="284" y="541" type="line"/>
      <point x="284" y="465" type="line"/>
      <point x="206" y="465" type="line" smooth="yes"/>
      <point x="141" y="465"/>
      <point x="116" y="417"/>
      <point x="116" y="391" type="curve"/>
      <point x="116" y="153" type="line" smooth="yes"/>
      <point x="116" y="122"/>
      <point x="144" y="80"/>
      <point x="207" y="79" type="curve" smooth="yes"/>
      <point x="282" y="79" type="line"/>
      <point x="282" y="4" type="line"/>
      <point x="209" y="4" type="line" smooth="yes"/>
      <point x="92" y="4"/>
      <point x="38" y="96"/>
    </contour>
    <contour>
      <point x="332" y="-186" type="line"/>
      <point x="332" y="541" type="line"/>
      <point x="411" y="541" type="line"/>
      <point x="412" y="-186" type="line"/>
    </contour>
  </outline>
</glyph>
<glyph name="r" format="1">
  <advance width="280"/>
  <unicode hex="0072"/>
  <outline>
    <contour>
      <point x="42" y="0" type="line"/>
      <point x="42" y="537" type="line"/>
      <point x="121" y="537" type="line"/>
      <point x="121" y="459" type="line"/>
      <point x="139" y="491"/>
      <point x="187" y="537"/>
      <point x="254" y="537" type="curve" smooth="yes"/>
      <point x="270" y="537" type="line"/>
      <point x="251" y="460" type="line"/>
      <point x="185" y="460"/>
      <point x="121" y="379"/>
      <point x="121" y="304" type="curve" smooth="yes"/>
      <point x="121" y="0" type="line"/>
    </contour>
  </outline>
</glyph>
<glyph name="s" format="1">
  <advance width="431"/>
  <unicode hex="0073"/>
  <outline>
    <contour>
      <point x="20" y="142" type="curve"/>
      <point x="94" y="155" type="line"/>
      <point x="94" y="105"/>
      <point x="148" y="70"/>
      <point x="189" y="69" type="curve"/>
      <point x="189" y="-5" type="line"/>
      <point x="80" y="-5"/>
      <point x="20" y="74"/>
    </contour>
    <contour>
      <point x="25" y="383" type="curve" smooth="yes"/>
      <point x="25" y="493"/>
      <point x="125" y="538"/>
      <point x="187" y="538" type="curve"/>
      <point x="187" y="465" type="line"/>
      <point x="141" y="465"/>
      <point x="99" y="429"/>
      <point x="99" y="383" type="curve" smooth="yes"/>
      <point x="99" y="338"/>
      <point x="153" y="325"/>
      <point x="298" y="291" type="curve" smooth="yes"/>
      <point x="341" y="281"/>
      <point x="411" y="248"/>
      <point x="411" y="163" type="curve" smooth="yes"/>
      <point x="411" y="59"/>
      <point x="331" y="-5"/>
      <point x="232" y="-5" type="curve"/>
      <point x="232" y="69" type="line"/>
      <point x="271" y="69"/>
      <point x="335" y="97"/>
      <point x="335" y="159" type="curve" smooth="yes"/>
      <point x="335" y="221"/>
      <point x="214" y="232"/>
      <point x="122" y="259" type="curve" smooth="yes"/>
      <point x="81" y="274"/>
      <point x="25" y="300"/>
    </contour>
    <contour>
      <point x="230" y="464" type="curve"/>
      <point x="231" y="538" type="line"/>
      <point x="332" y="538"/>
      <point x="402" y="459"/>
      <point x="402" y="389" type="curve"/>
      <point x="328" y="377" type="line"/>
      <point x="328" y="441"/>
      <point x="259" y="464"/>
    </contour>
  </outline>
</glyph>
<glyph name="t" format="1">
  <advance width="274"/>
  <unicode hex="0074"/>
  <outline>
    <contour>
      <point x="15" y="434" type="line"/>
      <point x="15" y="510" type="line"/>
      <point x="81" y="510" type="line"/>
      <point x="81" y="702" type="line"/>
      <point x="159" y="702" type="line"/>
      <point x="159" y="510" type="line"/>
      <point x="223" y="510" type="line"/>
      <point x="223" y="434" type="line"/>
      <point x="159" y="434" type="line"/>
      <point x="159" y="162" type="line" smooth="yes"/>
      <point x="159" y="111"/>
      <point x="176" y="75"/>
      <point x="244" y="75" type="curve" smooth="yes"/>
      <point x="257" y="75" type="line"/>
      <point x="274" y="-4" type="line"/>
      <point x="241" y="-4" type="line" smooth="yes"/>
      <point x="114" y="-3"/>
      <point x="81" y="65"/>
      <point x="81" y="171" type="curve" smooth="yes"/>
      <point x="81" y="434" type="line"/>
    </contour>
  </outline>
</glyph>
<glyph name="u" format="1">
  <advance width="465"/>
  <unicode hex="0075"/>
  <outline>
    <contour>
      <point x="38" y="143" type="curve" smooth="yes"/>
      <point x="38" y="535" type="line"/>
      <point x="117" y="535" type="line"/>
      <point x="117" y="152" type="line" smooth="yes"/>
      <point x="117" y="117"/>
      <point x="155" y="73"/>
      <point x="211" y="73" type="curve"/>
      <point x="211" y="-5" type="line"/>
      <point x="94" y="-5"/>
      <point x="38" y="90"/>
    </contour>
    <contour>
      <point x="254" y="-5" type="curve"/>
      <point x="254" y="73" type="line"/>
      <point x="312" y="73"/>
      <point x="348" y="117"/>
      <point x="348" y="152" type="curve" smooth="yes"/>
      <point x="348" y="535" type="line"/>
      <point x="427" y="535" type="line"/>
      <point x="427" y="143" type="line" smooth="yes"/>
      <point x="427" y="93"/>
      <point x="370" y="-5"/>
    </contour>
  </outline>
</glyph>
<glyph name="v" format="1">
  <advance width="416"/>
  <unicode hex="0076"/>
  <outline>
    <contour>
      <point x="8" y="536" type="line"/>
      <point x="95" y="537" type="line"/>
      <point x="254" y="72" type="line"/>
      <point x="228" y="0" type="line"/>
      <point x="185" y="0" type="line"/>
    </contour>
    <contour>
      <point x="226" y="260" type="line"/>
      <point x="322" y="537" type="line"/>
      <point x="408" y="536" type="line"/>
      <point x="277" y="148" type="line"/>
      <point x="265" y="148" type="line"/>
    </contour>
  </outline>
</glyph>
<glyph name="x" format="1">
  <advance width="394"/>
  <unicode hex="0078"/>
  <outline>
    <contour>
      <point x="8" y="0" type="line"/>
      <point x="152" y="273" type="line"/>
      <point x="13" y="537" type="line"/>
      <point x="92" y="537" type="line"/>
      <point x="197" y="353" type="line"/>
      <point x="302" y="536" type="line"/>
      <point x="382" y="536" type="line"/>
      <point x="243" y="273" type="line"/>
      <point x="386" y="0" type="line"/>
      <point x="307" y="0" type="line"/>
      <point x="197" y="194" type="line"/>
      <point x="87" y="0" type="line"/>
    </contour>
  </outline>
</glyph>
<glyph name="y" format="1">
  <advance width="406"/>
  <unicode hex="0079"/>
  <outline>
    <contour>
      <point x="4" y="539" type="line"/>
      <point x="86" y="540" type="line"/>
      <point x="241" y="119" type="line"/>
      <point x="140" y="-186" type="line"/>
      <point x="60" y="-186" type="line"/>
      <point x="157" y="120" type="line"/>
    </contour>
    <contour>
      <point x="224" y="297" type="line"/>
      <point x="320" y="540" type="line"/>
      <point x="402" y="539" type="line"/>
      <point x="266" y="190" type="line"/>
      <point x="258" y="190" type="line"/>
    </contour>
  </outline>
</glyph>
<glyph name="z" format="1">
  <advance width="368"/>
  <unicode hex="007A"/>
  <outline>
    <contour>
      <point x="30" y="0" type="line"/>
      <point x="31" y="74" type="line"/>
      <point x="251" y="459" type="line"/>
      <point x="30" y="459" type="line"/>
      <point x="30" y="535" type="line"/>
      <point x="338" y="535" type="line"/>
      <point x="338" y="465" type="line"/>
      <point x="119" y="76" type="line"/>
      <point x="338" y="75" type="line"/>
      <point x="338" y="0" type="line"/>
    </contour>
  </outline>
</glyph>
<glyph name="braceleft" format="1">
  <advance width="249"/>
  <unicode hex="007B"/>
  <outline>
    <contour>
      <point x="15" y="348" type="curve"/>
      <point x="51" y="363"/>
      <point x="76" y="370"/>
      <point x="77" y="408" type="curve" smooth="yes"/>
      <point x="77" y="535" type="line" smooth="yes"/>
      <point x="77" y="710"/>
      <point x="135" y="735"/>
      <point x="229" y="735" type="curve"/>
      <point x="229" y="674" type="line"/>
      <point x="159" y="674"/>
      <point x="153" y="646"/>
      <point x="153" y="469" type="curve"/>
      <point x="153" y="383" type="line" smooth="yes"/>
      <point x="153" y="366"/>
      <point x="141" y="354"/>
      <point x="117" y="348" type="curve"/>
      <point x="142" y="340"/>
      <point x="153" y="325"/>
      <point x="153" y="304" type="curve" smooth="yes"/>
      <point x="153" y="207" type="line"/>
      <point x="153" y="41"/>
      <point x="180" y="23"/>
      <point x="229" y="23" type="curve"/>
      <point x="229" y="-38" type="line"/>
      <point x="138" y="-38"/>
      <point x="77" y="-14"/>
      <point x="77" y="160" type="curve" smooth="yes"/>
      <point x="77" y="290" type="line" smooth="yes"/>
      <point x="77" y="322"/>
      <point x="51" y="329"/>
    </contour>
  </outline>
</glyph>
<glyph name="braceright" format="1">
  <advance width="249"/>
  <unicode hex="007D"/>
  <outline>
    <contour>
      <point x="20" y="-38" type="curve"/>
      <point x="20" y="23" type="line"/>
      <point x="69" y="23"/>
      <point x="96" y="42"/>
      <point x="96" y="207" type="curve"/>
      <point x="96" y="304" type="line" smooth="yes"/>
      <point x="96" y="325"/>
      <point x="107" y="340"/>
      <point x="132" y="348" type="curve"/>
      <point x="108" y="354"/>
      <point x="96" y="366"/>
      <point x="96" y="383" type="curve" smooth="yes"/>
      <point x="96" y="469" type="line"/>
      <point x="96" y="646"/>
      <point x="90" y="674"/>
      <point x="20" y="674" type="curve"/>
      <point x="20" y="735" type="line"/>
      <point x="114" y="735"/>
      <point x="172" y="710"/>
      <point x="172" y="535" type="curve" smooth="yes"/>
      <point x="172" y="408" type="line" smooth="yes"/>
      <point x="173" y="370"/>
      <point x="198" y="363"/>
      <point x="234" y="348" type="curve"/>
      <point x="198" y="329"/>
      <point x="172" y="322"/>
      <point x="172" y="290" type="curve" smooth="yes"/>
      <point x="172" y="160" type="line" smooth="yes"/>
      <point x="172" y="-10"/>
      <point x="111" y="-38"/>
    </contour>
  </outline>
</glyph>
<glyph name="asciitilde" format="1">
  <advance width="628"/>
  <unicode hex="007E"/>
  <outline>
    <contour>
      <point x="80" y="300" type="curve"/>
      <point x="80" y="377" type="line"/>
      <point x="125" y="403"/>
      <point x="162" y="412"/>
      <point x="193" y="412" type="curve" smooth="yes"/>
      <point x="280" y="412"/>
      <point x="329" y="339"/>
      <point x="417" y="339" type="curve" smooth="yes"/>
      <point x="452" y="339"/>
      <point x="494" y="351"/>
      <point x="548" y="384" type="curve"/>
      <point x="548" y="309" type="line"/>
      <point x="492" y="275"/>
      <point x="448" y="263"/>
      <point x="411" y="263" type="curve" smooth="yes"/>
      <point x="319" y="263"/>
      <point x="269" y="336"/>
      <point x="187" y="336" type="curve" smooth="yes"/>
      <point x="157" y="336"/>
      <point x="122" y="327"/>
    </contour>
  </outline>
</glyph>
<glyph name="exclamdown" format="1">
  <advance width="182"/>
  <unicode hex="00A1"/>
  <outline>
    <contour>
      <point x="21" y="491" type="curve" smooth="yes"/>
      <point x="21" y="518"/>
      <point x="43" y="540"/>
      <point x="70" y="540" type="curve" smooth="yes"/>
      <point x="97" y="540"/>
      <point x="119" y="518"/>
      <point x="119" y="491" type="curve" smooth="yes"/>
      <point x="119" y="465"/>
      <point x="97" y="443"/>
      <point x="70" y="443" type="curve" smooth="yes"/>
      <point x="43" y="443"/>
      <point x="21" y="465"/>
    </contour>
    <contour>
      <point x="31" y="-137" type="line"/>
      <point x="31" y="400" type="line"/>
      <point x="110" y="400" type="line"/>
      <point x="110" y="-137" type="line"/>
    </contour>
  </outline>
</glyph>
<glyph name="cent" format="1">
  <advance width="435"/>
  <unicode hex="00A2"/>
  <outline>
    <contour>
      <point x="250" y="27" type="line"/>
      <point x="284" y="27" type="line"/>
      <point x="284" y="-75" type="line"/>
      <point x="250" y="-75" type="line"/>
    </contour>
    <contour>
      <point x="171" y="27" type="line"/>
      <point x="205" y="27" type="line"/>
      <point x="205" y="-75" type="line"/>
      <point x="171" y="-75" type="line"/>
    </contour>
    <contour>
      <point x="250" y="612" type="line"/>
      <point x="284" y="612" type="line"/>
      <point x="284" y="510" type="line"/>
      <point x="250" y="510" type="line"/>
    </contour>
    <contour>
      <point x="171" y="612" type="line"/>
      <point x="205" y="612" type="line"/>
      <point x="205" y="510" type="line"/>
      <point x="171" y="510" type="line"/>
    </contour>
    <contour>
      <point x="38" y="147" type="curve" smooth="yes"/>
      <point x="38" y="162"/>
      <point x="38" y="336"/>
      <point x="38" y="390" type="curve" smooth="yes"/>
      <point x="38" y="446"/>
      <point x="93" y="537"/>
      <point x="205" y="537" type="curve"/>
      <point x="205" y="462" type="line"/>
      <point x="148" y="462"/>
      <point x="116" y="417"/>
      <point x="116" y="382" type="curve" smooth="yes"/>
      <point x="116" y="151" type="line" smooth="yes"/>
      <point x="116" y="121"/>
      <point x="150" y="76"/>
      <point x="205" y="75" type="curve"/>
      <point x="205" y="0" type="line"/>
      <point x="80" y="0"/>
      <point x="38" y="98"/>
    </contour>
    <contour>
      <point x="250" y="461" type="curve"/>
      <point x="250" y="537" type="line"/>
      <point x="334" y="537"/>
      <point x="403" y="469"/>
      <point x="403" y="387" type="curve"/>
      <point x="330" y="360" type="line"/>
      <point x="330" y="362"/>
      <point x="330" y="380"/>
      <point x="330" y="382" type="curve" smooth="yes"/>
      <point x="327" y="437"/>
      <point x="284" y="461"/>
    </contour>
    <contour>
      <point x="250" y="-1" type="curve"/>
      <point x="250" y="74" type="line"/>
      <point x="292" y="74"/>
      <point x="335" y="104"/>
      <point x="341" y="154" type="curve" smooth="yes"/>
      <point x="341" y="157"/>
      <point x="342" y="174"/>
      <point x="342" y="178" type="curve"/>
      <point x="415" y="150" type="line"/>
      <point x="415" y="68"/>
      <point x="333" y="-1"/>
    </contour>
  </outline>
</glyph>
<glyph name="sterling" format="1">
  <advance width="408"/>
  <unicode hex="00A3"/>
  <outline>
    <contour>
      <point x="20" y="308" type="line"/>
      <point x="20" y="374" type="line"/>
      <point x="80" y="374" type="line"/>
      <point x="80" y="537" type="line" smooth="yes"/>
      <point x="80" y="624"/>
      <point x="129" y="704"/>
      <point x="237" y="704" type="curve" smooth="yes"/>
      <point x="238" y="704"/>
      <point x="239" y="704"/>
      <point x="239" y="704" type="curve" smooth="yes"/>
      <point x="264" y="704"/>
      <point x="285" y="700"/>
      <point x="304" y="692" type="curve"/>
      <point x="347" y="675"/>
      <point x="375" y="640"/>
      <point x="387" y="605" type="curve"/>
      <point x="326" y="574" type="line"/>
      <point x="311" y="603"/>
      <point x="287" y="631"/>
      <point x="243" y="631" type="curve" smooth="yes"/>
      <point x="195" y="631"/>
      <point x="158" y="600"/>
      <point x="158" y="540" type="curve" smooth="yes"/>
      <point x="158" y="376" type="line"/>
      <point x="301" y="376" type="line"/>
      <point x="301" y="310" type="line"/>
      <point x="157" y="310" type="line"/>
      <point x="157" y="67" type="line"/>
      <point x="385" y="67" type="line"/>
      <point x="385" y="0" type="line"/>
      <point x="80" y="0" type="line"/>
      <point x="80" y="308" type="line"/>
    </contour>
  </outline>
</glyph>
<glyph name="currency" format="1">
  <advance width="618"/>
  <unicode hex="00A4"/>
  <outline>
    <contour>
      <point x="40" y="175" type="line"/>
      <point x="126" y="252" type="line"/>
      <point x="122" y="260"/>
      <point x="121" y="273"/>
      <point x="121" y="280" type="curve" smooth="yes"/>
      <point x="121" y="449" type="line" smooth="yes"/>
      <point x="121" y="456"/>
      <point x="123" y="471"/>
      <point x="127" y="479" type="curve"/>
      <point x="40" y="556" type="line"/>
      <point x="84" y="607" type="line"/>
      <point x="159" y="540" type="line"/>
      <point x="185" y="571"/>
      <point x="227" y="596"/>
      <point x="285" y="596" type="curve"/>
      <point x="285" y="525" type="line"/>
      <point x="224" y="525"/>
      <point x="194" y="477"/>
      <point x="194" y="443" type="curve" smooth="yes"/>
      <point x="194" y="286" type="line" smooth="yes"/>
      <point x="194" y="253"/>
      <point x="229" y="203"/>
      <point x="285" y="203" type="curve"/>
      <point x="285" y="132" type="line"/>
      <point x="226" y="132"/>
      <point x="185" y="159"/>
      <point x="159" y="190" type="curve"/>
      <point x="84" y="124" type="line"/>
    </contour>
    <contour>
      <point x="326" y="132" type="curve"/>
      <point x="326" y="203" type="line"/>
      <point x="384" y="203"/>
      <point x="414" y="252"/>
      <point x="414" y="285" type="curve" smooth="yes"/>
      <point x="414" y="442" type="line" smooth="yes"/>
      <point x="414" y="477"/>
      <point x="384" y="525"/>
      <point x="326" y="525" type="curve"/>
      <point x="326" y="596" type="line"/>
      <point x="383" y="596"/>
      <point x="423" y="571"/>
      <point x="448" y="540" type="curve"/>
      <point x="523" y="607" type="line"/>
      <point x="568" y="556" type="line"/>
      <point x="481" y="478" type="line"/>
      <point x="483" y="470"/>
      <point x="485" y="457"/>
      <point x="485" y="450" type="curve" smooth="yes"/>
      <point x="485" y="280" type="line" smooth="yes"/>
      <point x="485" y="273"/>
      <point x="483" y="260"/>
      <point x="481" y="252" type="curve"/>
      <point x="567" y="175" type="line"/>
      <point x="523" y="124" type="line"/>
      <point x="449" y="190" type="line"/>
      <point x="423" y="158"/>
      <point x="383" y="132"/>
    </contour>
  </outline>
</glyph>
<glyph name="yen" format="1">
  <advance width="451"/>
  <unicode hex="00A5"/>
  <outline>
    <contour>
      <point x="19" y="232" type="line"/>
      <point x="438" y="232" type="line"/>
      <point x="438" y="188" type="line"/>
      <point x="19" y="188" type="line"/>
    </contour>
    <contour>
      <point x="19" y="331" type="line"/>
      <point x="438" y="331" type="line"/>
      <point x="438" y="286" type="line"/>
      <point x="19" y="286" type="line"/>
    </contour>
    <contour>
      <point x="190" y="0" type="line"/>
      <point x="190" y="268" type="line"/>
      <point x="48" y="698" type="line"/>
      <point x="128" y="698" type="line"/>
      <point x="230" y="401" type="line"/>
      <point x="330" y="698" type="line"/>
      <point x="411" y="698" type="line"/>
      <point x="270" y="267" type="line"/>
      <point x="270" y="0" type="line"/>
    </contour>
  </outline>
</glyph>
<glyph name="section" format="1">
  <advance width="602"/>
  <unicode hex="00A7"/>
  <outline>
    <contour>
      <point x="54" y="354" type="curve" smooth="yes"/>
      <point x="54" y="421"/>
      <point x="86" y="471"/>
      <point x="128" y="502" type="curve"/>
      <point x="120" y="521"/>
      <point x="115" y="545"/>
      <point x="115" y="574" type="curve" smooth="yes"/>
      <point x="115" y="716"/>
      <point x="231" y="760"/>
      <point x="301" y="760" type="curve" smooth="yes"/>
      <point x="404" y="760" type="line"/>
      <point x="404" y="683" type="line"/>
      <point x="321" y="683" type="line" smooth="yes"/>
      <point x="234" y="682"/>
      <point x="193" y="640"/>
      <point x="193" y="577" type="curve" smooth="yes"/>
      <point x="193" y="528"/>
      <point x="231" y="503"/>
      <point x="276" y="487" type="curve"/>
      <point x="276" y="396" type="line"/>
      <point x="262" y="399"/>
      <point x="248" y="403"/>
      <point x="238" y="407" type="curve" smooth="yes"/>
      <point x="214" y="417"/>
      <point x="193" y="427"/>
      <point x="177" y="441" type="curve"/>
      <point x="155" y="424"/>
      <point x="135" y="397"/>
      <point x="135" y="353" type="curve" smooth="yes"/>
      <point x="135" y="283"/>
      <point x="209" y="259"/>
      <point x="276" y="243" type="curve"/>
      <point x="276" y="159" type="line"/>
      <point x="239" y="169"/>
      <point x="203" y="176"/>
      <point x="179" y="187" type="curve" smooth="yes"/>
      <point x="110" y="219"/>
      <point x="54" y="257"/>
    </contour>
    <contour>
      <point x="197" y="-59" type="line"/>
      <point x="278" y="-59" type="line" smooth="yes"/>
      <point x="357" y="-60"/>
      <point x="410" y="-21"/>
      <point x="410" y="49" type="curve" smooth="yes"/>
      <point x="410" y="102"/>
      <point x="370" y="126"/>
      <point x="325" y="142" type="curve"/>
      <point x="325" y="230" type="line"/>
      <point x="338" y="227"/>
      <point x="351" y="223"/>
      <point x="361" y="219" type="curve" smooth="yes"/>
      <point x="387" y="211"/>
      <point x="411" y="201"/>
      <point x="429" y="182" type="curve"/>
      <point x="451" y="202"/>
      <point x="467" y="231"/>
      <point x="467" y="269" type="curve" smooth="yes"/>
      <point x="467" y="345"/>
      <point x="392" y="368"/>
      <point x="325" y="383" type="curve"/>
      <point x="325" y="468" type="line"/>
      <point x="360" y="458"/>
      <point x="394" y="450"/>
      <point x="420" y="439" type="curve" smooth="yes"/>
      <point x="486" y="413"/>
      <point x="548" y="373"/>
      <point x="548" y="268" type="curve" smooth="yes"/>
      <point x="548" y="209"/>
      <point x="521" y="154"/>
      <point x="477" y="118" type="curve"/>
      <point x="484" y="98"/>
      <point x="487" y="75"/>
      <point x="487" y="48" type="curve" smooth="yes"/>
      <point x="487" y="-62"/>
      <point x="403" y="-137"/>
      <point x="299" y="-137" type="curve" smooth="yes"/>
      <point x="197" y="-137" type="line"/>
    </contour>
  </outline>
</glyph>
<glyph name="dieresis" format="1">
  <advance width="333"/>
  <unicode hex="00A8"/>
  <outline>
    <contour>
      <point x="55" y="679" type="curve" smooth="yes"/>
      <point x="55" y="705"/>
      <point x="76" y="726"/>
      <point x="102" y="726" type="curve" smooth="yes"/>
      <point x="128" y="726"/>
      <point x="149" y="705"/>
      <point x="149" y="679" type="curve" smooth="yes"/>
      <point x="149" y="653"/>
      <point x="128" y="632"/>
      <point x="102" y="632" type="curve" smooth="yes"/>
      <point x="76" y="632"/>
      <point x="55" y="653"/>
    </contour>
    <contour>
      <point x="184" y="679" type="curve" smooth="yes"/>
      <point x="184" y="705"/>
      <point x="205" y="726"/>
      <point x="232" y="726" type="curve" smooth="yes"/>
      <point x="258" y="726"/>
      <point x="278" y="705"/>
      <point x="278" y="679" type="curve" smooth="yes"/>
      <point x="278" y="653"/>
      <point x="258" y="632"/>
      <point x="232" y="632" type="curve" smooth="yes"/>
      <point x="205" y="632"/>
      <point x="184" y="653"/>
    </contour>
  </outline>
</glyph>
<glyph name="copyright" format="1">
  <advance width="789"/>
  <unicode hex="00A9"/>
  <outline>
    <contour>
      <point x="35" y="339" type="curve" smooth="yes"/>
      <point x="35" y="582"/>
      <point x="244" y="708"/>
      <point x="381" y="707" type="curve"/>
      <point x="381" y="653" type="line"/>
      <point x="249" y="652"/>
      <point x="89" y="533"/>
      <point x="89" y="339" type="curve" smooth="yes"/>
      <point x="89" y="177"/>
      <point x="218" y="31"/>
      <point x="381" y="28" type="curve"/>
      <point x="381" y="-30" type="line"/>
      <point x="205" y="-27"/>
      <point x="35" y="127"/>
    </contour>
    <contour>
      <point x="254" y="240" type="curve" smooth="yes"/>
      <point x="254" y="252"/>
      <point x="254" y="394"/>
      <point x="254" y="436" type="curve" smooth="yes"/>
      <point x="254" y="486"/>
      <point x="292" y="565"/>
      <point x="382" y="565" type="curve"/>
      <point x="382" y="511" type="line"/>
      <point x="328" y="511"/>
      <point x="309" y="462"/>
      <point x="309" y="435" type="curve" smooth="yes"/>
      <point x="309" y="240" type="line" smooth="yes"/>
      <point x="309" y="209"/>
      <point x="335" y="167"/>
      <point x="382" y="167" type="curve"/>
      <point x="382" y="113" type="line"/>
      <point x="284" y="113"/>
      <point x="254" y="197"/>
    </contour>
    <contour>
      <point x="416" y="-30" type="curve"/>
      <point x="416" y="28" type="line"/>
      <point x="573" y="31"/>
      <point x="705" y="177"/>
      <point x="705" y="336" type="curve" smooth="yes"/>
      <point x="705" y="518"/>
      <point x="560" y="652"/>
      <point x="416" y="653" type="curve"/>
      <point x="416" y="707" type="line"/>
      <point x="570" y="707"/>
      <point x="759" y="565"/>
      <point x="759" y="334" type="curve" smooth="yes"/>
      <point x="756" y="124"/>
      <point x="584" y="-27"/>
    </contour>
    <contour>
      <point x="416" y="112" type="curve"/>
      <point x="416" y="166" type="line"/>
      <point x="449" y="166"/>
      <point x="478" y="198"/>
      <point x="479" y="237" type="curve" smooth="yes"/>
      <point x="479" y="252" type="line"/>
      <point x="533" y="232" type="line"/>
      <point x="533" y="170"/>
      <point x="477" y="112"/>
    </contour>
    <contour>
      <point x="416" y="510" type="curve"/>
      <point x="416" y="565" type="line"/>
      <point x="478" y="565"/>
      <point x="532" y="508"/>
      <point x="532" y="446" type="curve"/>
      <point x="477" y="426" type="line"/>
      <point x="477" y="427"/>
      <point x="477" y="437"/>
      <point x="477" y="437" type="curve" smooth="yes"/>
      <point x="477" y="483"/>
      <point x="443" y="510"/>
    </contour>
  </outline>
</glyph>
<glyph name="ordfeminine" format="1">
  <advance width="237"/>
  <unicode hex="00AA"/>
  <outline>
    <contour>
      <point x="20" y="365" type="line"/>
      <point x="20" y="403" type="line"/>
      <point x="215" y="403" type="line"/>
      <point x="215" y="365" type="line"/>
    </contour>
    <component base="a" xScale="0.5" yScale="0.5" xOffset="3" yOffset="435"/>
  </outline>
</glyph>
<glyph name="guillemotleft" format="1">
  <advance width="468"/>
  <unicode hex="00AB"/>
  <outline>
    <contour>
      <point x="24" y="272" type="line"/>
      <point x="24" y="308" type="line"/>
      <point x="235" y="464" type="line"/>
      <point x="235" y="383" type="line"/>
      <point x="107" y="292" type="line"/>
      <point x="235" y="195" type="line"/>
      <point x="235" y="115" type="line"/>
    </contour>
    <contour>
      <point x="235" y="272" type="line"/>
      <point x="235" y="308" type="line"/>
      <point x="446" y="464" type="line"/>
      <point x="446" y="383" type="line"/>
      <point x="318" y="292" type="line"/>
      <point x="446" y="195" type="line"/>
      <point x="446" y="115" type="line"/>
    </contour>
  </outline>
</glyph>
<glyph name="logicalnot" format="1">
  <advance width="517"/>
  <unicode hex="00AC"/>
  <outline>
    <contour>
      <point x="40" y="351" type="line"/>
      <point x="40" y="421" type="line"/>
      <point x="467" y="421" type="line"/>
      <point x="467" y="208" type="line"/>
      <point x="395" y="208" type="line"/>
      <point x="395" y="351" type="line"/>
    </contour>
  </outline>
</glyph>
<glyph name="registered" format="1">
  <advance width="386"/>
  <unicode hex="00AE"/>
  <outline>
    <contour>
      <point x="30" y="525" type="curve" smooth="yes"/>
      <point x="30" y="638"/>
      <point x="122" y="694"/>
      <point x="186" y="694" type="curve"/>
      <point x="186" y="670" type="line"/>
      <point x="117" y="670"/>
      <point x="52" y="610"/>
      <point x="52" y="526" type="curve"/>
      <point x="53" y="455"/>
      <point x="111" y="389"/>
      <point x="182" y="388" type="curve"/>
      <point x="183" y="363" type="line"/>
      <point x="102" y="364"/>
      <point x="30" y="441"/>
    </contour>
    <contour>
      <point x="139" y="431" type="line"/>
      <point x="139" y="627" type="line"/>
      <point x="162" y="627" type="line"/>
      <point x="162" y="431" type="line"/>
    </contour>
    <contour>
      <point x="175" y="519" type="curve"/>
      <point x="175" y="539" type="line"/>
      <point x="193" y="539" type="line" smooth="yes"/>
      <point x="220" y="539"/>
      <point x="236" y="551"/>
      <point x="236" y="569" type="curve" smooth="yes"/>
      <point x="236" y="601"/>
      <point x="209" y="606"/>
      <point x="182" y="606" type="curve" smooth="yes"/>
      <point x="175" y="606" type="line"/>
      <point x="175" y="627" type="line"/>
      <point x="212" y="627"/>
      <point x="257" y="621"/>
      <point x="257" y="570" type="curve" smooth="yes"/>
      <point x="257" y="549"/>
      <point x="247" y="537"/>
      <point x="232" y="530" type="curve"/>
      <point x="243" y="525"/>
      <point x="255" y="511"/>
      <point x="257" y="492" type="curve" smooth="yes"/>
      <point x="260" y="432" type="line"/>
      <point x="239" y="432" type="line"/>
      <point x="236" y="481" type="line" smooth="yes"/>
      <point x="234" y="511"/>
      <point x="225" y="519"/>
    </contour>
    <contour>
      <point x="202" y="364" type="curve"/>
      <point x="202" y="388" type="line"/>
      <point x="274" y="389"/>
      <point x="334" y="455"/>
      <point x="334" y="527" type="curve" smooth="yes"/>
      <point x="334" y="609"/>
      <point x="269" y="670"/>
      <point x="202" y="670" type="curve"/>
      <point x="202" y="694" type="line"/>
      <point x="270" y="693"/>
      <point x="356" y="630"/>
      <point x="356" y="528" type="curve" smooth="yes"/>
      <point x="356" y="431"/>
      <point x="280" y="365"/>
    </contour>
  </outline>
</glyph>
<glyph name="degree" format="1">
  <advance width="247"/>
  <unicode hex="00B0"/>
  <outline>
    <contour>
      <point x="35" y="583" type="curve" smooth="yes"/>
      <point x="35" y="632"/>
      <point x="75" y="671"/>
      <point x="123" y="671" type="curve" smooth="yes"/>
      <point x="172" y="671"/>
      <point x="212" y="632"/>
      <point x="212" y="583" type="curve" smooth="yes"/>
      <point x="212" y="535"/>
      <point x="172" y="495"/>
      <point x="123" y="495" type="curve" smooth="yes"/>
      <point x="75" y="495"/>
      <point x="35" y="535"/>
    </contour>
    <contour>
      <point x="85" y="583" type="curve" smooth="yes"/>
      <point x="85" y="562"/>
      <point x="102" y="545"/>
      <point x="123" y="545" type="curve" smooth="yes"/>
      <point x="145" y="545"/>
      <point x="162" y="562"/>
      <point x="162" y="583" type="curve" smooth="yes"/>
      <point x="162" y="605"/>
      <point x="145" y="622"/>
      <point x="123" y="622" type="curve" smooth="yes"/>
      <point x="102" y="622"/>
      <point x="85" y="605"/>
    </contour>
  </outline>
</glyph>
<glyph name="plusminus" format="1">
  <advance width="447"/>
  <unicode hex="00B1"/>
  <outline>
    <contour>
      <point x="46" y="93" type="line"/>
      <point x="46" y="167" type="line"/>
      <point x="422" y="167" type="line"/>
      <point x="422" y="93" type="line"/>
    </contour>
    <component base="plus" xOffset="10" yOffset="161"/>
  </outline>
</glyph>
<glyph name="acute" format="1">
  <advance width="344"/>
  <unicode hex="00B4"/>
  <outline>
    <contour>
      <point x="115" y="605" type="line"/>
      <point x="152" y="757" type="line"/>
      <point x="228" y="757" type="line"/>
      <point x="169" y="605" type="line"/>
    </contour>
  </outline>
</glyph>
<glyph name="uni00B5" format="1">
  <advance width="496"/>
  <unicode hex="00B5"/>
  <outline>
    <contour>
      <point x="40" y="0" type="line"/>
      <point x="40" y="698" type="line"/>
      <point x="115" y="698" type="line"/>
      <point x="115" y="320" type="line" smooth="yes"/>
      <point x="115" y="297"/>
      <point x="155" y="275"/>
      <point x="206" y="275" type="curve"/>
      <point x="206" y="203" type="line"/>
      <point x="159" y="203"/>
      <point x="127" y="221"/>
      <point x="115" y="227" type="curve"/>
      <point x="115" y="0" type="line"/>
    </contour>
    <contour>
      <point x="248" y="203" type="curve"/>
      <point x="248" y="275" type="line"/>
      <point x="299" y="275"/>
      <point x="340" y="297"/>
      <point x="340" y="320" type="curve" smooth="yes"/>
      <point x="340" y="698" type="line"/>
      <point x="340" y="700" type="line"/>
      <point x="414" y="700" type="line"/>
      <point x="414" y="698" type="line"/>
      <point x="414" y="320" type="line" smooth="yes"/>
      <point x="414" y="296"/>
      <point x="419" y="278"/>
      <point x="456" y="278" type="curve"/>
      <point x="456" y="205" type="line"/>
      <point x="413" y="205"/>
      <point x="390" y="217"/>
      <point x="370" y="239" type="curve"/>
      <point x="342" y="218"/>
      <point x="300" y="203"/>
    </contour>
  </outline>
</glyph>
<glyph name="paragraph" format="1">
  <advance width="411"/>
  <unicode hex="00B6"/>
  <outline>
    <contour>
      <point x="35" y="517" type="curve" smooth="yes"/>
      <point x="35" y="617"/>
      <point x="102" y="705"/>
      <point x="204" y="705" type="curve" smooth="yes"/>
      <point x="232" y="705"/>
      <point x="228" y="705"/>
      <point x="256" y="705" type="curve"/>
      <point x="256" y="-5" type="line"/>
      <point x="204" y="-5" type="line"/>
      <point x="204" y="329" type="line"/>
      <point x="100" y="329"/>
      <point x="35" y="403"/>
    </contour>
    <contour>
      <point x="306" y="-5" type="line"/>
      <point x="306" y="705" type="line"/>
      <point x="357" y="705" type="line"/>
      <point x="357" y="-5" type="line"/>
    </contour>
  </outline>
</glyph>
<glyph name="cedilla" format="1">
  <advance width="410"/>
  <unicode hex="00B8"/>
  <outline>
    <contour>
      <point x="123" y="-20" type="curve"/>
      <point x="123" y="40" type="line"/>
      <point x="173" y="40"/>
      <point x="214" y="68"/>
      <point x="214" y="123" type="curve"/>
      <point x="275" y="123" type="line"/>
      <point x="275" y="59"/>
      <point x="235" y="-20"/>
    </contour>
  </outline>
</glyph>
<glyph name="guillemotright" format="1">
  <advance width="457"/>
  <unicode hex="00BB"/>
  <outline>
    <contour>
      <point x="15" y="127" type="line"/>
      <point x="15" y="200" type="line"/>
      <point x="155" y="292" type="line"/>
      <point x="15" y="377" type="line"/>
      <point x="15" y="452" type="line"/>
      <point x="226" y="314" type="line"/>
      <point x="226" y="266" type="line"/>
    </contour>
    <contour>
      <point x="226" y="127" type="line"/>
      <point x="226" y="200" type="line"/>
      <point x="366" y="292" type="line"/>
      <point x="226" y="377" type="line"/>
      <point x="226" y="452" type="line"/>
      <point x="437" y="314" type="line"/>
      <point x="437" y="266" type="line"/>
    </contour>
  </outline>
</glyph>
<glyph name="Aring" format="1">
  <advance width="516"/>
  <unicode hex="00C5"/>
  <outline>
    <contour>
      <point x="54" y="0" type="line"/>
      <point x="188" y="592" type="line"/>
      <point x="204" y="592" type="line"/>
      <point x="235" y="451" type="line"/>
      <point x="135" y="0" type="line"/>
    </contour>
    <contour>
      <point x="209" y="115" type="line"/>
      <point x="226" y="194" type="line"/>
      <point x="341" y="194" type="line"/>
      <point x="231" y="696" type="line"/>
      <point x="205" y="707"/>
      <point x="187" y="734"/>
      <point x="187" y="765" type="curve" smooth="yes"/>
      <point x="187" y="810"/>
      <point x="223" y="847"/>
      <point x="268" y="847" type="curve" smooth="yes"/>
      <point x="314" y="847"/>
      <point x="351" y="810"/>
      <point x="351" y="765" type="curve" smooth="yes"/>
      <point x="351" y="735"/>
      <point x="335" y="710"/>
      <point x="311" y="697" type="curve"/>
      <point x="462" y="0" type="line"/>
      <point x="383" y="0" type="line"/>
      <point x="358" y="115" type="line"/>
    </contour>
    <contour>
      <point x="233" y="765" type="curve" smooth="yes"/>
      <point x="233" y="745"/>
      <point x="249" y="729"/>
      <point x="268" y="729" type="curve" smooth="yes"/>
      <point x="289" y="729"/>
      <point x="305" y="745"/>
      <point x="305" y="765" type="curve" smooth="yes"/>
      <point x="305" y="785"/>
      <point x="289" y="801"/>
      <point x="268" y="801" type="curve" smooth="yes"/>
      <point x="249" y="801"/>
      <point x="233" y="785"/>
    </contour>
  </outline>
</glyph>
<glyph name="AE" format="1">
  <advance width="727"/>
  <unicode hex="00C6"/>
  <outline>
    <contour>
      <point x="58" y="0" type="line"/>
      <point x="238" y="700" type="line"/>
      <point x="701" y="700" type="line"/>
      <point x="701" y="620" type="line"/>
      <point x="448" y="620" type="line"/>
      <point x="448" y="388" type="line"/>
      <point x="607" y="388" type="line"/>
      <point x="607" y="308" type="line"/>
      <point x="448" y="308" type="line"/>
      <point x="448" y="80" type="line"/>
      <point x="701" y="80" type="line"/>
      <point x="701" y="0" type="line"/>
      <point x="367" y="0" type="line"/>
      <point x="367" y="172" type="line"/>
      <point x="240" y="172" type="line"/>
      <point x="258" y="244" type="line"/>
      <point x="367" y="244" type="line"/>
      <point x="367" y="620" type="line"/>
      <point x="304" y="620" type="line"/>
      <point x="148" y="0" type="line"/>
    </contour>
  </outline>
</glyph>
<glyph name="Eth" format="1">
  <advance width="472"/>
  <unicode hex="00D0"/>
  <outline>
    <contour>
      <point x="26" y="317" type="line"/>
      <point x="26" y="392" type="line"/>
      <point x="82" y="392" type="line"/>
      <point x="82" y="700" type="line"/>
      <point x="164" y="700" type="line"/>
      <point x="164" y="392" type="line"/>
      <point x="220" y="392" type="line"/>
      <point x="220" y="317" type="line"/>
      <point x="164" y="317" type="line"/>
      <point x="164" y="0" type="line"/>
      <point x="82" y="0" type="line"/>
      <point x="82" y="317" type="line"/>
    </contour>
    <contour>
      <point x="213" y="0" type="curve"/>
      <point x="213" y="80" type="line"/>
      <point x="299" y="80"/>
      <point x="393" y="85"/>
      <point x="393" y="197" type="curve" smooth="yes"/>
      <point x="393" y="503" type="line" smooth="yes"/>
      <point x="393" y="603"/>
      <point x="312" y="619"/>
      <point x="213" y="620" type="curve"/>
      <point x="213" y="700" type="line"/>
      <point x="362" y="700"/>
      <point x="474" y="649"/>
      <point x="474" y="503" type="curve" smooth="yes"/>
      <point x="474" y="197" type="line" smooth="yes"/>
      <point x="474" y="21"/>
      <point x="332" y="0"/>
    </contour>
  </outline>
</glyph>
<glyph name="multiply" format="1">
  <advance width="577"/>
  <unicode hex="00D7"/>
  <outline>
    <contour>
      <point x="107" y="372" type="line"/>
      <point x="254" y="520" type="line"/>
      <point x="210" y="565" type="line"/>
      <point x="292" y="648" type="line"/>
      <point x="439" y="500" type="line"/>
      <point x="486" y="547" type="line"/>
      <point x="569" y="464" type="line"/>
      <point x="420" y="316" type="line"/>
      <point x="467" y="268" type="line"/>
      <point x="385" y="185" type="line"/>
      <point x="236" y="334" type="line"/>
      <point x="190" y="288" type="line"/>
    </contour>
  </outline>
</glyph>
<glyph name="Oslash" format="1">
  <advance width="669"/>
  <unicode hex="00D8"/>
  <outline>
    <contour>
      <point x="14" y="113" type="line"/>
      <point x="108" y="198" type="line"/>
      <point x="108" y="524" type="line" smooth="yes"/>
      <point x="108" y="584"/>
      <point x="173" y="705"/>
      <point x="305" y="705" type="curve"/>
      <point x="305" y="624" type="line"/>
      <point x="228" y="624"/>
      <point x="189" y="547"/>
      <point x="189" y="506" type="curve" smooth="yes"/>
      <point x="189" y="271" type="line"/>
      <point x="472" y="525" type="line"/>
      <point x="463" y="567"/>
      <point x="428" y="624"/>
      <point x="359" y="624" type="curve"/>
      <point x="359" y="705" type="line"/>
      <point x="453" y="705"/>
      <point x="512" y="642"/>
      <point x="539" y="585" type="curve"/>
      <point x="599" y="640" type="line"/>
      <point x="647" y="588" type="line"/>
      <point x="556" y="506" type="line"/>
      <point x="556" y="195" type="line" smooth="yes"/>
      <point x="556" y="51"/>
      <point x="419" y="-5"/>
      <point x="359" y="-5" type="curve"/>
      <point x="359" y="76" type="line"/>
      <point x="394" y="76"/>
      <point x="474" y="114"/>
      <point x="475" y="195" type="curve" smooth="yes"/>
      <point x="475" y="433" type="line"/>
      <point x="191" y="178" type="line"/>
      <point x="202" y="109"/>
      <point x="273" y="76"/>
      <point x="304" y="76" type="curve"/>
      <point x="304" y="-5" type="line"/>
      <point x="256" y="-5"/>
      <point x="161" y="30"/>
      <point x="124" y="118" type="curve"/>
      <point x="62" y="61" type="line"/>
    </contour>
  </outline>
</glyph>
<glyph name="Thorn" format="1">
  <advance width="474"/>
  <unicode hex="00DE"/>
  <outline>
    <contour>
      <point x="56" y="0" type="line"/>
      <point x="56" y="700" type="line"/>
      <point x="137" y="700" type="line"/>
      <point x="137" y="0" type="line"/>
    </contour>
    <contour>
      <point x="189" y="208" type="curve"/>
      <point x="189" y="287" type="line"/>
      <point x="228" y="287" type="line" smooth="yes"/>
      <point x="286" y="287"/>
      <point x="366" y="298"/>
      <point x="366" y="398" type="curve" smooth="yes"/>
      <point x="366" y="497"/>
      <point x="290" y="511"/>
      <point x="227" y="511" type="curve" smooth="yes"/>
      <point x="189" y="511" type="line"/>
      <point x="189" y="590" type="line"/>
      <point x="387" y="594"/>
      <point x="447" y="535"/>
      <point x="448" y="400" type="curve" smooth="yes"/>
      <point x="449" y="247"/>
      <point x="358" y="202"/>
    </contour>
  </outline>
</glyph>
<glyph name="germandbls" format="1">
  <advance width="522"/>
  <unicode hex="00DF"/>
  <outline>
    <contour>
      <point x="26" y="0" type="line"/>
      <point x="26" y="457" type="line" smooth="yes"/>
      <point x="27" y="531"/>
      <point x="16" y="705"/>
      <point x="226" y="705" type="curve" smooth="yes"/>
      <point x="396" y="705"/>
      <point x="406" y="575"/>
      <point x="406" y="518" type="curve" smooth="yes"/>
      <point x="406" y="406" type="line"/>
      <point x="350" y="406" type="line" smooth="yes"/>
      <point x="316" y="404"/>
      <point x="305" y="379"/>
      <point x="305" y="367" type="curve" smooth="yes"/>
      <point x="305" y="349"/>
      <point x="310" y="326"/>
      <point x="391" y="299" type="curve" smooth="yes"/>
      <point x="441" y="282"/>
      <point x="496" y="245"/>
      <point x="496" y="156" type="curve" smooth="yes"/>
      <point x="496" y="59"/>
      <point x="420" y="0"/>
      <point x="327" y="0" type="curve" smooth="yes"/>
      <point x="199" y="0" type="line"/>
      <point x="199" y="67" type="line"/>
      <point x="310" y="67" type="line" smooth="yes"/>
      <point x="362" y="68"/>
      <point x="426" y="87"/>
      <point x="426" y="153" type="curve" smooth="yes"/>
      <point x="426" y="212"/>
      <point x="396" y="219"/>
      <point x="341" y="247" type="curve" smooth="yes"/>
      <point x="293" y="271"/>
      <point x="235" y="292"/>
      <point x="235" y="371" type="curve" smooth="yes"/>
      <point x="235" y="438"/>
      <point x="289" y="464"/>
      <point x="336" y="470" type="curve"/>
      <point x="336" y="482" type="line" smooth="yes"/>
      <point x="336" y="561"/>
      <point x="332" y="634"/>
      <point x="226" y="634" type="curve" smooth="yes"/>
      <point x="117" y="634"/>
      <point x="102" y="554"/>
      <point x="102" y="498" type="curve" smooth="yes"/>
      <point x="102" y="0" type="line"/>
    </contour>
  </outline>
</glyph>
<glyph name="ae" format="1">
  <advance width="530"/>
  <unicode hex="00E6"/>
  <outline>
    <contour>
      <point x="26" y="116" type="curve" smooth="yes"/>
      <point x="26" y="166" type="line" smooth="yes"/>
      <point x="26" y="306"/>
      <point x="312" y="286"/>
      <point x="312" y="358" type="curve" smooth="yes"/>
      <point x="312" y="378" type="line" smooth="yes"/>
      <point x="312" y="419"/>
      <point x="263" y="454"/>
      <point x="206" y="454" type="curve" smooth="yes"/>
      <point x="152" y="454"/>
      <point x="98" y="428"/>
      <point x="98" y="364" type="curve"/>
      <point x="37" y="383" type="line"/>
      <point x="36" y="469"/>
      <point x="121" y="520"/>
      <point x="206" y="520" type="curve" smooth="yes"/>
      <point x="270" y="520"/>
      <point x="319" y="499"/>
      <point x="350" y="456" type="curve"/>
      <point x="376" y="488"/>
      <point x="417" y="516"/>
      <point x="475" y="516" type="curve"/>
      <point x="475" y="446" type="line"/>
      <point x="421" y="446"/>
      <point x="384" y="400"/>
      <point x="384" y="361" type="curve" smooth="yes"/>
      <point x="384" y="346"/>
      <point x="384" y="316"/>
      <point x="384" y="301" type="curve"/>
      <point x="614" y="301" type="line"/>
      <point x="614" y="365" type="line" smooth="yes"/>
      <point x="614" y="411"/>
      <point x="567" y="448"/>
      <point x="522" y="448" type="curve"/>
      <point x="522" y="516" type="line"/>
      <point x="597" y="516"/>
      <point x="684" y="453"/>
      <point x="684" y="378" type="curve" smooth="yes"/>
      <point x="684" y="231" type="line"/>
      <point x="384" y="231" type="line"/>
      <point x="384" y="142" type="line" smooth="yes"/>
      <point x="384" y="94"/>
      <point x="441" y="66"/>
      <point x="498" y="66" type="curve" smooth="yes"/>
      <point x="562" y="66"/>
      <point x="609" y="92"/>
      <point x="622" y="143" type="curve"/>
      <point x="685" y="120" type="line"/>
      <point x="664" y="43"/>
      <point x="597" y="0"/>
      <point x="499" y="0" type="curve" smooth="yes"/>
      <point x="431" y="0"/>
      <point x="378" y="18"/>
      <point x="351" y="55" type="curve"/>
      <point x="322" y="16"/>
      <point x="281" y="0"/>
      <point x="228" y="1" type="curve"/>
      <point x="228" y="69" type="line"/>
      <point x="274" y="69"/>
      <point x="312" y="90"/>
      <point x="312" y="149" type="curve" smooth="yes"/>
      <point x="312" y="275" type="line"/>
      <point x="270" y="238"/>
      <point x="91" y="238"/>
      <point x="92" y="162" type="curve"/>
      <point x="92" y="145" type="line" smooth="yes"/>
      <point x="92" y="88"/>
      <point x="133" y="69"/>
      <point x="181" y="69" type="curve"/>
      <point x="181" y="1" type="line"/>
      <point x="84" y="1"/>
      <point x="26" y="59"/>
    </contour>
  </outline>
</glyph>
<glyph name="eth" format="1">
  <advance width="420"/>
  <unicode hex="00F0"/>
  <outline>
    <contour>
      <point x="28" y="141" type="curve" smooth="yes"/>
      <point x="28" y="376" type="line" smooth="yes"/>
      <point x="28" y="425"/>
      <point x="82" y="516"/>
      <point x="192" y="516" type="curve"/>
      <point x="192" y="445" type="line"/>
      <point x="130" y="445"/>
      <point x="101" y="396"/>
      <point x="101" y="363" type="curve" smooth="yes"/>
      <point x="101" y="154" type="line" smooth="yes"/>
      <point x="101" y="119"/>
      <point x="135" y="70"/>
      <point x="192" y="70" type="curve"/>
      <point x="192" y="-1" type="line"/>
      <point x="80" y="-1"/>
      <point x="28" y="93"/>
    </contour>
    <contour>
      <point x="192" y="670" type="curve"/>
      <point x="192" y="714" type="line"/>
      <point x="245" y="704"/>
      <point x="298" y="681"/>
      <point x="335" y="636" type="curve"/>
      <point x="390" y="652" type="line"/>
      <point x="404" y="607" type="line"/>
      <point x="361" y="594" type="line"/>
      <point x="381" y="554"/>
      <point x="392" y="504"/>
      <point x="392" y="438" type="curve" smooth="yes"/>
      <point x="392" y="141" type="line" smooth="yes"/>
      <point x="392" y="92"/>
      <point x="341" y="-1"/>
      <point x="233" y="-1" type="curve"/>
      <point x="233" y="70" type="line"/>
      <point x="291" y="70"/>
      <point x="320" y="120"/>
      <point x="320" y="152" type="curve" smooth="yes"/>
      <point x="320" y="369" type="line" smooth="yes"/>
      <point x="320" y="404"/>
      <point x="288" y="445"/>
      <point x="233" y="445" type="curve"/>
      <point x="233" y="516" type="line"/>
      <point x="269" y="516"/>
      <point x="296" y="505"/>
      <point x="317" y="488" type="curve"/>
      <point x="316" y="524"/>
      <point x="309" y="553"/>
      <point x="298" y="575" type="curve"/>
      <point x="237" y="556" type="line"/>
      <point x="223" y="602" type="line"/>
      <point x="275" y="618" type="line"/>
      <point x="251" y="645"/>
      <point x="218" y="659"/>
    </contour>
  </outline>
</glyph>
<glyph name="divide" format="1">
  <advance width="650"/>
  <unicode hex="00F7"/>
  <outline>
    <contour>
      <point x="87" y="255" type="line"/>
      <point x="87" y="329" type="line"/>
      <point x="537" y="329" type="line"/>
      <point x="537" y="255" type="line"/>
    </contour>
    <component base="period" xOffset="247" yOffset="392"/>
    <component base="period" xOffset="247" yOffset="143"/>
  </outline>
</glyph>
<glyph name="oslash" format="1">
  <advance width="452"/>
  <unicode hex="00F8"/>
  <outline>
    <contour>
      <point x="8" y="74" type="line"/>
      <point x="68" y="128" type="line"/>
      <point x="67" y="133"/>
      <point x="66" y="142"/>
      <point x="66" y="146" type="curve" smooth="yes"/>
      <point x="66" y="376" type="line" smooth="yes"/>
      <point x="66" y="425"/>
      <point x="120" y="516"/>
      <point x="230" y="516" type="curve"/>
      <point x="230" y="445" type="line"/>
      <point x="168" y="445"/>
      <point x="139" y="396"/>
      <point x="139" y="363" type="curve" smooth="yes"/>
      <point x="139" y="193" type="line"/>
      <point x="353" y="390" type="line"/>
      <point x="342" y="419"/>
      <point x="315" y="445"/>
      <point x="271" y="445" type="curve"/>
      <point x="271" y="516" type="line"/>
      <point x="339" y="516"/>
      <point x="384" y="481"/>
      <point x="408" y="441" type="curve"/>
      <point x="453" y="481" type="line"/>
      <point x="491" y="439" type="line"/>
      <point x="429" y="383" type="line"/>
      <point x="430" y="380"/>
      <point x="430" y="372"/>
      <point x="430" y="369" type="curve" smooth="yes"/>
      <point x="430" y="141" type="line" smooth="yes"/>
      <point x="430" y="92"/>
      <point x="379" y="-1"/>
      <point x="271" y="-1" type="curve"/>
      <point x="271" y="70" type="line"/>
      <point x="330" y="70"/>
      <point x="359" y="120"/>
      <point x="359" y="152" type="curve" smooth="yes"/>
      <point x="359" y="318" type="line"/>
      <point x="147" y="124" type="line"/>
      <point x="160" y="95"/>
      <point x="189" y="70"/>
      <point x="230" y="70" type="curve"/>
      <point x="230" y="-1" type="line"/>
      <point x="162" y="-1"/>
      <point x="116" y="33"/>
      <point x="91" y="72" type="curve"/>
      <point x="46" y="31" type="line"/>
    </contour>
  </outline>
</glyph>
<glyph name="dcroat" format="1">
  <advance width="414"/>
  <unicode hex="0111"/>
  <outline>
    <contour>
      <point x="28" y="141" type="curve" smooth="yes"/>
      <point x="28" y="377" type="line" smooth="yes"/>
      <point x="28" y="436"/>
      <point x="90" y="516"/>
      <point x="180" y="516" type="curve" smooth="yes"/>
      <point x="263" y="516" type="line"/>
      <point x="263" y="445" type="line"/>
      <point x="181" y="445" type="line" smooth="yes"/>
      <point x="137" y="445"/>
      <point x="100" y="405"/>
      <point x="100" y="373" type="curve" smooth="yes"/>
      <point x="100" y="143" type="line" smooth="yes"/>
      <point x="100" y="109"/>
      <point x="142" y="71"/>
      <point x="181" y="71" type="curve" smooth="yes"/>
      <point x="263" y="71" type="line"/>
      <point x="263" y="0" type="line"/>
      <point x="183" y="0" type="line" smooth="yes"/>
      <point x="77" y="0"/>
      <point x="28" y="94"/>
    </contour>
    <contour>
      <point x="245" y="567" type="line"/>
      <point x="245" y="642" type="line"/>
      <point x="309" y="642" type="line"/>
      <point x="309" y="699" type="line"/>
      <point x="384" y="699" type="line"/>
      <point x="384" y="642" type="line"/>
      <point x="448" y="642" type="line"/>
      <point x="448" y="567" type="line"/>
      <point x="384" y="567" type="line"/>
      <point x="384" y="0" type="line"/>
      <point x="309" y="0" type="line"/>
      <point x="309" y="567" type="line"/>
    </contour>
  </outline>
</glyph>
<glyph name="Lslash" format="1">
  <advance width="470"/>
  <unicode hex="0141"/>
  <outline>
    <contour>
      <point x="41" y="284" type="line"/>
      <point x="129" y="352" type="line"/>
      <point x="129" y="700" type="line"/>
      <point x="210" y="700" type="line"/>
      <point x="210" y="415" type="line"/>
      <point x="283" y="471" type="line"/>
      <point x="327" y="414" type="line"/>
      <point x="210" y="324" type="line"/>
      <point x="210" y="79" type="line"/>
      <point x="505" y="79" type="line"/>
      <point x="505" y="0" type="line"/>
      <point x="129" y="0" type="line"/>
      <point x="129" y="261" type="line"/>
      <point x="85" y="227" type="line"/>
    </contour>
  </outline>
</glyph>
<glyph name="lslash" format="1">
  <advance width="424"/>
  <unicode hex="0142"/>
  <outline>
    <contour>
      <point x="74" y="311" type="line"/>
      <point x="307" y="491" type="line"/>
      <point x="351" y="434" type="line"/>
      <point x="118" y="254" type="line"/>
    </contour>
    <contour>
      <point x="178" y="-4" type="line"/>
      <point x="178" y="702" type="line"/>
      <point x="261" y="702" type="line"/>
      <point x="261" y="-4" type="line"/>
    </contour>
  </outline>
</glyph>
<glyph name="OE" format="1">
  <advance width="546"/>
  <unicode hex="0152"/>
  <outline>
    <contour>
      <point x="-5" y="198" type="curve" smooth="yes"/>
      <point x="-5" y="510" type="line" smooth="yes"/>
      <point x="-5" y="654"/>
      <point x="99" y="700"/>
      <point x="244" y="700" type="curve"/>
      <point x="244" y="620" type="line"/>
      <point x="145" y="619"/>
      <point x="76" y="603"/>
      <point x="76" y="503" type="curve" smooth="yes"/>
      <point x="76" y="198" type="line" smooth="yes"/>
      <point x="76" y="87"/>
      <point x="157" y="81"/>
      <point x="243" y="81" type="curve"/>
      <point x="243" y="0" type="line"/>
      <point x="124" y="0"/>
      <point x="-5" y="23"/>
    </contour>
    <contour>
      <point x="292" y="0" type="line"/>
      <point x="292" y="81" type="line"/>
      <point x="334" y="81" type="line"/>
      <point x="334" y="620" type="line"/>
      <point x="292" y="620" type="line"/>
      <point x="292" y="700" type="line"/>
      <point x="698" y="700" type="line"/>
      <point x="698" y="620" type="line"/>
      <point x="415" y="620" type="line"/>
      <point x="415" y="389" type="line"/>
      <point x="604" y="389" type="line"/>
      <point x="604" y="308" type="line"/>
      <point x="415" y="308" type="line"/>
      <point x="415" y="80" type="line"/>
      <point x="698" y="80" type="line"/>
      <point x="698" y="0" type="line"/>
    </contour>
  </outline>
</glyph>
<glyph name="florin" format="1">
  <advance width="382"/>
  <unicode hex="0192"/>
  <outline>
    <contour>
      <point x="26" y="-168" type="line"/>
      <point x="43" y="-103" type="line"/>
      <point x="83" y="-103" type="line" smooth="yes"/>
      <point x="130" y="-102"/>
      <point x="141" y="-67"/>
      <point x="141" y="-40" type="curve" smooth="yes"/>
      <point x="141" y="422" type="line"/>
      <point x="78" y="422" type="line"/>
      <point x="78" y="492" type="line"/>
      <point x="141" y="492" type="line"/>
      <point x="141" y="542" type="line" smooth="yes"/>
      <point x="141" y="602"/>
      <point x="192" y="695"/>
      <point x="295" y="696" type="curve" smooth="yes"/>
      <point x="356" y="696" type="line"/>
      <point x="340" y="626" type="line"/>
      <point x="310" y="626" type="line" smooth="yes"/>
      <point x="240" y="625"/>
      <point x="215" y="586"/>
      <point x="215" y="537" type="curve" smooth="yes"/>
      <point x="215" y="491" type="line"/>
      <point x="281" y="492" type="line"/>
      <point x="281" y="422" type="line"/>
      <point x="215" y="422" type="line"/>
      <point x="215" y="-30" type="line" smooth="yes"/>
      <point x="215" y="-92"/>
      <point x="190" y="-168"/>
      <point x="78" y="-168" type="curve" smooth="yes"/>
    </contour>
  </outline>
</glyph>
<glyph name="caron" format="1">
  <advance width="270"/>
  <unicode hex="02C7"/>
  <outline>
    <contour>
      <point x="36" y="666" type="line"/>
      <point x="90" y="666" type="line"/>
      <point x="135" y="576" type="line"/>
      <point x="179" y="666" type="line"/>
      <point x="233" y="666" type="line"/>
      <point x="158" y="514" type="line"/>
      <point x="112" y="514" type="line"/>
    </contour>
  </outline>
</glyph>
<glyph name="breve" format="1">
  <advance width="244"/>
  <unicode hex="02D8"/>
  <outline>
    <contour>
      <point x="45" y="526" type="curve"/>
      <point x="90" y="526" type="line"/>
      <point x="90" y="508"/>
      <point x="104" y="494"/>
      <point x="122" y="494" type="curve" smooth="yes"/>
      <point x="140" y="494"/>
      <point x="154" y="508"/>
      <point x="154" y="526" type="curve"/>
      <point x="199" y="526" type="line"/>
      <point x="199" y="492"/>
      <point x="170" y="450"/>
      <point x="122" y="450" type="curve" smooth="yes"/>
      <point x="74" y="450"/>
      <point x="45" y="492"/>
    </contour>
  </outline>
</glyph>
<glyph name="dotaccent" format="1">
  <advance width="202"/>
  <unicode hex="02D9"/>
  <outline>
    <contour>
      <point x="53" y="678" type="curve" smooth="yes"/>
      <point x="53" y="705"/>
      <point x="74" y="727"/>
      <point x="101" y="727" type="curve" smooth="yes"/>
      <point x="128" y="727"/>
      <point x="149" y="705"/>
      <point x="149" y="678" type="curve" smooth="yes"/>
      <point x="149" y="651"/>
      <point x="128" y="630"/>
      <point x="101" y="630" type="curve" smooth="yes"/>
      <point x="74" y="630"/>
      <point x="53" y="651"/>
    </contour>
  </outline>
</glyph>
<glyph name="ring" format="1">
  <advance width="244"/>
  <unicode hex="02DA"/>
  <outline>
    <contour>
      <point x="43" y="526" type="curve" smooth="yes"/>
      <point x="43" y="570"/>
      <point x="78" y="605"/>
      <point x="122" y="605" type="curve" smooth="yes"/>
      <point x="166" y="605"/>
      <point x="201" y="570"/>
      <point x="201" y="526" type="curve" smooth="yes"/>
      <point x="201" y="482"/>
      <point x="166" y="447"/>
      <point x="122" y="447" type="curve" smooth="yes"/>
      <point x="78" y="447"/>
      <point x="43" y="482"/>
    </contour>
    <contour>
      <point x="90" y="526" type="curve" smooth="yes"/>
      <point x="90" y="508"/>
      <point x="104" y="494"/>
      <point x="122" y="494" type="curve" smooth="yes"/>
      <point x="140" y="494"/>
      <point x="154" y="508"/>
      <point x="154" y="526" type="curve" smooth="yes"/>
      <point x="154" y="544"/>
      <point x="140" y="558"/>
      <point x="122" y="558" type="curve" smooth="yes"/>
      <point x="104" y="558"/>
      <point x="90" y="544"/>
    </contour>
  </outline>
</glyph>
<glyph name="ogonek" format="1">
  <advance width="219"/>
  <unicode hex="02DB"/>
  <outline>
    <contour>
      <point x="106" y="-183" type="line"/>
      <point x="-6" y="-183"/>
      <point x="-46" y="-104"/>
      <point x="-46" y="-40" type="curve"/>
      <point x="15" y="-40" type="line"/>
      <point x="15" y="-95"/>
      <point x="56" y="-123"/>
      <point x="106" y="-123" type="curve"/>
    </contour>
  </outline>
</glyph>
<glyph name="tilde" format="1">
  <advance width="333"/>
  <unicode hex="02DC"/>
  <outline>
    <contour>
      <point x="26" y="123" type="curve"/>
      <point x="26" y="188" type="line"/>
      <point x="54" y="204"/>
      <point x="77" y="210"/>
      <point x="96" y="210" type="curve" smooth="yes"/>
      <point x="147" y="210"/>
      <point x="176" y="169"/>
      <point x="227" y="169" type="curve" smooth="yes"/>
      <point x="249" y="169"/>
      <point x="274" y="177"/>
      <point x="307" y="197" type="curve"/>
      <point x="307" y="133" type="line"/>
      <point x="273" y="112"/>
      <point x="246" y="105"/>
      <point x="223" y="105" type="curve" smooth="yes"/>
      <point x="170" y="105"/>
      <point x="140" y="145"/>
      <point x="92" y="145" type="curve" smooth="yes"/>
      <point x="74" y="145"/>
      <point x="52" y="139"/>
    </contour>
  </outline>
</glyph>
<glyph name="pi" format="1">
  <advance width="421"/>
  <unicode hex="03C0"/>
  <outline>
    <contour>
      <point x="-28" y="442" type="line"/>
      <point x="-28" y="516" type="line"/>
      <point x="452" y="516" type="line"/>
      <point x="452" y="442" type="line"/>
      <point x="373" y="442" type="line"/>
      <point x="373" y="142" type="line" smooth="yes"/>
      <point x="373" y="74"/>
      <point x="402" y="64"/>
      <point x="438" y="64" type="curve"/>
      <point x="438" y="-4" type="line"/>
      <point x="339" y="-4"/>
      <point x="303" y="64"/>
      <point x="303" y="133" type="curve" smooth="yes"/>
      <point x="303" y="442" type="line"/>
      <point x="124" y="442" type="line"/>
      <point x="124" y="-2" type="line"/>
      <point x="51" y="-2" type="line"/>
      <point x="51" y="442" type="line"/>
    </contour>
  </outline>
</glyph>
<glyph name="tml_Visarga" format="1">
  <advance width="386"/>
  <unicode hex="0B83"/>
  <outline>
    <contour>
      <point x="297" y="119" type="curve" smooth="yes"/>
      <point x="297" y="169"/>
      <point x="337" y="210"/>
      <point x="387" y="210" type="curve" smooth="yes"/>
      <point x="437" y="210"/>
      <point x="477" y="169"/>
      <point x="477" y="119" type="curve" smooth="yes"/>
      <point x="477" y="69"/>
      <point x="437" y="29"/>
      <point x="387" y="29" type="curve" smooth="yes"/>
      <point x="337" y="29"/>
      <point x="297" y="69"/>
    </contour>
    <contour>
      <point x="366" y="350" type="curve" smooth="yes"/>
      <point x="366" y="400"/>
      <point x="407" y="441"/>
      <point x="457" y="441" type="curve" smooth="yes"/>
      <point x="507" y="441"/>
      <point x="547" y="400"/>
      <point x="547" y="350" type="curve" smooth="yes"/>
      <point x="547" y="300"/>
      <point x="507" y="260"/>
      <point x="457" y="260" type="curve" smooth="yes"/>
      <point x="407" y="260"/>
      <point x="366" y="300"/>
    </contour>
    <contour>
      <point x="139" y="270" type="curve" smooth="yes"/>
      <point x="139" y="320"/>
      <point x="179" y="360"/>
      <point x="229" y="360" type="curve" smooth="yes"/>
      <point x="279" y="360"/>
      <point x="319" y="320"/>
      <point x="319" y="270" type="curve" smooth="yes"/>
      <point x="319" y="220"/>
      <point x="279" y="179"/>
      <point x="229" y="179" type="curve" smooth="yes"/>
      <point x="179" y="179"/>
      <point x="139" y="220"/>
    </contour>
  </outline>
</glyph>
<glyph name="tml_A" format="1">
  <advance width="1013"/>
  <unicode hex="0B85"/>
  <outline>
    <contour>
      <point x="285" y="486" type="curve" smooth="yes"/>
      <point x="285" y="606"/>
      <point x="387" y="695"/>
      <point x="542" y="695" type="curve" smooth="yes"/>
      <point x="707" y="695"/>
      <point x="803" y="585"/>
      <point x="803" y="393" type="curve"/>
      <point x="803" y="240" type="line"/>
      <point x="729" y="240" type="line"/>
      <point x="729" y="396" type="line" smooth="yes"/>
      <point x="729" y="550"/>
      <point x="659" y="621"/>
      <point x="542" y="621" type="curve" smooth="yes"/>
      <point x="426" y="621"/>
      <point x="358" y="561"/>
      <point x="358" y="486" type="curve" smooth="yes"/>
      <point x="358" y="411"/>
      <point x="408" y="363"/>
      <point x="476" y="363" type="curve" smooth="yes"/>
      <point x="536" y="363"/>
      <point x="591" y="399"/>
      <point x="591" y="466" type="curve" smooth="yes"/>
      <point x="645" y="409" type="line" smooth="yes"/>
      <point x="640" y="346"/>
      <point x="565" y="289"/>
      <point x="476" y="289" type="curve" smooth="yes"/>
      <point x="386" y="289"/>
      <point x="285" y="352"/>
    </contour>
    <contour>
      <point x="467" y="175" type="curve"/>
      <point x="467" y="248" type="line"/>
      <point x="543" y="248"/>
      <point x="726" y="248"/>
      <point x="803" y="248" type="curve"/>
      <point x="804" y="67" type="line"/>
      <point x="804" y="-35"/>
      <point x="741" y="-127"/>
      <point x="631" y="-127" type="curve" smooth="yes"/>
      <point x="469" y="-127" type="line" smooth="yes"/>
      <point x="469" y="-53" type="line"/>
      <point x="627" y="-53" type="line" smooth="yes"/>
      <point x="691" y="-52"/>
      <point x="729" y="-4"/>
      <point x="729" y="68" type="curve"/>
      <point x="729" y="175" type="line"/>
      <point x="691" y="175"/>
      <point x="505" y="175"/>
    </contour>
    <contour>
      <point x="63" y="72" type="curve" smooth="yes"/>
      <point x="63" y="188"/>
      <point x="147" y="249"/>
      <point x="277" y="249" type="curve" smooth="yes"/>
      <point x="413" y="249" type="line"/>
      <point x="413" y="174" type="line"/>
      <point x="259" y="174" type="line" smooth="yes"/>
      <point x="235" y="174"/>
      <point x="136" y="168"/>
      <point x="136" y="72" type="curve" smooth="yes"/>
      <point x="136" y="-21"/>
      <point x="215" y="-53"/>
      <point x="269" y="-53" type="curve" smooth="yes"/>
      <point x="414" y="-53" type="line"/>
      <point x="414" y="-127" type="line"/>
      <point x="266" y="-127" type="line" smooth="yes"/>
      <point x="154" y="-127"/>
      <point x="63" y="-47"/>
    </contour>
    <contour>
      <point x="762" y="175" type="line"/>
      <point x="762" y="248" type="line"/>
      <point x="879" y="248" type="line"/>
      <point x="879" y="175" type="line"/>
    </contour>
    <contour>
      <point x="877" y="-107" type="line"/>
      <point x="877" y="578" type="line"/>
      <point x="951" y="578" type="line"/>
      <point x="951" y="-107" type="line"/>
    </contour>
  </outline>
</glyph>
<glyph name="tml_Aa" format="1">
  <advance width="1221"/>
  <unicode hex="0B86"/>
  <outline>
    <contour>
      <point x="683" y="-161" type="line"/>
      <point x="975" y="-160" type="line" smooth="yes"/>
      <point x="1050" y="-160"/>
      <point x="1099" y="-139"/>
      <point x="1099" y="-45" type="curve" smooth="yes"/>
      <point x="1099" y="21" type="line" smooth="yes"/>
      <point x="1099" y="102"/>
      <point x="1073" y="117"/>
      <point x="1006" y="117" type="curve" smooth="yes"/>
      <point x="1006" y="190" type="line"/>
      <point x="1097" y="190"/>
      <point x="1173" y="168"/>
      <point x="1173" y="21" type="curve" smooth="yes"/>
      <point x="1173" y="-42" type="line" smooth="yes"/>
      <point x="1173" y="-146"/>
      <point x="1133" y="-234"/>
      <point x="960" y="-234" type="curve" smooth="yes"/>
      <point x="683" y="-234" type="line"/>
    </contour>
    <component base="tml_A"/>
  </outline>
</glyph>
<glyph name="tml_Ii" format="1">
  <advance width="631"/>
  <unicode hex="0B88"/>
  <outline>
    <contour>
      <point x="452" y="251" type="curve" smooth="yes"/>
      <point x="452" y="280"/>
      <point x="476" y="305"/>
      <point x="505" y="305" type="curve" smooth="yes"/>
      <point x="534" y="305"/>
      <point x="558" y="280"/>
      <point x="558" y="251" type="curve" smooth="yes"/>
      <point x="558" y="222"/>
      <point x="534" y="198"/>
      <point x="505" y="198" type="curve" smooth="yes"/>
      <point x="476" y="198"/>
      <point x="452" y="222"/>
    </contour>
    <contour>
      <point x="190" y="252" type="curve" smooth="yes"/>
      <point x="190" y="281"/>
      <point x="214" y="305"/>
      <point x="243" y="305" type="curve" smooth="yes"/>
      <point x="272" y="305"/>
      <point x="296" y="281"/>
      <point x="296" y="252" type="curve" smooth="yes"/>
      <point x="296" y="223"/>
      <point x="272" y="199"/>
      <point x="243" y="199" type="curve" smooth="yes"/>
      <point x="214" y="199"/>
      <point x="190" y="223"/>
    </contour>
    <contour>
      <point x="347" y="0" type="line"/>
      <point x="421" y="0" type="line"/>
      <point x="421" y="594" type="line"/>
      <point x="347" y="594" type="line"/>
    </contour>
    <contour>
      <point x="64" y="1" type="line"/>
      <point x="64" y="593" type="line"/>
      <point x="137" y="594" type="line"/>
      <point x="137" y="1" type="line"/>
    </contour>
    <contour>
      <point x="270" y="521" type="line"/>
      <point x="563" y="521" type="line"/>
      <point x="563" y="596" type="line"/>
      <point x="270" y="596" type="line"/>
    </contour>
    <contour>
      <point x="64" y="521" type="line"/>
      <point x="64" y="596" type="line"/>
      <point x="216" y="596" type="line"/>
      <point x="216" y="521" type="line"/>
    </contour>
  </outline>
</glyph>
<glyph name="tml_U" format="1">
  <advance width="1031"/>
  <unicode hex="0B89"/>
  <outline>
    <contour>
      <point x="40" y="472" type="curve" smooth="yes"/>
      <point x="40" y="593"/>
      <point x="130" y="696"/>
      <point x="281" y="696" type="curve" smooth="yes"/>
      <point x="435" y="696"/>
      <point x="553" y="598"/>
      <point x="553" y="457" type="curve" smooth="yes"/>
      <point x="553" y="430" type="line"/>
      <point x="479" y="430" type="line"/>
      <point x="479" y="457" type="line" smooth="yes"/>
      <point x="479" y="572"/>
      <point x="371" y="622"/>
      <point x="281" y="622" type="curve" smooth="yes"/>
      <point x="172" y="622"/>
      <point x="113" y="550"/>
      <point x="113" y="471" type="curve" smooth="yes"/>
      <point x="114" y="405"/>
      <point x="160" y="359"/>
      <point x="227" y="359" type="curve" smooth="yes"/>
      <point x="297" y="359"/>
      <point x="332" y="444"/>
      <point x="317" y="504" type="curve"/>
      <point x="391" y="504" type="line"/>
      <point x="413" y="388"/>
      <point x="327" y="285"/>
      <point x="228" y="285" type="curve" smooth="yes"/>
      <point x="136" y="285"/>
      <point x="40" y="345"/>
    </contour>
    <contour>
      <point x="260" y="0" type="line"/>
      <point x="260" y="72" type="line"/>
      <point x="992" y="72" type="line"/>
      <point x="992" y="0" type="line"/>
    </contour>
    <contour>
      <point x="58" y="72" type="curve"/>
      <point x="206" y="72" type="line"/>
      <point x="206" y="0" type="line"/>
      <point x="117" y="0" type="line" smooth="yes"/>
      <point x="59" y="0"/>
      <point x="58" y="32"/>
    </contour>
    <contour>
      <point x="58" y="65" type="line" smooth="yes"/>
      <point x="58" y="148" type="line" smooth="yes"/>
      <point x="58" y="198"/>
      <point x="73" y="216"/>
      <point x="123" y="216" type="curve" smooth="yes"/>
      <point x="337" y="216" type="line" smooth="yes"/>
      <point x="453" y="217"/>
      <point x="479" y="250"/>
      <point x="479" y="339" type="curve" smooth="yes"/>
      <point x="479" y="376" type="line"/>
      <point x="553" y="376" type="line"/>
      <point x="553" y="339" type="line" smooth="yes"/>
      <point x="554" y="245"/>
      <point x="525" y="142"/>
      <point x="349" y="142" type="curve" smooth="yes"/>
      <point x="328" y="142"/>
      <point x="137" y="141"/>
      <point x="133" y="141" type="curve"/>
      <point x="133" y="128"/>
      <point x="133" y="65"/>
      <point x="133" y="65" type="curve" smooth="yes"/>
    </contour>
    <contour>
      <point x="553" y="457" type="move"/>
    </contour>
  </outline>
</glyph>
<glyph name="tml_Ka" format="1">
  <advance width="818"/>
  <unicode hex="0B95"/>
  <outline>
    <contour>
      <point x="331" y="-11" type="curve"/>
      <point x="331" y="63" type="line"/>
      <point x="403" y="63"/>
      <point x="453" y="102"/>
      <point x="453" y="189" type="curve" smooth="yes"/>
      <point x="453" y="554" type="line"/>
      <point x="526" y="554" type="line"/>
      <point x="526" y="191" type="line" smooth="yes"/>
      <point x="526" y="95"/>
      <point x="480" y="-11"/>
    </contour>
    <contour>
      <point x="197" y="348" type="line"/>
      <point x="197" y="552" type="line"/>
      <point x="271" y="552" type="line"/>
      <point x="270" y="348" type="line"/>
    </contour>
    <contour>
      <point x="389" y="520" type="line"/>
      <point x="389" y="595" type="line"/>
      <point x="658" y="595" type="line"/>
      <point x="658" y="520" type="line"/>
    </contour>
    <contour>
      <point x="197" y="520" type="line"/>
      <point x="197" y="595" type="line"/>
      <point x="335" y="595" type="line"/>
      <point x="335" y="520" type="line"/>
    </contour>
    <contour>
      <point x="72" y="169" type="curve" smooth="yes"/>
      <point x="72" y="223" type="line" smooth="yes"/>
      <point x="72" y="357"/>
      <point x="177" y="371"/>
      <point x="234" y="371" type="curve" smooth="yes"/>
      <point x="590" y="371" type="line" smooth="yes"/>
      <point x="696" y="371"/>
      <point x="762" y="338"/>
      <point x="762" y="218" type="curve" smooth="yes"/>
      <point x="762" y="168" type="line" smooth="yes"/>
      <point x="762" y="55"/>
      <point x="680" y="2"/>
      <point x="546" y="2" type="curve"/>
      <point x="547" y="76" type="line" smooth="yes"/>
      <point x="633" y="76"/>
      <point x="689" y="89"/>
      <point x="689" y="180" type="curve" smooth="yes"/>
      <point x="689" y="281"/>
      <point x="665" y="297"/>
      <point x="586" y="297" type="curve" smooth="yes"/>
      <point x="237" y="297" type="line" smooth="yes"/>
      <point x="159" y="297"/>
      <point x="145" y="258"/>
      <point x="145" y="188" type="curve" smooth="yes"/>
      <point x="145" y="102"/>
      <point x="189" y="63"/>
      <point x="277" y="63" type="curve"/>
      <point x="277" y="-11" type="line"/>
      <point x="139" y="-11"/>
      <point x="72" y="75"/>
    </contour>
  </outline>
</glyph>
<glyph name="tml_Nga" format="1">
  <advance width="895"/>
  <unicode hex="0B99"/>
  <outline>
    <contour>
      <point x="758" y="0" type="line"/>
      <point x="758" y="595" type="line"/>
      <point x="832" y="595" type="line"/>
      <point x="832" y="0" type="line"/>
    </contour>
    <contour>
      <point x="333" y="0" type="line"/>
      <point x="333" y="74" type="line"/>
      <point x="705" y="74" type="line"/>
      <point x="705" y="0" type="line"/>
    </contour>
    <contour>
      <point x="275" y="0" type="line"/>
      <point x="275" y="74" type="line"/>
      <point x="304" y="74"/>
      <point x="386" y="74"/>
      <point x="445" y="74" type="curve" smooth="yes"/>
      <point x="507" y="74"/>
      <point x="528" y="93"/>
      <point x="528" y="132" type="curve" smooth="yes"/>
      <point x="528" y="219" type="line" smooth="yes"/>
      <point x="528" y="274"/>
      <point x="483" y="280"/>
      <point x="433" y="280" type="curve" smooth="yes"/>
      <point x="433" y="354" type="line"/>
      <point x="519" y="354"/>
      <point x="602" y="322"/>
      <point x="602" y="229" type="curve" smooth="yes"/>
      <point x="602" y="115" type="line" smooth="yes"/>
      <point x="602" y="37"/>
      <point x="531" y="0"/>
      <point x="454" y="0" type="curve" smooth="yes"/>
    </contour>
    <contour>
      <point x="305" y="114" type="line"/>
      <point x="379" y="114" type="line"/>
      <point x="379" y="589" type="line"/>
      <point x="305" y="589" type="line"/>
    </contour>
    <contour>
      <point x="64" y="0" type="line"/>
      <point x="137" y="0" type="line"/>
      <point x="137" y="591" type="line"/>
      <point x="64" y="591" type="line"/>
    </contour>
    <contour>
      <point x="64" y="595" type="line"/>
      <point x="65" y="521" type="line"/>
      <point x="488" y="521" type="line"/>
      <point x="488" y="595" type="line"/>
    </contour>
  </outline>
</glyph>
<glyph name="tml_Ca" format="1">
  <advance width="681"/>
  <unicode hex="0B9A"/>
  <outline>
    <contour>
      <point x="40" y="166" type="curve" smooth="yes"/>
      <point x="40" y="205" type="line" smooth="yes"/>
      <point x="40" y="286"/>
      <point x="104" y="371"/>
      <point x="241" y="371" type="curve" smooth="yes"/>
      <point x="597" y="371" type="line"/>
      <point x="597" y="297" type="line"/>
      <point x="239" y="297" type="line" smooth="yes"/>
      <point x="180" y="297"/>
      <point x="113" y="283"/>
      <point x="113" y="188" type="curve" smooth="yes"/>
      <point x="113" y="86"/>
      <point x="173" y="73"/>
      <point x="246" y="73" type="curve"/>
      <point x="246" y="-1" type="line"/>
      <point x="79" y="0"/>
      <point x="40" y="103"/>
    </contour>
    <contour>
      <point x="299" y="-1" type="curve"/>
      <point x="299" y="73" type="line"/>
      <point x="382" y="73"/>
      <point x="421" y="116"/>
      <point x="421" y="187" type="curve" smooth="yes"/>
      <point x="421" y="588" type="line"/>
      <point x="495" y="588" type="line"/>
      <point x="495" y="191" type="line" smooth="yes"/>
      <point x="495" y="95"/>
      <point x="448" y="-1"/>
    </contour>
    <contour>
      <point x="165" y="348" type="line"/>
      <point x="165" y="586" type="line"/>
      <point x="239" y="586" type="line"/>
      <point x="238" y="348" type="line"/>
    </contour>
    <contour>
      <point x="358" y="520" type="line"/>
      <point x="358" y="595" type="line"/>
      <point x="642" y="595" type="line"/>
      <point x="642" y="520" type="line"/>
    </contour>
    <contour>
      <point x="165" y="520" type="line"/>
      <point x="165" y="595" type="line"/>
      <point x="304" y="595" type="line"/>
      <point x="304" y="520" type="line"/>
    </contour>
  </outline>
</glyph>
<glyph name="tml_Tta" format="1">
  <advance width="635"/>
  <unicode hex="0B9F"/>
  <outline>
    <contour>
      <point x="66" y="0" type="line"/>
      <point x="66" y="74" type="line"/>
      <point x="578" y="74" type="line"/>
      <point x="578" y="0" type="line"/>
    </contour>
    <contour>
      <point x="66" y="128" type="line"/>
      <point x="66" y="596" type="line"/>
      <point x="140" y="596" type="line"/>
      <point x="140" y="128" type="line"/>
    </contour>
  </outline>
</glyph>
<glyph name="tml_Nna" format="1">
  <advance width="1342"/>
  <unicode hex="0BA3"/>
  <outline>
    <contour>
      <point x="557" y="162" type="curve"/>
      <point x="557" y="288" type="line" smooth="yes"/>
      <point x="557" y="587"/>
      <point x="805" y="601"/>
      <point x="865" y="601" type="curve"/>
      <point x="865" y="527" type="line"/>
      <point x="740" y="527"/>
      <point x="631" y="477"/>
      <point x="631" y="290" type="curve" smooth="yes"/>
      <point x="631" y="163" type="line" smooth="yes"/>
      <point x="631" y="110"/>
      <point x="646" y="68"/>
      <point x="679" y="68" type="curve"/>
      <point x="679" y="-6" type="line" smooth="yes"/>
      <point x="599" y="-6"/>
      <point x="557" y="77"/>
    </contour>
    <contour>
      <point x="536" y="528" type="curve"/>
      <point x="536" y="601" type="line"/>
      <point x="626" y="601"/>
      <point x="854" y="591"/>
      <point x="854" y="301" type="curve" smooth="yes"/>
      <point x="854" y="162" type="line" smooth="yes"/>
      <point x="854" y="70"/>
      <point x="814" y="-6"/>
      <point x="732" y="-6" type="curve"/>
      <point x="732" y="68" type="line" smooth="yes"/>
      <point x="768" y="68"/>
      <point x="780" y="109"/>
      <point x="780" y="162" type="curve" smooth="yes"/>
      <point x="780" y="299" type="line" smooth="yes"/>
      <point x="780" y="455"/>
      <point x="705" y="528"/>
    </contour>
    <contour>
      <point x="197" y="161" type="curve"/>
      <point x="197" y="110"/>
      <point x="217" y="111"/>
      <point x="257" y="111" type="curve" smooth="yes"/>
      <point x="257" y="235"/>
      <point x="367" y="260"/>
      <point x="394" y="260" type="curve"/>
      <point x="377" y="260"/>
      <point x="357" y="230"/>
      <point x="357" y="286" type="curve" smooth="yes"/>
      <point x="321" y="286"/>
      <point x="270" y="366"/>
      <point x="270" y="290" type="curve" smooth="yes"/>
      <point x="270" y="356"/>
      <point x="290" y="402"/>
      <point x="396" y="403" type="curve"/>
      <point x="396" y="398"/>
      <point x="395" y="408"/>
      <point x="405" y="408" type="curve"/>
      <point x="361" y="408"/>
      <point x="256" y="336"/>
      <point x="256" y="171" type="curve" smooth="yes"/>
      <point x="217" y="171"/>
      <point x="197" y="126"/>
    </contour>
    <contour>
      <point x="261" y="430" type="curve"/>
      <point x="259" y="437"/>
      <point x="273" y="497"/>
      <point x="284" y="497" type="curve"/>
      <point x="383" y="497"/>
      <point x="493" y="458"/>
      <point x="493" y="295" type="curve" smooth="yes"/>
      <point x="493" y="161" type="line" smooth="yes"/>
      <point x="493" y="66"/>
      <point x="451" y="-7"/>
      <point x="372" y="-7" type="curve"/>
      <point x="372" y="67" type="line" smooth="yes"/>
      <point x="402" y="67"/>
      <point x="419" y="101"/>
      <point x="419" y="161" type="curve" smooth="yes"/>
      <point x="419" y="291" type="line" smooth="yes"/>
      <point x="419" y="400"/>
      <point x="367" y="429"/>
    </contour>
    <contour>
      <point x="446" y="161" type="curve"/>
      <point x="446" y="126"/>
      <point x="466" y="169"/>
      <point x="505" y="169" type="curve" smooth="yes"/>
      <point x="505" y="346"/>
      <point x="645" y="408"/>
      <point x="677" y="407" type="curve"/>
      <point x="666" y="407"/>
      <point x="667" y="397"/>
      <point x="667" y="402" type="curve"/>
      <point x="582" y="402"/>
      <point x="519" y="401"/>
      <point x="519" y="289" type="curve" smooth="yes"/>
      <point x="519" y="365"/>
      <point x="557" y="287"/>
      <point x="590" y="287" type="curve" smooth="yes"/>
      <point x="590" y="236"/>
      <point x="608" y="262"/>
      <point x="628" y="262" type="curve"/>
      <point x="600" y="262"/>
      <point x="507" y="238"/>
      <point x="507" y="113" type="curve" smooth="yes"/>
      <point x="467" y="113"/>
      <point x="446" y="111"/>
    </contour>
    <contour>
      <point x="516" y="473" type="curve"/>
      <point x="515" y="487"/>
      <point x="527" y="534"/>
      <point x="551" y="536" type="curve"/>
      <point x="612" y="536"/>
      <point x="742" y="504"/>
      <point x="742" y="295" type="curve" smooth="yes"/>
      <point x="742" y="161" type="line" smooth="yes"/>
      <point x="742" y="69"/>
      <point x="699" y="-6"/>
      <point x="620" y="-6" type="curve"/>
      <point x="620" y="67" type="line" smooth="yes"/>
      <point x="654" y="67"/>
      <point x="669" y="110"/>
      <point x="669" y="161" type="curve" smooth="yes"/>
      <point x="669" y="298" type="line" smooth="yes"/>
      <point x="669" y="385"/>
      <point x="638" y="473"/>
    </contour>
    <contour>
      <point x="1123" y="528" type="line"/>
      <point x="1123" y="601" type="line"/>
      <point x="1303" y="601" type="line"/>
      <point x="1303" y="527" type="line"/>
    </contour>
    <contour>
      <point x="1132" y="1" type="line"/>
      <point x="1132" y="570" type="line"/>
      <point x="1206" y="570" type="line"/>
      <point x="1206" y="1" type="line"/>
    </contour>
  </outline>
</glyph>
<glyph name="tml_Na" format="1">
  <advance width="681"/>
  <unicode hex="0BA8"/>
  <outline>
    <contour>
      <point x="61" y="-257" type="line"/>
      <point x="61" y="-115"/>
      <point x="119" y="-83"/>
      <point x="205" y="-83" type="curve" smooth="yes"/>
      <point x="445" y="-83" type="line" smooth="yes"/>
      <point x="511" y="-83"/>
      <point x="545" y="-51"/>
      <point x="545" y="25" type="curve" smooth="yes"/>
      <point x="546" y="206" type="line" smooth="yes"/>
      <point x="547" y="297"/>
      <point x="511" y="301"/>
      <point x="466" y="301" type="curve" smooth="yes"/>
      <point x="466" y="375" type="line"/>
      <point x="542" y="375"/>
      <point x="620" y="353"/>
      <point x="620" y="206" type="curve" smooth="yes"/>
      <point x="620" y="25" type="line" smooth="yes"/>
      <point x="620" y="-41"/>
      <point x="599" y="-157"/>
      <point x="446" y="-157" type="curve" smooth="yes"/>
      <point x="186" y="-157" type="line" smooth="yes"/>
      <point x="152" y="-157"/>
      <point x="138" y="-182"/>
      <point x="138" y="-257" type="curve"/>
    </contour>
    <contour>
      <point x="337" y="0" type="line"/>
      <point x="413" y="0" type="line"/>
      <point x="412" y="588" type="line"/>
      <point x="338" y="588" type="line"/>
    </contour>
    <contour>
      <point x="95" y="0" type="line"/>
      <point x="169" y="0" type="line"/>
      <point x="169" y="590" type="line"/>
      <point x="95" y="590" type="line"/>
    </contour>
    <contour>
      <point x="95" y="595" type="line"/>
      <point x="96" y="522" type="line"/>
      <point x="556" y="522" type="line"/>
      <point x="556" y="595" type="line"/>
    </contour>
  </outline>
</glyph>
<glyph name="tml_Nnna" format="1">
  <advance width="980"/>
  <unicode hex="0BA9"/>
  <outline>
    <contour>
      <point x="400" y="155" type="curve"/>
      <point x="400" y="294" type="line" smooth="yes"/>
      <point x="400" y="593"/>
      <point x="650" y="606"/>
      <point x="700" y="605" type="curve"/>
      <point x="700" y="532" type="line"/>
      <point x="589" y="532"/>
      <point x="474" y="483"/>
      <point x="474" y="296" type="curve" smooth="yes"/>
      <point x="474" y="156" type="line" smooth="yes"/>
      <point x="474" y="103"/>
      <point x="489" y="61"/>
      <point x="521" y="61" type="curve"/>
      <point x="521" y="-13" type="line" smooth="yes"/>
      <point x="442" y="-13"/>
      <point x="400" y="70"/>
    </contour>
    <contour>
      <point x="366" y="531" type="curve"/>
      <point x="366" y="605" type="line"/>
      <point x="459" y="605"/>
      <point x="697" y="597"/>
      <point x="697" y="307" type="curve" smooth="yes"/>
      <point x="697" y="155" type="line" smooth="yes"/>
      <point x="697" y="63"/>
      <point x="657" y="-13"/>
      <point x="575" y="-13" type="curve"/>
      <point x="575" y="61" type="line" smooth="yes"/>
      <point x="611" y="61"/>
      <point x="623" y="102"/>
      <point x="623" y="155" type="curve" smooth="yes"/>
      <point x="623" y="305" type="line" smooth="yes"/>
      <point x="623" y="461"/>
      <point x="537" y="530"/>
    </contour>
    <contour>
      <point x="40" y="154" type="line"/>
      <point x="40" y="69"/>
      <point x="82" y="-14"/>
      <point x="163" y="-14" type="curve" smooth="yes"/>
      <point x="163" y="60" type="line"/>
      <point x="135" y="60"/>
      <point x="114" y="94"/>
      <point x="114" y="155" type="curve" smooth="yes"/>
      <point x="114" y="296" type="line" smooth="yes"/>
      <point x="113" y="439"/>
      <point x="172" y="531"/>
      <point x="312" y="531" type="curve"/>
      <point x="312" y="605" type="line"/>
      <point x="239" y="605"/>
      <point x="40" y="586"/>
      <point x="40" y="296" type="curve" smooth="yes"/>
    </contour>
    <contour>
      <point x="191" y="381" type="curve"/>
      <point x="188" y="403"/>
      <point x="214" y="435"/>
      <point x="248" y="437" type="curve"/>
      <point x="317" y="437"/>
      <point x="339" y="378"/>
      <point x="339" y="296" type="curve" smooth="yes"/>
      <point x="339" y="154" type="line" smooth="yes"/>
      <point x="339" y="60"/>
      <point x="297" y="-14"/>
      <point x="216" y="-14" type="curve"/>
      <point x="216" y="60" type="line" smooth="yes"/>
      <point x="248" y="60"/>
      <point x="265" y="94"/>
      <point x="265" y="154" type="curve" smooth="yes"/>
      <point x="265" y="296" type="line" smooth="yes"/>
      <point x="265" y="350"/>
      <point x="250" y="381"/>
    </contour>
    <contour>
      <point x="753" y="532" type="line"/>
      <point x="753" y="605" type="line"/>
      <point x="941" y="605" type="line"/>
      <point x="941" y="531" type="line"/>
    </contour>
    <contour>
      <point x="771" y="0" type="line"/>
      <point x="771" y="573" type="line"/>
      <point x="845" y="573" type="line"/>
      <point x="845" y="0" type="line"/>
    </contour>
  </outline>
</glyph>
<glyph name="tml_Pa" format="1">
  <advance width="538"/>
  <unicode hex="0BAA"/>
  <outline>
    <contour>
      <point x="57" y="58" type="line"/>
      <point x="57" y="595" type="line"/>
      <point x="131" y="595" type="line"/>
      <point x="131" y="58" type="line"/>
    </contour>
    <contour>
      <point x="407" y="55" type="line"/>
      <point x="481" y="55" type="line"/>
      <point x="481" y="595" type="line"/>
      <point x="407" y="595" type="line"/>
    </contour>
    <contour>
      <point x="298" y="0" type="line"/>
      <point x="481" y="0" type="line"/>
      <point x="481" y="74" type="line"/>
      <point x="298" y="74" type="line"/>
    </contour>
    <contour>
      <point x="57" y="0" type="line"/>
      <point x="57" y="74" type="line"/>
      <point x="242" y="74" type="line"/>
      <point x="242" y="0" type="line"/>
    </contour>
  </outline>
</glyph>
<glyph name="tml_Ma" format="1">
  <advance width="626"/>
  <unicode hex="0BAE"/>
  <outline>
    <contour>
      <point x="435" y="0" type="curve" smooth="yes"/>
      <point x="435" y="74" type="line"/>
      <point x="500" y="74"/>
      <point x="502" y="162"/>
      <point x="502" y="189" type="curve" smooth="yes"/>
      <point x="502" y="434" type="line" smooth="yes"/>
      <point x="502" y="448"/>
      <point x="505" y="531"/>
      <point x="435" y="531" type="curve"/>
      <point x="435" y="605" type="line"/>
      <point x="505" y="605"/>
      <point x="576" y="567"/>
      <point x="576" y="434" type="curve" smooth="yes"/>
      <point x="576" y="197" type="line" smooth="yes"/>
      <point x="576" y="49"/>
      <point x="506" y="0"/>
    </contour>
    <contour>
      <point x="245" y="73" type="line" smooth="yes"/>
      <point x="245" y="434" type="line" smooth="yes"/>
      <point x="244" y="569"/>
      <point x="315" y="605"/>
      <point x="381" y="605" type="curve"/>
      <point x="381" y="531" type="line"/>
      <point x="318" y="531"/>
      <point x="318" y="450"/>
      <point x="318" y="434" type="curve" smooth="yes"/>
      <point x="318" y="73" type="line"/>
    </contour>
    <contour>
      <point x="40" y="58" type="line"/>
      <point x="40" y="595" type="line"/>
      <point x="113" y="595" type="line"/>
      <point x="113" y="58" type="line"/>
    </contour>
    <contour>
      <point x="40" y="0" type="line"/>
      <point x="40" y="74" type="line"/>
      <point x="381" y="74" type="line"/>
      <point x="381" y="0" type="line"/>
    </contour>
  </outline>
</glyph>
<glyph name="tml_Ya" format="1">
  <advance width="677"/>
  <unicode hex="0BAF"/>
  <outline>
    <contour>
      <point x="505" y="0" type="line"/>
      <point x="505" y="72" type="line"/>
      <point x="525" y="72" type="line" smooth="yes"/>
      <point x="550" y="72"/>
      <point x="564" y="80"/>
      <point x="564" y="105" type="curve"/>
      <point x="564" y="595" type="line"/>
      <point x="638" y="595" type="line"/>
      <point x="638" y="0" type="line"/>
    </contour>
    <contour>
      <point x="40" y="140" type="curve" smooth="yes"/>
      <point x="40" y="595" type="line"/>
      <point x="113" y="595" type="line"/>
      <point x="113" y="145" type="line"/>
      <point x="113" y="106"/>
      <point x="142" y="72"/>
      <point x="172" y="72" type="curve" smooth="yes"/>
      <point x="178" y="72" type="line"/>
      <point x="178" y="0" type="line"/>
      <point x="172" y="0" type="line" smooth="yes"/>
      <point x="103" y="0"/>
      <point x="40" y="73"/>
    </contour>
    <contour>
      <point x="232" y="0" type="line"/>
      <point x="232" y="72" type="line"/>
      <point x="238" y="72" type="line" smooth="yes"/>
      <point x="273" y="72"/>
      <point x="318" y="86"/>
      <point x="318" y="134" type="curve"/>
      <point x="318" y="595" type="line"/>
      <point x="392" y="595" type="line"/>
      <point x="392" y="108" type="line" smooth="yes"/>
      <point x="392" y="81"/>
      <point x="404" y="72"/>
      <point x="424" y="72" type="curve" smooth="yes"/>
      <point x="452" y="72" type="line"/>
      <point x="452" y="0" type="line"/>
      <point x="321" y="0" type="line"/>
      <point x="319" y="35" type="line"/>
      <point x="307" y="14"/>
      <point x="276" y="0"/>
      <point x="238" y="0" type="curve" smooth="yes"/>
    </contour>
  </outline>
</glyph>
<glyph name="tml_Ra" format="1">
  <advance width="550"/>
  <unicode hex="0BB0"/>
  <outline>
    <contour>
      <point x="153" y="-177" type="line"/>
      <point x="244" y="-177" type="line"/>
      <point x="396" y="0" type="line" smooth="yes"/>
      <point x="398" y="591" type="line"/>
      <point x="322" y="591" type="line"/>
      <point x="322" y="25" type="line"/>
    </contour>
    <contour>
      <point x="40" y="0" type="line"/>
      <point x="40" y="595" type="line"/>
      <point x="113" y="595" type="line"/>
      <point x="113" y="0" type="line"/>
    </contour>
    <contour>
      <point x="246" y="521" type="line"/>
      <point x="510" y="521" type="line"/>
      <point x="510" y="595" type="line"/>
      <point x="246" y="595" type="line"/>
    </contour>
    <contour>
      <point x="42" y="521" type="line"/>
      <point x="42" y="595" type="line"/>
      <point x="192" y="595" type="line"/>
      <point x="192" y="521" type="line"/>
    </contour>
  </outline>
</glyph>
<glyph name="tml_Rra" format="1">
  <advance width="764"/>
  <unicode hex="0BB1"/>
  <outline>
    <contour>
      <point x="63" y="-256" type="curve"/>
      <point x="137" y="-256" type="line"/>
      <point x="137" y="-158"/>
      <point x="168" y="-132"/>
      <point x="218" y="-132" type="curve" smooth="yes"/>
      <point x="499" y="-132" type="line" smooth="yes"/>
      <point x="621" y="-130"/>
      <point x="669" y="-30"/>
      <point x="669" y="64" type="curve" smooth="yes"/>
      <point x="669" y="475" type="line" smooth="yes"/>
      <point x="669" y="530"/>
      <point x="625" y="606"/>
      <point x="528" y="606" type="curve"/>
      <point x="528" y="532" type="line"/>
      <point x="546" y="532"/>
      <point x="596" y="528"/>
      <point x="596" y="460" type="curve" smooth="yes"/>
      <point x="596" y="57" type="line" smooth="yes"/>
      <point x="596" y="-6"/>
      <point x="569" y="-58"/>
      <point x="489" y="-58" type="curve" smooth="yes"/>
      <point x="221" y="-58" type="line" smooth="yes"/>
      <point x="128" y="-58"/>
      <point x="63" y="-103"/>
    </contour>
    <contour>
      <point x="94" y="0" type="line"/>
      <point x="94" y="479" type="line" smooth="yes"/>
      <point x="94" y="529"/>
      <point x="128" y="606"/>
      <point x="224" y="606" type="curve"/>
      <point x="224" y="532" type="line"/>
      <point x="177" y="532"/>
      <point x="167" y="490"/>
      <point x="167" y="467" type="curve" smooth="yes"/>
      <point x="169" y="0" type="line"/>
    </contour>
    <contour>
      <point x="277" y="532" type="curve"/>
      <point x="277" y="606" type="line"/>
      <point x="323" y="606"/>
      <point x="353" y="595"/>
      <point x="377" y="567" type="curve"/>
      <point x="405" y="598"/>
      <point x="438" y="606"/>
      <point x="477" y="606" type="curve"/>
      <point x="477" y="532" type="line"/>
      <point x="443" y="532"/>
      <point x="412" y="517"/>
      <point x="412" y="454" type="curve" smooth="yes"/>
      <point x="414" y="1" type="line"/>
      <point x="341" y="0" type="line"/>
      <point x="339" y="453" type="line" smooth="yes"/>
      <point x="339" y="513"/>
      <point x="318" y="532"/>
    </contour>
  </outline>
</glyph>
<glyph name="tml_La" format="1">
  <advance width="858"/>
  <unicode hex="0BB2"/>
  <outline>
    <contour>
      <point x="254" y="0" type="curve"/>
      <point x="254" y="74" type="line"/>
      <point x="297" y="74"/>
      <point x="329" y="113"/>
      <point x="329" y="182" type="curve" smooth="yes"/>
      <point x="328" y="252"/>
      <point x="297" y="285"/>
      <point x="254" y="285" type="curve"/>
      <point x="254" y="359" type="line" smooth="yes"/>
      <point x="337" y="359"/>
      <point x="404" y="285"/>
      <point x="404" y="207" type="curve" smooth="yes"/>
      <point x="404" y="164" type="line" smooth="yes"/>
      <point x="405" y="81"/>
      <point x="342" y="0"/>
    </contour>
    <contour>
      <point x="40" y="163" type="curve" smooth="yes"/>
      <point x="40" y="181"/>
      <point x="40" y="173"/>
      <point x="40" y="206" type="curve" smooth="yes"/>
      <point x="39" y="310"/>
      <point x="134" y="359"/>
      <point x="199" y="359" type="curve"/>
      <point x="199" y="285" type="line" smooth="yes"/>
      <point x="165" y="285"/>
      <point x="113" y="260"/>
      <point x="113" y="181" type="curve" smooth="yes"/>
      <point x="113" y="115"/>
      <point x="156" y="74"/>
      <point x="199" y="74" type="curve"/>
      <point x="199" y="0" type="line" smooth="yes"/>
      <point x="105" y="0"/>
      <point x="40" y="89"/>
    </contour>
    <contour>
      <point x="40" y="213" type="curve"/>
      <point x="40" y="311" type="line"/>
      <point x="40" y="450"/>
      <point x="118" y="605"/>
      <point x="265" y="605" type="curve"/>
      <point x="265" y="532" type="line"/>
      <point x="178" y="532"/>
      <point x="118" y="437"/>
      <point x="117" y="315" type="curve" smooth="yes"/>
      <point x="117" y="291"/>
      <point x="42" y="225"/>
    </contour>
    <contour>
      <point x="319" y="532" type="line"/>
      <point x="438" y="532"/>
      <point x="461" y="435"/>
      <point x="461" y="382" type="curve" smooth="yes"/>
      <point x="461" y="150" type="line" smooth="yes"/>
      <point x="461" y="72"/>
      <point x="522" y="0"/>
      <point x="613" y="0" type="curve"/>
      <point x="613" y="75" type="line"/>
      <point x="572" y="75"/>
      <point x="536" y="108"/>
      <point x="536" y="151" type="curve" smooth="yes"/>
      <point x="536" y="377" type="line" smooth="yes"/>
      <point x="535" y="471"/>
      <point x="485" y="606"/>
      <point x="319" y="606" type="curve"/>
    </contour>
    <contour>
      <point x="646" y="594" type="curve"/>
      <point x="646" y="520" type="line"/>
      <point x="736" y="520"/>
      <point x="746" y="476"/>
      <point x="746" y="422" type="curve"/>
      <point x="746" y="154" type="line"/>
      <point x="746" y="118"/>
      <point x="725" y="75"/>
      <point x="666" y="75" type="curve"/>
      <point x="666" y="0" type="line"/>
      <point x="768" y="0"/>
      <point x="820" y="75"/>
      <point x="820" y="154" type="curve" smooth="yes"/>
      <point x="820" y="424" type="line" smooth="yes"/>
      <point x="820" y="541"/>
      <point x="766" y="595"/>
    </contour>
  </outline>
</glyph>
<glyph name="tml_Llla" format="1">
  <advance width="626"/>
  <unicode hex="0BB4"/>
  <outline>
    <contour>
      <point x="72" y="-67" type="line"/>
      <point x="72" y="-191"/>
      <point x="194" y="-260"/>
      <point x="329" y="-165" type="curve"/>
      <point x="299" y="-162"/>
      <point x="266" y="-139"/>
      <point x="261" y="-123" type="curve"/>
      <point x="231" y="-154"/>
      <point x="147" y="-146"/>
      <point x="146" y="-67" type="curve"/>
    </contour>
    <contour>
      <point x="245" y="1" type="curve"/>
      <point x="318" y="1" type="line"/>
      <point x="318" y="-78"/>
      <point x="387" y="-72"/>
      <point x="515" y="-72" type="curve"/>
      <point x="515" y="-146" type="line" smooth="yes"/>
      <point x="431" y="-145" type="line"/>
      <point x="267" y="-146"/>
      <point x="245" y="-60"/>
    </contour>
    <component base="tml_Ma"/>
  </outline>
</glyph>
<glyph name="tml_Va" format="1">
  <advance width="826"/>
  <unicode hex="0BB5"/>
  <outline>
    <contour>
      <point x="255" y="0" type="curve"/>
      <point x="255" y="74" type="line"/>
      <point x="295" y="74"/>
      <point x="330" y="110"/>
      <point x="330" y="182" type="curve" smooth="yes"/>
      <point x="330" y="256"/>
      <point x="293" y="285"/>
      <point x="255" y="285" type="curve"/>
      <point x="255" y="359" type="line" smooth="yes"/>
      <point x="338" y="359"/>
      <point x="405" y="285"/>
      <point x="405" y="207" type="curve" smooth="yes"/>
      <point x="405" y="164" type="line" smooth="yes"/>
      <point x="406" y="81"/>
      <point x="342" y="0"/>
    </contour>
    <contour>
      <point x="40" y="163" type="curve" smooth="yes"/>
      <point x="40" y="206" type="line" smooth="yes"/>
      <point x="40" y="310"/>
      <point x="135" y="359"/>
      <point x="200" y="359" type="curve"/>
      <point x="200" y="285" type="line" smooth="yes"/>
      <point x="166" y="285"/>
      <point x="114" y="263"/>
      <point x="114" y="181" type="curve" smooth="yes"/>
      <point x="114" y="114"/>
      <point x="157" y="74"/>
      <point x="200" y="74" type="curve"/>
      <point x="200" y="0" type="line" smooth="yes"/>
      <point x="106" y="0"/>
      <point x="40" y="89"/>
    </contour>
    <contour>
      <point x="40" y="213" type="line"/>
      <point x="40" y="303" type="line"/>
      <point x="40" y="454"/>
      <point x="111" y="605"/>
      <point x="279" y="605" type="curve"/>
      <point x="279" y="531" type="line"/>
      <point x="185" y="531"/>
      <point x="121" y="442"/>
      <point x="119" y="326" type="curve" smooth="yes"/>
    </contour>
    <contour>
      <point x="330" y="531" type="line"/>
      <point x="430" y="531"/>
      <point x="488" y="453"/>
      <point x="489" y="354" type="curve"/>
      <point x="489" y="105" type="line" smooth="yes"/>
      <point x="489" y="76"/>
      <point x="475" y="74"/>
      <point x="433" y="74" type="curve"/>
      <point x="433" y="0" type="line"/>
      <point x="657" y="0" type="line"/>
      <point x="657" y="74" type="line"/>
      <point x="563" y="74" type="line"/>
      <point x="563" y="355" type="line"/>
      <point x="562" y="466"/>
      <point x="494" y="605"/>
      <point x="330" y="605" type="curve"/>
    </contour>
    <contour>
      <point x="712" y="0" type="line"/>
      <point x="712" y="595" type="line"/>
      <point x="786" y="595" type="line"/>
      <point x="786" y="0" type="line"/>
    </contour>
  </outline>
</glyph>
<glyph name="tml_Ssa" format="1">
  <advance width="1258"/>
  <unicode hex="0BB7"/>
  <outline>
    <contour>
      <point x="255" y="0" type="curve"/>
      <point x="255" y="74" type="line"/>
      <point x="295" y="74"/>
      <point x="330" y="110"/>
      <point x="330" y="182" type="curve" smooth="yes"/>
      <point x="330" y="256"/>
      <point x="293" y="285"/>
      <point x="255" y="285" type="curve"/>
      <point x="255" y="359" type="line" smooth="yes"/>
      <point x="338" y="359"/>
      <point x="405" y="285"/>
      <point x="405" y="207" type="curve" smooth="yes"/>
      <point x="405" y="164" type="line" smooth="yes"/>
      <point x="406" y="81"/>
      <point x="342" y="0"/>
    </contour>
    <contour>
      <point x="40" y="163" type="curve" smooth="yes"/>
      <point x="40" y="206" type="line" smooth="yes"/>
      <point x="40" y="310"/>
      <point x="135" y="359"/>
      <point x="200" y="359" type="curve"/>
      <point x="200" y="285" type="line" smooth="yes"/>
      <point x="166" y="285"/>
      <point x="114" y="263"/>
      <point x="114" y="181" type="curve" smooth="yes"/>
      <point x="114" y="114"/>
      <point x="157" y="74"/>
      <point x="200" y="74" type="curve"/>
      <point x="200" y="0" type="line" smooth="yes"/>
      <point x="106" y="0"/>
      <point x="40" y="89"/>
    </contour>
    <contour>
      <point x="40" y="213" type="line"/>
      <point x="40" y="303" type="line"/>
      <point x="40" y="454"/>
      <point x="111" y="605"/>
      <point x="279" y="605" type="curve"/>
      <point x="279" y="531" type="line"/>
      <point x="185" y="531"/>
      <point x="121" y="442"/>
      <point x="119" y="326" type="curve" smooth="yes"/>
    </contour>
    <contour>
      <point x="329" y="531" type="line"/>
      <point x="430" y="531"/>
      <point x="488" y="453"/>
      <point x="489" y="354" type="curve"/>
      <point x="489" y="105" type="line" smooth="yes"/>
      <point x="489" y="76"/>
      <point x="475" y="74"/>
      <point x="432" y="74" type="curve"/>
      <point x="432" y="0" type="line"/>
      <point x="822" y="0" type="line"/>
      <point x="822" y="74" type="line"/>
      <point x="563" y="74" type="line"/>
      <point x="563" y="355" type="line"/>
      <point x="562" y="466"/>
      <point x="494" y="605"/>
      <point x="329" y="605" type="curve"/>
    </contour>
    <contour>
      <point x="875" y="533" type="line"/>
      <point x="915" y="533"/>
      <point x="958" y="528"/>
      <point x="958" y="413" type="curve" smooth="yes"/>
      <point x="958" y="137" type="line"/>
      <point x="1032" y="137" type="line"/>
      <point x="1032" y="413" type="line" smooth="yes"/>
      <point x="1032" y="561"/>
      <point x="965" y="607"/>
      <point x="875" y="607" type="curve"/>
    </contour>
    <contour>
      <point x="958" y="99" type="line"/>
      <point x="958" y="-178" type="line"/>
      <point x="1032" y="-178" type="line"/>
      <point x="1032" y="99" type="line"/>
    </contour>
    <contour>
      <point x="875" y="158" type="line"/>
      <point x="1168" y="158" type="line"/>
      <point x="1168" y="232" type="line" smooth="yes"/>
      <point x="875" y="232" type="line"/>
    </contour>
    <contour>
      <point x="664" y="334" type="line" smooth="yes"/>
      <point x="664" y="191"/>
      <point x="731" y="158"/>
      <point x="822" y="158" type="curve"/>
      <point x="822" y="231" type="line"/>
      <point x="783" y="231"/>
      <point x="738" y="236"/>
      <point x="738" y="326" type="curve" smooth="yes"/>
      <point x="738" y="430" type="line" smooth="yes"/>
      <point x="738" y="526"/>
      <point x="785" y="533"/>
      <point x="822" y="533" type="curve"/>
      <point x="822" y="607" type="line"/>
      <point x="731" y="607"/>
      <point x="664" y="570"/>
      <point x="664" y="433" type="curve" smooth="yes"/>
    </contour>
    <contour>
      <point x="1103" y="0" type="line"/>
      <point x="1168" y="0" type="line"/>
      <point x="1168" y="232" type="line"/>
      <point x="1103" y="232" type="line"/>
    </contour>
    <contour>
      <point x="875" y="1" type="line"/>
      <point x="1168" y="0" type="line"/>
      <point x="1168" y="75" type="line"/>
      <point x="875" y="75" type="line"/>
    </contour>
  </outline>
</glyph>
<glyph name="tml_MatraAa" format="1">
  <advance width="569"/>
  <unicode hex="0BBE"/>
  <outline>
    <contour>
      <point x="348" y="0" type="line"/>
      <point x="422" y="0" type="line"/>
      <point x="422" y="593" type="line"/>
      <point x="348" y="593" type="line"/>
    </contour>
    <contour>
      <point x="65" y="0" type="line"/>
      <point x="65" y="592" type="line"/>
      <point x="139" y="593" type="line"/>
      <point x="139" y="0" type="line"/>
    </contour>
    <contour>
      <point x="271" y="521" type="line"/>
      <point x="506" y="521" type="line"/>
      <point x="506" y="595" type="line"/>
      <point x="271" y="595" type="line"/>
    </contour>
    <contour>
      <point x="65" y="521" type="line"/>
      <point x="65" y="595" type="line"/>
      <point x="218" y="595" type="line"/>
      <point x="218" y="521" type="line"/>
    </contour>
  </outline>
</glyph>
<glyph name="tml_MatraI" format="1">
  <advance width="328"/>
  <unicode hex="0BBF"/>
  <outline>
    <contour>
      <point x="441" y="701" type="curve"/>
      <point x="441" y="775" type="line"/>
      <point x="587" y="775"/>
      <point x="632" y="683"/>
      <point x="632" y="582" type="curve" smooth="yes"/>
      <point x="632" y="69" type="line"/>
      <point x="558" y="69" type="line"/>
      <point x="558" y="579" type="line" smooth="yes"/>
      <point x="558" y="670"/>
      <point x="507" y="701"/>
    </contour>
    <contour>
      <point x="205" y="580" type="line"/>
      <point x="205" y="580" type="line"/>
      <point x="205" y="680"/>
      <point x="246" y="775"/>
      <point x="387" y="775" type="curve" smooth="yes"/>
      <point x="387" y="775" type="line"/>
      <point x="387" y="702" type="line" smooth="yes"/>
      <point x="387" y="702" type="line" smooth="yes"/>
      <point x="323" y="702"/>
      <point x="279" y="669"/>
      <point x="279" y="580" type="curve" smooth="yes"/>
    </contour>
  </outline>
</glyph>
<glyph name="tml_MatraIi" format="1">
  <unicode hex="0BC0"/>
  <outline>
    <contour>
      <point x="521" y="412" type="line"/>
      <point x="341" y="560"/>
      <point x="375" y="896"/>
      <point x="585" y="896" type="curve" smooth="yes"/>
      <point x="660" y="895"/>
      <point x="739" y="857"/>
      <point x="739" y="756" type="curve" smooth="yes"/>
      <point x="739" y="684"/>
      <point x="682" y="623"/>
      <point x="616" y="623" type="curve" smooth="yes"/>
      <point x="562" y="623"/>
      <point x="518" y="666"/>
      <point x="514" y="687" type="curve"/>
      <point x="558" y="739" type="line" smooth="yes"/>
      <point x="558" y="723"/>
      <point x="573" y="696"/>
      <point x="612" y="696" type="curve" smooth="yes"/>
      <point x="646" y="696"/>
      <point x="666" y="727"/>
      <point x="666" y="755" type="curve" smooth="yes"/>
      <point x="666" y="792"/>
      <point x="640" y="821"/>
      <point x="585" y="821" type="curve"/>
      <point x="431" y="810"/>
      <point x="448" y="545"/>
      <point x="615" y="421" type="curve"/>
    </contour>
  </outline>
</glyph>
<glyph name="tml_MatraU" format="1">
  <advance width="569"/>
  <unicode hex="0BC1"/>
  <outline>
    <contour>
      <point x="39" y="598" type="line"/>
      <point x="319" y="598" type="line" smooth="yes"/>
      <point x="399" y="598"/>
      <point x="432" y="577"/>
      <point x="432" y="529" type="curve" smooth="yes"/>
      <point x="432" y="511"/>
      <point x="416" y="473"/>
      <point x="374" y="473" type="curve" smooth="yes"/>
      <point x="330" y="473"/>
      <point x="315" y="510"/>
      <point x="315" y="530" type="curve" smooth="yes"/>
      <point x="242" y="530" type="line"/>
      <point x="242" y="466"/>
      <point x="295" y="400"/>
      <point x="364" y="400" type="curve" smooth="yes"/>
      <point x="383" y="400" type="line" smooth="yes"/>
      <point x="438" y="400"/>
      <point x="505" y="453"/>
      <point x="505" y="530" type="curve" smooth="yes"/>
      <point x="505" y="538" type="line" smooth="yes"/>
      <point x="505" y="632"/>
      <point x="436" y="672"/>
      <point x="323" y="672" type="curve" smooth="yes"/>
      <point x="39" y="672" type="line"/>
    </contour>
  </outline>
</glyph>
<glyph name="tml_MatraUu" format="1">
  <unicode hex="0BC2"/>
  <outline>
    <contour>
      <point x="112" y="647" type="curve"/>
      <point x="328" y="647" type="line" smooth="yes"/>
      <point x="385" y="674"/>
      <point x="432" y="661"/>
      <point x="448" y="628" type="curve" smooth="yes"/>
      <point x="464" y="618"/>
      <point x="481" y="580"/>
      <point x="449" y="555" type="curve" smooth="yes"/>
      <point x="414" y="555"/>
      <point x="404" y="453"/>
      <point x="404" y="465" type="curve" smooth="yes"/>
      <point x="404" y="451"/>
      <point x="373" y="441"/>
      <point x="358" y="441" type="curve"/>
      <point x="358" y="412"/>
      <point x="358" y="375"/>
      <point x="399" y="375" type="curve" smooth="yes"/>
      <point x="406" y="337" type="line" smooth="yes"/>
      <point x="438" y="337"/>
      <point x="493" y="369"/>
      <point x="493" y="404" type="curve" smooth="yes"/>
      <point x="536" y="404"/>
      <point x="567" y="426"/>
      <point x="567" y="469" type="curve" smooth="yes"/>
      <point x="567" y="509"/>
      <point x="537" y="672"/>
      <point x="469" y="672" type="curve" smooth="yes"/>
      <point x="469" y="715"/>
      <point x="266" y="753"/>
      <point x="206" y="753" type="curve"/>
      <point x="152" y="753"/>
      <point x="112" y="692"/>
    </contour>
    <contour>
      <point x="166" y="620" type="curve" smooth="yes"/>
      <point x="305" y="620" type="line"/>
      <point x="328" y="680"/>
      <point x="368" y="712"/>
      <point x="431" y="696" type="curve" smooth="yes"/>
      <point x="496" y="689"/>
      <point x="516" y="648"/>
      <point x="507" y="614" type="curve" smooth="yes"/>
      <point x="498" y="614"/>
      <point x="493" y="429"/>
      <point x="493" y="437" type="curve" smooth="yes"/>
      <point x="493" y="388"/>
      <point x="412" y="387"/>
      <point x="385" y="387" type="curve" smooth="yes"/>
      <point x="385" y="352"/>
      <point x="379" y="323"/>
      <point x="408" y="323" type="curve" smooth="yes"/>
      <point x="419" y="299" type="line" smooth="yes"/>
      <point x="442" y="299"/>
      <point x="513" y="320"/>
      <point x="513" y="363" type="curve" smooth="yes"/>
      <point x="572" y="363"/>
      <point x="594" y="395"/>
      <point x="594" y="441" type="curve" smooth="yes"/>
      <point x="594" y="495"/>
      <point x="555" y="696"/>
      <point x="509" y="696" type="curve" smooth="yes"/>
      <point x="509" y="758"/>
      <point x="340" y="788"/>
      <point x="280" y="788" type="curve" smooth="yes"/>
      <point x="212" y="788"/>
      <point x="166" y="704"/>
    </contour>
  </outline>
</glyph>
<glyph name="tml_MatraE" format="1">
  <advance width="633"/>
  <unicode hex="0BC6"/>
  <outline>
    <contour>
      <point x="276" y="0" type="curve"/>
      <point x="276" y="74" type="line"/>
      <point x="319" y="74"/>
      <point x="350" y="113"/>
      <point x="350" y="182" type="curve" smooth="yes"/>
      <point x="350" y="252"/>
      <point x="318" y="285"/>
      <point x="276" y="285" type="curve"/>
      <point x="276" y="359" type="line" smooth="yes"/>
      <point x="358" y="359"/>
      <point x="425" y="285"/>
      <point x="425" y="207" type="curve" smooth="yes"/>
      <point x="425" y="164" type="line" smooth="yes"/>
      <point x="426" y="81"/>
      <point x="363" y="0"/>
    </contour>
    <contour>
      <point x="61" y="163" type="curve" smooth="yes"/>
      <point x="61" y="181"/>
      <point x="61" y="173"/>
      <point x="61" y="206" type="curve" smooth="yes"/>
      <point x="60" y="310"/>
      <point x="155" y="359"/>
      <point x="221" y="359" type="curve"/>
      <point x="221" y="285" type="line" smooth="yes"/>
      <point x="187" y="285"/>
      <point x="135" y="260"/>
      <point x="135" y="181" type="curve" smooth="yes"/>
      <point x="135" y="115"/>
      <point x="178" y="74"/>
      <point x="221" y="74" type="curve"/>
      <point x="221" y="0" type="line" smooth="yes"/>
      <point x="127" y="0"/>
      <point x="61" y="89"/>
    </contour>
    <contour>
      <point x="350" y="620" type="curve"/>
      <point x="350" y="694" type="line"/>
      <point x="505" y="694"/>
      <point x="571" y="579"/>
      <point x="571" y="451" type="curve" smooth="yes"/>
      <point x="571" y="-10" type="line"/>
      <point x="498" y="-10" type="line"/>
      <point x="498" y="451" type="line" smooth="yes"/>
      <point x="498" y="511"/>
      <point x="481" y="620"/>
    </contour>
    <contour>
      <point x="61" y="202" type="curve"/>
      <point x="61" y="256" type="line"/>
      <point x="61" y="451" type="line" smooth="yes"/>
      <point x="61" y="578"/>
      <point x="131" y="694"/>
      <point x="296" y="694" type="curve" smooth="yes"/>
      <point x="296" y="694" type="line"/>
      <point x="296" y="620" type="line" smooth="yes"/>
      <point x="296" y="620" type="line" smooth="yes"/>
      <point x="171" y="620"/>
      <point x="135" y="532"/>
      <point x="135" y="451" type="curve" smooth="yes"/>
      <point x="135" y="308" type="line" smooth="yes"/>
      <point x="136" y="251"/>
      <point x="67" y="232"/>
    </contour>
  </outline>
</glyph>
<glyph name="tml_MatraEe" format="1">
  <advance width="621"/>
  <unicode hex="0BC7"/>
  <outline>
    <contour>
      <point x="413" y="346" type="curve"/>
      <point x="413" y="420" type="line"/>
      <point x="456" y="420"/>
      <point x="488" y="459"/>
      <point x="487" y="528" type="curve" smooth="yes"/>
      <point x="487" y="597"/>
      <point x="455" y="631"/>
      <point x="413" y="631" type="curve"/>
      <point x="413" y="705" type="line" smooth="yes"/>
      <point x="496" y="705"/>
      <point x="563" y="631"/>
      <point x="563" y="553" type="curve" smooth="yes"/>
      <point x="563" y="510" type="line" smooth="yes"/>
      <point x="563" y="427"/>
      <point x="500" y="346"/>
    </contour>
    <contour>
      <point x="198" y="509" type="curve" smooth="yes"/>
      <point x="198" y="527"/>
      <point x="199" y="519"/>
      <point x="198" y="552" type="curve" smooth="yes"/>
      <point x="198" y="656"/>
      <point x="293" y="705"/>
      <point x="358" y="705" type="curve"/>
      <point x="358" y="631" type="line" smooth="yes"/>
      <point x="324" y="631"/>
      <point x="272" y="606"/>
      <point x="272" y="527" type="curve" smooth="yes"/>
      <point x="272" y="460"/>
      <point x="315" y="420"/>
      <point x="358" y="420" type="curve"/>
      <point x="358" y="346" type="line" smooth="yes"/>
      <point x="264" y="346"/>
      <point x="198" y="435"/>
    </contour>
    <contour>
      <point x="413" y="-42" type="curve"/>
      <point x="413" y="32" type="line"/>
      <point x="456" y="32"/>
      <point x="488" y="71"/>
      <point x="487" y="140" type="curve" smooth="yes"/>
      <point x="487" y="209"/>
      <point x="455" y="243"/>
      <point x="413" y="243" type="curve"/>
      <point x="413" y="317" type="line" smooth="yes"/>
      <point x="496" y="317"/>
      <point x="563" y="243"/>
      <point x="563" y="165" type="curve" smooth="yes"/>
      <point x="563" y="122" type="line" smooth="yes"/>
      <point x="563" y="39"/>
      <point x="500" y="-42"/>
    </contour>
    <contour>
      <point x="198" y="121" type="curve" smooth="yes"/>
      <point x="198" y="139"/>
      <point x="199" y="131"/>
      <point x="198" y="164" type="curve" smooth="yes"/>
      <point x="198" y="268"/>
      <point x="293" y="317"/>
      <point x="358" y="317" type="curve"/>
      <point x="358" y="243" type="line" smooth="yes"/>
      <point x="324" y="243"/>
      <point x="272" y="218"/>
      <point x="272" y="139" type="curve" smooth="yes"/>
      <point x="272" y="72"/>
      <point x="315" y="32"/>
      <point x="358" y="32" type="curve"/>
      <point x="358" y="-42" type="line" smooth="yes"/>
      <point x="264" y="-42"/>
      <point x="198" y="47"/>
    </contour>
    <contour>
      <point x="64" y="195" type="curve"/>
      <point x="64" y="466" type="line"/>
      <point x="64" y="676"/>
      <point x="287" y="705"/>
      <point x="354" y="705" type="curve" smooth="yes"/>
      <point x="354" y="632" type="line"/>
      <point x="304" y="630"/>
      <point x="135" y="615"/>
      <point x="135" y="462" type="curve" smooth="yes"/>
      <point x="135" y="208" type="line" smooth="yes"/>
      <point x="135" y="49"/>
      <point x="314" y="31"/>
      <point x="356" y="31" type="curve"/>
      <point x="356" y="-42" type="line" smooth="yes"/>
      <point x="351" y="-42" type="line" smooth="yes"/>
      <point x="263" y="-42"/>
      <point x="64" y="-5"/>
    </contour>
  </outline>
</glyph>
<glyph name="tml_MatraAi" format="1">
  <advance width="1043"/>
  <unicode hex="0BC8"/>
  <outline>
    <contour>
      <point x="423" y="158" type="curve"/>
      <point x="423" y="288" type="line" smooth="yes"/>
      <point x="423" y="587"/>
      <point x="685" y="606"/>
      <point x="748" y="605" type="curve"/>
      <point x="748" y="532" type="line"/>
      <point x="611" y="532"/>
      <point x="497" y="477"/>
      <point x="497" y="290" type="curve" smooth="yes"/>
      <point x="497" y="159" type="line" smooth="yes"/>
      <point x="497" y="106"/>
      <point x="522" y="64"/>
      <point x="568" y="64" type="curve"/>
      <point x="568" y="-10" type="line" smooth="yes"/>
      <point x="472" y="-10"/>
      <point x="423" y="73"/>
    </contour>
    <contour>
      <point x="389" y="531" type="curve"/>
      <point x="389" y="605" type="line"/>
      <point x="492" y="605"/>
      <point x="768" y="591"/>
      <point x="768" y="301" type="curve" smooth="yes"/>
      <point x="768" y="158" type="line" smooth="yes"/>
      <point x="768" y="66"/>
      <point x="721" y="-10"/>
      <point x="622" y="-10" type="curve"/>
      <point x="622" y="64" type="line" smooth="yes"/>
      <point x="674" y="64"/>
      <point x="694" y="105"/>
      <point x="694" y="158" type="curve" smooth="yes"/>
      <point x="694" y="299" type="line" smooth="yes"/>
      <point x="694" y="455"/>
      <point x="597" y="531"/>
    </contour>
    <contour>
      <point x="40" y="157" type="line"/>
      <point x="40" y="72"/>
      <point x="90" y="-11"/>
      <point x="186" y="-11" type="curve" smooth="yes"/>
      <point x="186" y="63" type="line"/>
      <point x="147" y="63"/>
      <point x="114" y="97"/>
      <point x="114" y="158" type="curve" smooth="yes"/>
      <point x="114" y="290" type="line" smooth="yes"/>
      <point x="113" y="433"/>
      <point x="176" y="531"/>
      <point x="335" y="531" type="curve"/>
      <point x="335" y="605" type="line"/>
      <point x="255" y="605"/>
      <point x="40" y="580"/>
      <point x="40" y="290" type="curve" smooth="yes"/>
    </contour>
    <contour>
      <point x="238" y="381" type="curve"/>
      <point x="235" y="403"/>
      <point x="260" y="435"/>
      <point x="295" y="437" type="curve"/>
      <point x="363" y="437"/>
      <point x="385" y="369"/>
      <point x="385" y="286" type="curve" smooth="yes"/>
      <point x="385" y="157" type="line" smooth="yes"/>
      <point x="385" y="62"/>
      <point x="335" y="-11"/>
      <point x="239" y="-11" type="curve"/>
      <point x="239" y="63" type="line" smooth="yes"/>
      <point x="282" y="63"/>
      <point x="311" y="97"/>
      <point x="311" y="157" type="curve" smooth="yes"/>
      <point x="311" y="286" type="line" smooth="yes"/>
      <point x="311" y="341"/>
      <point x="298" y="381"/>
    </contour>
    <contour>
      <point x="802" y="522" type="line"/>
      <point x="855" y="513"/>
      <point x="921" y="440"/>
      <point x="921" y="303" type="curve" smooth="yes"/>
      <point x="921" y="162" type="line" smooth="yes"/>
      <point x="921" y="113"/>
      <point x="899" y="69"/>
      <point x="841" y="69" type="curve" smooth="yes"/>
      <point x="841" y="-5" type="line"/>
      <point x="943" y="-5"/>
      <point x="995" y="70"/>
      <point x="995" y="162" type="curve" smooth="yes"/>
      <point x="995" y="303" type="line" smooth="yes"/>
      <point x="995" y="483"/>
      <point x="898" y="590"/>
      <point x="802" y="596" type="curve"/>
    </contour>
  </outline>
</glyph>
<glyph name="tml_Three" format="1">
  <advance width="734"/>
  <unicode hex="0BE9"/>
  <outline>
    <contour>
      <point x="312" y="0" type="line"/>
      <point x="312" y="74" type="line"/>
      <point x="657" y="74" type="line"/>
      <point x="657" y="0" type="line"/>
    </contour>
    <contour>
      <point x="255" y="0" type="curve"/>
      <point x="255" y="74" type="line"/>
      <point x="269" y="74"/>
      <point x="403" y="74"/>
      <point x="430" y="74" type="curve" smooth="yes"/>
      <point x="491" y="74"/>
      <point x="528" y="78"/>
      <point x="528" y="130" type="curve" smooth="yes"/>
      <point x="528" y="222" type="line" smooth="yes"/>
      <point x="528" y="277"/>
      <point x="474" y="279"/>
      <point x="433" y="280" type="curve" smooth="yes"/>
      <point x="433" y="354" type="line"/>
      <point x="509" y="354"/>
      <point x="602" y="327"/>
      <point x="602" y="230" type="curve" smooth="yes"/>
      <point x="602" y="112" type="line" smooth="yes"/>
      <point x="602" y="36"/>
      <point x="533" y="0"/>
      <point x="439" y="0" type="curve" smooth="yes"/>
      <point x="408" y="0"/>
      <point x="289" y="0"/>
    </contour>
    <contour>
      <point x="305" y="177" type="line"/>
      <point x="378" y="177" type="line"/>
      <point x="378" y="589" type="line"/>
      <point x="305" y="589" type="line"/>
    </contour>
    <contour>
      <point x="64" y="0" type="line"/>
      <point x="138" y="0" type="line"/>
      <point x="138" y="591" type="line"/>
      <point x="64" y="591" type="line"/>
    </contour>
    <contour>
      <point x="64" y="595" type="line"/>
      <point x="65" y="521" type="line"/>
      <point x="487" y="521" type="line"/>
      <point x="487" y="595" type="line"/>
    </contour>
  </outline>
</glyph>
<glyph name="tml_Eight" format="1">
  <advance width="553"/>
  <unicode hex="0BEE"/>
  <outline>
    <contour>
      <point x="427" y="333" type="curve" smooth="yes"/>
      <point x="383" y="424"/>
      <point x="362" y="509"/>
      <point x="426" y="588" type="curve" smooth="yes"/>
      <point x="492" y="658"/>
      <point x="552" y="695"/>
      <point x="640" y="632" type="curve" smooth="yes"/>
      <point x="733" y="632"/>
      <point x="757" y="475"/>
      <point x="757" y="361" type="curve"/>
      <point x="707" y="240" type="line"/>
      <point x="683" y="331" type="line"/>
      <point x="683" y="363"/>
      <point x="668" y="506"/>
      <point x="636" y="506" type="curve" smooth="yes"/>
      <point x="603" y="616"/>
      <point x="563" y="640"/>
      <point x="495" y="609" type="curve" smooth="yes"/>
      <point x="433" y="566"/>
      <point x="475" y="477"/>
      <point x="499" y="380" type="curve" smooth="yes"/>
      <point x="499" y="298"/>
      <point x="524" y="253"/>
      <point x="557" y="227" type="curve" smooth="yes"/>
      <point x="533" y="242"/>
      <point x="427" y="272"/>
    </contour>
    <contour>
      <point x="384" y="175" type="curve"/>
      <point x="384" y="248" type="line"/>
      <point x="456" y="248"/>
      <point x="684" y="248"/>
      <point x="757" y="248" type="curve"/>
      <point x="758" y="67" type="line"/>
      <point x="758" y="-35"/>
      <point x="687" y="-127"/>
      <point x="562" y="-127" type="curve" smooth="yes"/>
      <point x="386" y="-127" type="line" smooth="yes"/>
      <point x="386" y="-53" type="line"/>
      <point x="557" y="-53" type="line" smooth="yes"/>
      <point x="635" y="-52"/>
      <point x="683" y="-4"/>
      <point x="683" y="68" type="curve"/>
      <point x="683" y="175" type="line"/>
      <point x="647" y="175"/>
      <point x="420" y="175"/>
    </contour>
    <contour>
      <point x="40" y="72" type="curve" smooth="yes"/>
      <point x="40" y="188"/>
      <point x="124" y="249"/>
      <point x="254" y="249" type="curve" smooth="yes"/>
      <point x="329" y="249" type="line"/>
      <point x="329" y="174" type="line"/>
      <point x="236" y="174" type="line" smooth="yes"/>
      <point x="212" y="174"/>
      <point x="113" y="168"/>
      <point x="113" y="72" type="curve" smooth="yes"/>
      <point x="113" y="-21"/>
      <point x="192" y="-53"/>
      <point x="246" y="-53" type="curve" smooth="yes"/>
      <point x="330" y="-53" type="line"/>
      <point x="330" y="-127" type="line"/>
      <point x="243" y="-127" type="line" smooth="yes"/>
      <point x="131" y="-127"/>
      <point x="40" y="-47"/>
    </contour>
    <contour>
      <point x="716" y="175" type="line"/>
      <point x="716" y="248" type="line"/>
      <point x="857" y="248" type="line"/>
      <point x="857" y="175" type="line"/>
    </contour>
    <contour>
      <point x="855" y="-107" type="line"/>
      <point x="855" y="578" type="line"/>
      <point x="929" y="578" type="line"/>
      <point x="929" y="-107" type="line"/>
    </contour>
  </outline>
</glyph>
<glyph name="tml_Hundred" format="1">
  <advance width="797"/>
  <unicode hex="0BF1"/>
  <outline>
    <contour>
      <point x="582" y="0" type="line"/>
      <point x="582" y="546" type="line"/>
      <point x="655" y="546" type="line" smooth="yes"/>
      <point x="655" y="0" type="line" smooth="yes"/>
    </contour>
    <contour>
      <point x="475" y="532" type="line"/>
      <point x="475" y="606" type="line"/>
      <point x="758" y="606" type="line"/>
      <point x="758" y="532" type="line"/>
    </contour>
    <contour>
      <point x="40" y="0" type="line"/>
      <point x="40" y="479" type="line" smooth="yes"/>
      <point x="40" y="542"/>
      <point x="78" y="606"/>
      <point x="167" y="606" type="curve"/>
      <point x="167" y="532" type="line"/>
      <point x="144" y="532"/>
      <point x="112" y="522"/>
      <point x="112" y="470" type="curve" smooth="yes"/>
      <point x="115" y="0" type="line"/>
    </contour>
    <contour>
      <point x="222" y="532" type="curve"/>
      <point x="222" y="606" type="line"/>
      <point x="268" y="606"/>
      <point x="295" y="597"/>
      <point x="322" y="570" type="curve"/>
      <point x="350" y="604"/>
      <point x="382" y="606"/>
      <point x="421" y="606" type="curve"/>
      <point x="421" y="532" type="line"/>
      <point x="386" y="532"/>
      <point x="358" y="525"/>
      <point x="358" y="473" type="curve" smooth="yes"/>
      <point x="360" y="0" type="line"/>
      <point x="286" y="0" type="line"/>
      <point x="283" y="472" type="line" smooth="yes"/>
      <point x="283" y="513"/>
      <point x="262" y="532"/>
    </contour>
  </outline>
</glyph>
